{
classes = (
{
code = "slash A O a i o Scedilla scedilla uni0162 uni0163";
name = aalt;
},
{
code = "fraction ordfeminine ordmasculine ordfeminine idotaccent ordmasculine uni0218 uni0219 uni021A uni021B";
name = aalt2;
},
{
code = "gravecomb acutecomb uni0302 tildecomb uni0304 uni0306 uni0307 uni0308 uni030A uni030B uni030C uni0312";
name = ccmp;
},
{
code = "zero.dnom one.dnom two.dnom three.dnom four.dnom five.dnom six.dnom seven.dnom eight.dnom nine.dnom";
name = dnom_frac;
},
{
code = "zero one two three four five six seven eight nine";
name = dnom_frac_numr_ordn;
},
{
code = "slash zero one two three four five six seven eight nine";
name = frac;
},
{
code = "fraction zero.numr one.numr two.numr three.numr four.numr five.numr six.numr seven.numr eight.numr nine.numr";
name = frac2;
},
{
code = "fraction zero.dnom one.dnom two.dnom three.dnom four.dnom five.dnom six.dnom seven.dnom eight.dnom nine.dnom";
name = frac3;
},
{
code = "zero.numr one.numr two.numr three.numr four.numr five.numr six.numr seven.numr eight.numr nine.numr";
name = frac_numr;
}
);
copyright = "Copyright 2020 The Spartan Project Authors (https://github.com/MattBaileyDesign/Spartan-MB/tree/V-1.005)";
designer = "Matt Bailey, Mirko Velimirovic";
designerURL = "http://mtbailey.com";
familyName = "Spartan MB";
customParameters = (
{
name = glyphOrder;
value = (
.notdef,
NULL,
uni000D,
space,
exclam,
quotedbl,
numbersign,
dollar,
percent,
ampersand,
quotesingle,
parenleft,
parenright,
asterisk,
plus,
comma,
hyphen,
period,
slash,
zero,
one,
two,
three,
four,
five,
six,
seven,
eight,
nine,
colon,
semicolon,
less,
equal,
greater,
question,
at,
A,
B,
C,
D,
E,
F,
G,
H,
I,
J,
K,
L,
M,
N,
O,
P,
Q,
R,
S,
T,
U,
V,
W,
X,
Y,
Z,
bracketleft,
backslash,
bracketright,
asciicircum,
underscore,
grave,
a,
b,
c,
d,
e,
f,
g,
h,
i,
j,
k,
l,
m,
n,
o,
p,
q,
r,
s,
t,
u,
v,
w,
x,
y,
z,
braceleft,
bar,
braceright,
asciitilde,
uni00A0,
exclamdown,
cent,
sterling,
currency,
yen,
brokenbar,
section,
dieresis,
copyright,

glyphs = (
{
color = (255, 153, 153, 255);
glyphname = exclam;
layers = (
{
layerId = "AE9DFD7C-61AF-45F8-BC87-08C480261DD9";
paths = (
{
closed = 1;
nodes = (
"298 580 LINE",
"445 1720 LINE",
"832 1720 LINE",
"577 580 LINE"
);
},
{
closed = 1;
nodes = (
"279 -32 OFFCURVE",
"196 10 OFFCURVE",
"142 82 OFFCURVE",
"120 179 OFFCURVE",
"130 234 QCURVE SMOOTH",
"140 289 OFFCURVE",
"195 386 OFFCURVE",
"275 458 OFFCURVE",
"373 500 OFFCURVE",
"424 500 QCURVE SMOOTH",
"475 500 OFFCURVE",
"558 458 OFFCURVE",
"612 386 OFFCURVE",
"634 289 OFFCURVE",
"624 234 QCURVE SMOOTH",
"614 179 OFFCURVE",
"558 82 OFFCURVE",
"479 10 OFFCURVE",
"381 -32 OFFCURVE",
"330 -32 QCURVE SMOOTH"
);
}
);
width = 671;
},
{
layerId = "801DDF57-AF28-491E-9007-7F83CAB295FA";
paths = (
{
closed = 1;
nodes = (
"297 539 LINE",
"460 1720 LINE",
"791 1720 LINE",
"537 539 LINE"
);
},
{
closed = 1;
nodes = (
"272 -32 OFFCURVE",
"201 4 OFFCURVE",
"154 67 OFFCURVE",
"135 150 OFFCURVE",
"143 198 QCURVE SMOOTH",
"151 246 OFFCURVE",
"200 329 OFFCURVE",
"269 392 OFFCURVE",
"353 428 OFFCURVE",
"398 428 QCURVE SMOOTH",
"443 428 OFFCURVE",
"513 392 OFFCURVE",
"561 329 OFFCURVE",
"579 246 OFFCURVE",
"571 198 QCURVE SMOOTH",
"563 150 OFFCURVE",
"514 67 OFFCURVE",
"445 4 OFFCURVE",
"362 -32 OFFCURVE",
"317 -32 QCURVE SMOOTH"
);
}
);
width = 644;
},
{
layerId = "7828A6CD-C6F9-4202-83DF-9F2979E44CC9";
paths = (
{
closed = 1;
nodes = (
"296 496 LINE",
"475 1720 LINE",
"747 1720 LINE",
"495 496 LINE"
);
},
{
closed = 1;
nodes = (
"265 -32 OFFCURVE",
"206 -2 OFFCURVE",
"167 50 OFFCURVE",
"151 119 OFFCURVE",
"158 159 QCURVE SMOOTH",
"165 199 OFFCURVE",
"205 268 OFFCURVE",
"263 320 OFFCURVE",
"332 350 OFFCURVE",
"369 350 QCURVE SMOOTH",
"406 350 OFFCURVE",
"466 320 OFFCURVE",
"505 268 OFFCURVE",
"520 199 OFFCURVE",
"513 159 QCURVE SMOOTH",
"506 119 OFFCURVE",
"466 50 OFFCURVE",
"409 -2 OFFCURVE",
"339 -32 OFFCURVE",
"302 -32 QCURVE SMOOTH"
);
}
);
width = 615;
},
{
layerId = "E014D827-045C-4C5E-9112-DAAA2F08F96E";
paths = (
{
closed = 1;
nodes = (
"294 459 LINE",
"489 1720 LINE",
"708 1720 LINE",
"458 459 LINE"
);
},
{
closed = 1;
nodes = (
"259 -32 OFFCURVE",
"209 -7 OFFCURVE",
"178 35 OFFCURVE",
"165 93 OFFCURVE",
"171 126 QCURVE SMOOTH",
"177 159 OFFCURVE",
"210 217 OFFCURVE",
"256 259 OFFCURVE",
"315 284 OFFCURVE",
"345 284 QCURVE SMOOTH",
"376 284 OFFCURVE",
"426 259 OFFCURVE",
"457 217 OFFCURVE",
"470 159 OFFCURVE",
"464 126 QCURVE SMOOTH",
"458 93 OFFCURVE",
"425 35 OFFCURVE",
"379 -7 OFFCURVE",
"321 -32 OFFCURVE",
"290 -32 QCURVE SMOOTH"
);
}
);
width = 590;
},
{
layerId = "FF432E7F-1027-4D02-BFD8-A992D5952530";
paths = (
{
closed = 1;
nodes = (
"294 430 LINE",
"500 1720 LINE",
"678 1720 LINE",
"429 430 LINE"
);
},
{
closed = 1;
nodes = (
"255 -32 OFFCURVE",
"214 -11 OFFCURVE",
"187 25 OFFCURVE",
"176 73 OFFCURVE",
"181 100 QCURVE SMOOTH",
"186 127 OFFCURVE",
"213 175 OFFCURVE",
"253 211 OFFCURVE",
"301 232 OFFCURVE",
"327 232 QCURVE SMOOTH",
"352 232 OFFCURVE",
"393 211 OFFCURVE",
"420 175 OFFCURVE",
"431 127 OFFCURVE",
"426 100 QCURVE SMOOTH",
"421 73 OFFCURVE",
"393 25 OFFCURVE",
"353 -11 OFFCURVE",
"305 -32 OFFCURVE",
"280 -32 QCURVE SMOOTH"
);
}
);
width = 571;
},
{
layerId = "74131A9F-F041-4E04-A4FA-FF748C1727DF";
paths = (
{
closed = 1;
nodes = (
"287 393 LINE",
"508 1720 LINE",
"636 1720 LINE",
"389 393 LINE"
);
},
{
closed = 1;
nodes = (
"244 -32 OFFCURVE",
"214 -16 OFFCURVE",
"193 11 OFFCURVE",
"185 47 OFFCURVE",
"188 67 QCURVE",
"192 87 OFFCURVE",
"213 123 OFFCURVE",
"243 150 OFFCURVE",
"279 166 OFFCURVE",
"298 166 QCURVE SMOOTH",
"317 166 OFFCURVE",
"347 150 OFFCURVE",
"367 123 OFFCURVE",
"376 87 OFFCURVE",
"372 67 QCURVE SMOOTH",
"368 47 OFFCURVE",
"348 11 OFFCURVE",
"318 -16 OFFCURVE",
"282 -32 OFFCURVE",
"263 -32 QCURVE SMOOTH"
);
}
);
width = 537;
},
{
layerId = "4B953CDD-5CE3-4322-8A9F-D31267D1A9B5";
paths = (
{
closed = 1;
nodes = (
"288 368 LINE",
"519 1720 LINE",
"612 1720 LINE",
"366 368 LINE"
);
},
{
closed = 1;
nodes = (
"226 -31 OFFCURVE",
"193 14 OFFCURVE",
"198 46 QCURVE",
"204 78 OFFCURVE",
"254 123 OFFCURVE",
"283 123 QCURVE SMOOTH",
"313 123 OFFCURVE",
"347 78 OFFCURVE",
"342 46 QCURVE",
"336 14 OFFCURVE",
"286 -31 OFFCURVE",
"256 -31 QCURVE SMOOTH"
);
}
);
width = 523;
},
{
layerId = "E14BD65A-535D-455D-BD93-03DF5D4D66A0";
paths = (
{
closed = 1;
nodes = (
"287 349 LINE",
"526 1720 LINE",
"593 1720 LINE",
"348 349 LINE"
);
},
{
closed = 1;
nodes = (
"227 -32 OFFCURVE",
"201 3 OFFCURVE",
"205 28 QCURVE SMOOTH",
"209 53 OFFCURVE",
"248 88 OFFCURVE",
"272 88 QCURVE SMOOTH",
"295 88 OFFCURVE",
"321 53 OFFCURVE",
"317 28 QCURVE SMOOTH",
"313 3 OFFCURVE",
"273 -32 OFFCURVE",
"250 -32 QCURVE SMOOTH"
);
}
);
width = 512;
},
{
layerId = "E447CA33-FCF6-431B-A31E-579E9AB2C071";
paths = (
{
closed = 1;
nodes = (
"290 336 LINE",
"534 1720 LINE",
"582 1720 LINE",
"338 336 LINE"
);
},
{
closed = 1;
nodes = (
"230 -32 OFFCURVE",
"210 -4 OFFCURVE",
"213 16 QCURVE",
"217 36 OFFCURVE",
"248 64 OFFCURVE",
"266 64 QCURVE SMOOTH",
"285 64 OFFCURVE",
"306 36 OFFCURVE",
"302 16 QCURVE SMOOTH",
"298 -4 OFFCURVE",
"268 -32 OFFCURVE",
"249 -32 QCURVE SMOOTH"
);
}
);
width = 509;
}
);
unicode = 0021;
},
{
glyphname = numbersign;
layers = (
{
layerId = "AE9DFD7C-61AF-45F8-BC87-08C480261DD9";
paths = (
{
closed = 1;
nodes = (
"265 0 LINE",
"390 442 LINE",
"200 442 LINE",
"250 726 LINE",
"471 726 LINE",
"544 982 LINE",
"295 982 LINE",
"345 1266 LINE",
"626 1266 LINE",
"752 1706 LINE",
"1016 1706 LINE",
"888 1266 LINE",
"1191 1266 LINE",
"1317 1706 LINE",
"1582 1706 LINE",
"1454 1266 LINE",
"1649 1266 LINE",
"1599 982 LINE",
"1374 982 LINE",
"1301 726 LINE",
"1554 726 LINE",
"1504 442 LINE",
"1217 442 LINE",
"1093 0 LINE",
"831 0 LINE",
"955 442 LINE",
"652 442 LINE",
"527 0 LINE"
);
},
{
closed = 1;
nodes = (
"735 726 LINE",
"1037 726 LINE",
"1112 982 LINE",
"808 982 LINE"
);
}
);
width = 1624;
},
{
layerId = "801DDF57-AF28-491E-9007-7F83CAB295FA";
paths = (
{
closed = 1;
nodes = (
"261 0 LINE",
"385 437 LINE",
"199 437 LINE",
"242 680 LINE",
"455 680 LINE",
"539 970 LINE",
"293 970 LINE",
"336 1213 LINE",
"609 1213 LINE",
"735 1649 LINE",
"961 1649 LINE",
"834 1213 LINE",
"1152 1213 LINE",
"1279 1649 LINE",
"1505 1649 LINE",
"1377 1213 LINE",
"1567 1213 LINE",
"1524 970 LINE",
"1309 970 LINE",
"1224 680 LINE",
"1473 680 LINE",
"1430 437 LINE",
"1153 437 LINE",
"1028 0 LINE",
"804 0 LINE",
"928 437 LINE",
"609 437 LINE",
"485 0 LINE"
);
},
{
closed = 1;
nodes = (
"681 680 LINE",
"999 680 LINE",
"1083 970 LINE",
"765 970 LINE"
);
}
);
width = 1539;
},
{
layerId = "7828A6CD-C6F9-4202-83DF-9F2979E44CC9";
paths = (
{
closed = 1;
nodes = (
"284 0 LINE",
"409 432 LINE",
"227 432 LINE",
"262 631 LINE",
"467 631 LINE",
"564 958 LINE",
"320 958 LINE",
"355 1157 LINE",
"621 1157 LINE",
"747 1589 LINE",
"933 1589 LINE",
"805 1157 LINE",
"1140 1157 LINE",
"1267 1589 LINE",
"1452 1589 LINE",
"1325 1157 LINE",
"1510 1157 LINE",
"1475 958 LINE",
"1268 958 LINE",
"1172 631 LINE",
"1417 631 LINE",
"1382 432 LINE",
"1114 432 LINE",
"988 0 LINE",
"804 0 LINE",
"929 432 LINE",
"594 432 LINE",
"468 0 LINE"
);
},
{
closed = 1;
nodes = (
"652 631 LINE",
"987 631 LINE",
"1084 958 LINE",
"749 958 LINE"
);
}
);
width = 1456;
},
{
layerId = "E014D827-045C-4C5E-9112-DAAA2F08F96E";
paths = (
{
closed = 1;
nodes = (
"249 0 LINE",
"375 428 LINE",
"197 428 LINE",
"226 590 LINE",
"423 590 LINE",
"530 948 LINE",
"289 948 LINE",
"318 1110 LINE",
"577 1110 LINE",
"703 1538 LINE",
"854 1538 LINE",
"727 1110 LINE",
"1076 1110 LINE",
"1203 1538 LINE",
"1354 1538 LINE",
"1226 1110 LINE",
"1407 1110 LINE",
"1378 948 LINE",
"1179 948 LINE",
"1072 590 LINE",
"1315 590 LINE",
"1286 428 LINE",
"1025 428 LINE",
"899 0 LINE",
"750 0 LINE",
"875 428 LINE",
"526 428 LINE",
"400 0 LINE"
);
},
{
closed = 1;
nodes = (
"573 590 LINE",
"923 590 LINE",
"1029 948 LINE",
"681 948 LINE"
);
}
);
width = 1374;
},
{
layerId = "FF432E7F-1027-4D02-BFD8-A992D5952530";
paths = (
{
closed = 1;
nodes = (
"259 0 LINE",
"385 425 LINE",
"211 425 LINE",
"234 558 LINE",
"425 558 LINE",
"540 940 LINE",
"301 940 LINE",
"325 1073 LINE",
"579 1073 LINE",
"705 1498 LINE",
"828 1498 LINE",
"701 1073 LINE",
"1061 1073 LINE",
"1188 1498 LINE",
"1312 1498 LINE",
"1184 1073 LINE",
"1362 1073 LINE",
"1338 940 LINE",
"1146 940 LINE",
"1030 558 LINE",
"1271 558 LINE",
"1247 425 LINE",
"992 425 LINE",
"866 0 LINE",
"743 0 LINE",
"869 425 LINE",
"508 425 LINE",
"382 0 LINE"
);
},
{
closed = 1;
nodes = (
"547 558 LINE",
"908 558 LINE",
"1023 940 LINE",
"663 940 LINE"
);
}
);
width = 1350;
},
{
layerId = "74131A9F-F041-4E04-A4FA-FF748C1727DF";
paths = (
{
closed = 1;
nodes = (
"229 0 LINE",
"355 420 LINE",
"184 420 LINE",
"201 516 LINE",
"384 516 LINE",
"510 930 LINE",
"274 930 LINE",
"291 1026 LINE",
"537 1026 LINE",
"665 1447 LINE",
"754 1447 LINE",
"626 1026 LINE",
"1001 1026 LINE",
"1128 1447 LINE",
"1216 1447 LINE",
"1089 1026 LINE",
"1262 1026 LINE",
"1245 930 LINE",
"1061 930 LINE",
"934 516 LINE",
"1172 516 LINE",
"1155 420 LINE",
"907 420 LINE",
"781 0 LINE",
"692 0 LINE",
"818 420 LINE",
"444 420 LINE",
"318 0 LINE"
);
},
{
closed = 1;
nodes = (
"472 516 LINE",
"847 516 LINE",
"973 930 LINE",
"599 930 LINE"
);
}
);
width = 1204;
},
{
layerId = "4B953CDD-5CE3-4322-8A9F-D31267D1A9B5";
paths = (
{
closed = 1;
nodes = (
"240 0 LINE",
"366 417 LINE",
"197 417 LINE",
"210 487 LINE",
"387 487 LINE",
"522 923 LINE",
"287 923 LINE",
"299 993 LINE",
"541 993 LINE",
"668 1412 LINE",
"734 1412 LINE",
"606 993 LINE",
"990 993 LINE",
"1118 1412 LINE",
"1182 1412 LINE",
"1055 993 LINE",
"1224 993 LINE",
"1212 923 LINE",
"1033 923 LINE",
"900 487 LINE",
"1135 487 LINE",
"1123 417 LINE",
"880 417 LINE",
"753 0 LINE",
"688 0 LINE",
"816 417 LINE",
"431 417 LINE",
"304 0 LINE"
);
},
{
closed = 1;
nodes = (
"451 487 LINE",
"836 487 LINE",
"969 923 LINE",
"585 923 LINE"
);
}
);
width = 1187;
},
{
layerId = "E14BD65A-535D-455D-BD93-03DF5D4D66A0";
paths = (
{
closed = 1;
nodes = (
"227 0 LINE",
"353 415 LINE",
"187 415 LINE",
"196 466 LINE",
"370 466 LINE",
"509 918 LINE",
"276 918 LINE",
"285 969 LINE",
"523 969 LINE",
"650 1386 LINE",
"698 1386 LINE",
"570 969 LINE",
"962 969 LINE",
"1089 1386 LINE",
"1136 1386 LINE",
"1009 969 LINE",
"1176 969 LINE",
"1167 918 LINE",
"993 918 LINE",
"853 466 LINE",
"1087 466 LINE",
"1078 415 LINE",
"839 415 LINE",
"713 0 LINE",
"665 0 LINE",
"792 415 LINE",
"401 415 LINE",
"274 0 LINE"
);
},
{
closed = 1;
nodes = (
"415 466 LINE",
"808 466 LINE",
"946 918 LINE",
"555 918 LINE"
);
}
);
width = 1118;
},
{
layerId = "E447CA33-FCF6-431B-A31E-579E9AB2C071";
paths = (
{
closed = 1;
nodes = (
"235 0 LINE",
"362 414 LINE",
"197 414 LINE",
"203 452 LINE",
"375 452 LINE",
"517 914 LINE",
"285 914 LINE",
"292 952 LINE",
"528 952 LINE",
"655 1368 LINE",
"690 1368 LINE",
"563 952 LINE",
"959 952 LINE",
"1087 1368 LINE",
"1122 1368 LINE",
"995 952 LINE",
"1160 952 LINE",
"1154 914 LINE",
"982 914 LINE",
"840 452 LINE",
"1072 452 LINE",
"1065 414 LINE",
"829 414 LINE",
"702 0 LINE",
"667 0 LINE",
"794 414 LINE",
"398 414 LINE",
"271 0 LINE"
);
},
{
closed = 1;
nodes = (
"408 452 LINE",
"806 452 LINE",
"947 914 LINE",
"551 914 LINE"
);
}
);
width = 1116;
}
);
unicode = 0023;
},
{
color = (255, 153, 153, 255);
glyphname = dollar;
layers = (
{
layerId = "AE9DFD7C-61AF-45F8-BC87-08C480261DD9";
paths = (
{
closed = 1;
nodes = (
"1124 1926 LINE",
"1079 1673 LINE",
"1128 1666 OFFCURVE",
"1224 1642 OFFCURVE",
"1311 1607 OFFCURVE",
"1386 1564 OFFCURVE",
"1414 1538 QCURVE",
"1190 1184 LINE",
"1158 1206 OFFCURVE",
"1084 1242 OFFCURVE",
"1009 1267 OFFCURVE",
"935 1280 OFFCURVE",
"902 1280 QCURVE SMOOTH",
"829 1280 OFFCURVE",
"741 1223 OFFCURVE",
"733 1179 QCURVE SMOOTH",
"730 1160 OFFCURVE",
"743 1126 OFFCURVE",
"787 1090 OFFCURVE",
"866 1046 OFFCURVE",
"929 1016 QCURVE SMOOTH",
"1023 971 OFFCURVE",
"1181 876 OFFCURVE",
"1287 756 OFFCURVE",
"1331 602 OFFCURVE",
"1313 498 QCURVE SMOOTH",
"1294 392 OFFCURVE",
"1202 218 OFFCURVE",
"1064 86 OFFCURVE",
"886 -1 OFFCURVE",
"781 -19 QCURVE",
"735 -276 LINE",
"503 -276 LINE",
"546 -29 LINE",
"470 -23 OFFCURVE",
"329 12 OFFCURVE",
"206 66 OFFCURVE",
"105 136 OFFCURVE",
"69 178 QCURVE",
"324 532 LINE",
"416 454 OFFCURVE",
"599 376 OFFCURVE",
"682 376 QCURVE SMOOTH",
"723 376 OFFCURVE",
"786 394 OFFCURVE",
"830 425 OFFCURVE",
"857 466 OFFCURVE",
"861 489 QCURVE SMOOTH",
"866 515 OFFCURVE",
"852 558 OFFCURVE",
"806 602 OFFCURVE",
"722 652 OFFCURVE",
"658 685 QCURVE SMOOTH",
"556 737 OFFCURVE",
"416 841 OFFCURVE",
"338 957 OFFCURVE",
"316 1088 OFFCURVE",
"330 1167 QCURVE SMOOTH",
"345 1252 OFFCURVE",
"432 1414 OFFCURVE",
"565 1550 OFFCURVE",
"742 1648 OFFCURVE",
"846 1668 QCURVE",
"891 1926 LINE"
);
}
);
width = 1244;
},
{
layerId = "801DDF57-AF28-491E-9007-7F83CAB295FA";
paths = (
{
closed = 1;
nodes = (
"1101 1926 LINE",
"1056 1672 LINE",
"1106 1665 OFFCURVE",
"1201 1636 OFFCURVE",
"1283 1597 OFFCURVE",
"1352 1549 OFFCURVE",
"1377 1522 QCURVE",
"1176 1233 LINE",
"1147 1256 OFFCURVE",
"1078 1295 OFFCURVE",
"1005 1323 OFFCURVE",
"930 1338 OFFCURVE",
"892 1338 QCURVE SMOOTH",
"848 1338 OFFCURVE",
"777 1316 OFFCURVE",
"724 1277 OFFCURVE",
"690 1225 OFFCURVE",
"685 1195 QCURVE SMOOTH",
"680 1169 OFFCURVE",
"695 1123 OFFCURVE",
"743 1076 OFFCURVE",
"829 1026 OFFCURVE",
"895 996 QCURVE SMOOTH",
"993 951 OFFCURVE",
"1151 856 OFFCURVE",
"1254 736 OFFCURVE",
"1295 584 OFFCURVE",
"1277 483 QCURVE SMOOTH",
"1258 378 OFFCURVE",
"1168 208 OFFCURVE",
"1033 80 OFFCURVE",
"860 -3 OFFCURVE",
"758 -20 QCURVE",
"713 -276 LINE",
"512 -276 LINE",
"555 -30 LINE",
"477 -24 OFFCURVE",
"333 14 OFFCURVE",
"210 75 OFFCURVE",
"114 155 OFFCURVE",
"81 202 QCURVE",
"306 488 LINE",
"389 405 OFFCURVE",
"574 316 OFFCURVE",
"666 316 QCURVE SMOOTH",
"712 316 OFFCURVE",
"790 339 OFFCURVE",
"849 381 OFFCURVE",
"887 440 OFFCURVE",
"893 475 QCURVE SMOOTH",
"899 509 OFFCURVE",
"883 566 OFFCURVE",
"830 620 OFFCURVE",
"736 677 OFFCURVE",
"663 712 QCURVE SMOOTH",
"564 760 OFFCURVE",
"427 862 OFFCURVE",
"350 976 OFFCURVE",
"327 1108 OFFCURVE",
"341 1186 QCURVE SMOOTH",
"356 1272 OFFCURVE",
"444 1433 OFFCURVE",
"578 1564 OFFCURVE",
"753 1656 OFFCURVE",
"856 1672 QCURVE",
"900 1926 LINE"
);
}
);
width = 1236;
},
{
layerId = "7828A6CD-C6F9-4202-83DF-9F2979E44CC9";
paths = (
{
closed = 1;
nodes = (
"1071 1926 LINE",
"1026 1670 LINE",
"1075 1661 OFFCURVE",
"1162 1628 OFFCURVE",
"1238 1584 OFFCURVE",
"1299 1532 OFFCURVE",
"1320 1504 QCURVE",
"1143 1284 LINE",
"1092 1334 OFFCURVE",
"948 1399 OFFCURVE",
"866 1399 QCURVE SMOOTH",
"815 1399 OFFCURVE",
"729 1369 OFFCURVE",
"665 1317 OFFCURVE",
"624 1250 OFFCURVE",
"617 1212 QCURVE SMOOTH",
"611 1178 OFFCURVE",
"629 1118 OFFCURVE",
"681 1061 OFFCURVE",
"773 1005 OFFCURVE",
"843 975 QCURVE SMOOTH",
"945 930 OFFCURVE",
"1101 834 OFFCURVE",
"1201 715 OFFCURVE",
"1239 566 OFFCURVE",
"1222 468 QCURVE SMOOTH",
"1204 367 OFFCURVE",
"1116 202 OFFCURVE",
"987 78 OFFCURVE",
"822 -3 OFFCURVE",
"728 -20 QCURVE",
"682 -276 LINE",
"515 -276 LINE",
"558 -31 LINE",
"475 -27 OFFCURVE",
"325 15 OFFCURVE",
"201 84 OFFCURVE",
"105 175 OFFCURVE",
"77 229 QCURVE",
"272 442 LINE",
"345 354 OFFCURVE",
"530 253 OFFCURVE",
"632 253 QCURVE SMOOTH",
"684 253 OFFCURVE",
"777 282 OFFCURVE",
"851 336 OFFCURVE",
"901 413 OFFCURVE",
"909 461 QCURVE SMOOTH",
"917 505 OFFCURVE",
"899 575 OFFCURVE",
"839 640 OFFCURVE",
"733 704 OFFCURVE",
"653 741 QCURVE SMOOTH",
"556 785 OFFCURVE",
"422 884 OFFCURVE",
"345 998 OFFCURVE",
"323 1129 OFFCURVE",
"336 1205 QCURVE SMOOTH",
"352 1293 OFFCURVE",
"443 1455 OFFCURVE",
"580 1583 OFFCURVE",
"757 1667 OFFCURVE",
"859 1677 QCURVE",
"903 1926 LINE"
);
}
);
width = 1234;
},
{
layerId = "E014D827-045C-4C5E-9112-DAAA2F08F96E";
paths = (
{
closed = 1;
nodes = (
"1053 1926 LINE",
"1009 1672 LINE",
"1060 1663 OFFCURVE",
"1150 1626 OFFCURVE",
"1224 1577 OFFCURVE",
"1282 1519 OFFCURVE",
"1300 1489 QCURVE",
"1144 1329 LINE",
"1122 1355 OFFCURVE",
"1064 1399 OFFCURVE",
"995 1433 OFFCURVE",
"917 1452 OFFCURVE",
"873 1452 QCURVE SMOOTH",
"814 1452 OFFCURVE",
"717 1415 OFFCURVE",
"644 1353 OFFCURVE",
"597 1272 OFFCURVE",
"589 1227 QCURVE SMOOTH",
"582 1186 OFFCURVE",
"601 1115 OFFCURVE",
"657 1049 OFFCURVE",
"755 988 OFFCURVE",
"827 957 QCURVE SMOOTH",
"933 912 OFFCURVE",
"1088 815 OFFCURVE",
"1186 697 OFFCURVE",
"1221 550 OFFCURVE",
"1204 455 QCURVE SMOOTH",
"1186 354 OFFCURVE",
"1097 190 OFFCURVE",
"967 68 OFFCURVE",
"803 -9 OFFCURVE",
"710 -24 QCURVE",
"665 -276 LINE",
"527 -276 LINE",
"570 -31 LINE",
"486 -27 OFFCURVE",
"338 19 OFFCURVE",
"216 94 OFFCURVE",
"127 194 OFFCURVE",
"102 251 QCURVE",
"271 402 LINE",
"303 356 OFFCURVE",
"383 281 OFFCURVE",
"475 228 OFFCURVE",
"578 199 OFFCURVE",
"632 199 QCURVE SMOOTH",
"690 199 OFFCURVE",
"796 233 OFFCURVE",
"882 297 OFFCURVE",
"942 390 OFFCURVE",
"952 449 QCURVE SMOOTH",
"961 500 OFFCURVE",
"942 583 OFFCURVE",
"877 657 OFFCURVE",
"761 727 OFFCURVE",
"673 766 QCURVE SMOOTH",
"579 808 OFFCURVE",
"448 904 OFFCURVE",
"372 1017 OFFCURVE",
"349 1147 OFFCURVE",
"362 1222 QCURVE SMOOTH",
"378 1310 OFFCURVE",
"467 1468 OFFCURVE",
"600 1591 OFFCURVE",
"772 1670 OFFCURVE",
"871 1678 QCURVE",
"915 1926 LINE"
);
}
);
width = 1214;
},
{
layerId = "FF432E7F-1027-4D02-BFD8-A992D5952530";
paths = (
{
closed = 1;
nodes = (
"1041 1926 LINE",
"996 1671 LINE",
"988 1671 LINE",
"1039 1661 OFFCURVE",
"1127 1621 OFFCURVE",
"1197 1569 OFFCURVE",
"1250 1509 OFFCURVE",
"1265 1477 QCURVE",
"1127 1364 LINE",
"1107 1390 OFFCURVE",
"1053 1437 OFFCURVE",
"985 1473 OFFCURVE",
"905 1494 OFFCURVE",
"859 1494 QCURVE SMOOTH",
"795 1494 OFFCURVE",
"688 1452 OFFCURVE",
"607 1382 OFFCURVE",
"555 1289 OFFCURVE",
"546 1239 QCURVE SMOOTH",
"538 1193 OFFCURVE",
"558 1112 OFFCURVE",
"618 1040 OFFCURVE",
"720 974 OFFCURVE",
"795 943 QCURVE SMOOTH",
"903 898 OFFCURVE",
"1060 800 OFFCURVE",
"1154 683 OFFCURVE",
"1187 538 OFFCURVE",
"1171 445 QCURVE SMOOTH",
"1154 346 OFFCURVE",
"1067 186 OFFCURVE",
"941 67 OFFCURVE",
"784 -8 OFFCURVE",
"697 -23 QCURVE",
"652 -276 LINE",
"536 -276 LINE",
"579 -32 LINE",
"492 -31 OFFCURVE",
"338 17 OFFCURVE",
"213 98 OFFCURVE",
"125 206 OFFCURVE",
"103 269 QCURVE",
"252 371 LINE",
"280 323 OFFCURVE",
"356 244 OFFCURVE",
"448 187 OFFCURVE",
"555 156 OFFCURVE",
"612 156 QCURVE SMOOTH",
"673 156 OFFCURVE",
"791 194 OFFCURVE",
"887 266 OFFCURVE",
"955 371 OFFCURVE",
"967 439 QCURVE SMOOTH",
"977 497 OFFCURVE",
"957 590 OFFCURVE",
"887 671 OFFCURVE",
"764 746 OFFCURVE",
"670 786 QCURVE SMOOTH",
"485 866 OFFCURVE",
"336 1087 OFFCURVE",
"363 1236 QCURVE SMOOTH",
"379 1326 OFFCURVE",
"470 1485 OFFCURVE",
"607 1605 OFFCURVE",
"782 1677 OFFCURVE",
"881 1680 QCURVE",
"924 1926 LINE"
);
}
);
width = 1213;
},
{
layerId = "74131A9F-F041-4E04-A4FA-FF748C1727DF";
paths = (
{
closed = 1;
nodes = (
"1026 1926 LINE",
"982 1677 LINE",
"1042 1670 OFFCURVE",
"1140 1628 OFFCURVE",
"1216 1569 OFFCURVE",
"1268 1498 OFFCURVE",
"1282 1462 QCURVE",
"1180 1385 LINE",
"1165 1416 OFFCURVE",
"1115 1474 OFFCURVE",
"1046 1519 OFFCURVE",
"957 1547 OFFCURVE",
"903 1547 QCURVE SMOOTH",
"832 1547 OFFCURVE",
"713 1498 OFFCURVE",
"622 1417 OFFCURVE",
"564 1311 OFFCURVE",
"554 1254 QCURVE SMOOTH",
"535 1148 OFFCURVE",
"661 989 OFFCURVE",
"815 925 QCURVE SMOOTH",
"926 880 OFFCURVE",
"1083 782 OFFCURVE",
"1176 665 OFFCURVE",
"1206 522 OFFCURVE",
"1190 432 QCURVE SMOOTH",
"1172 328 OFFCURVE",
"1075 163 OFFCURVE",
"939 46 OFFCURVE",
"772 -23 OFFCURVE",
"681 -30 QCURVE",
"638 -276 LINE",
"551 -276 LINE",
"594 -31 LINE",
"511 -26 OFFCURVE",
"369 28 OFFCURVE",
"258 115 OFFCURVE",
"181 227 OFFCURVE",
"164 291 QCURVE",
"273 361 LINE",
"295 305 OFFCURVE",
"368 210 OFFCURVE",
"465 141 OFFCURVE",
"583 102 OFFCURVE",
"648 102 QCURVE SMOOTH",
"715 102 OFFCURVE",
"845 144 OFFCURVE",
"955 227 OFFCURVE",
"1033 348 OFFCURVE",
"1047 427 QCURVE SMOOTH",
"1059 493 OFFCURVE",
"1036 598 OFFCURVE",
"961 689 OFFCURVE",
"827 770 OFFCURVE",
"728 812 QCURVE SMOOTH",
"547 887 OFFCURVE",
"398 1105 OFFCURVE",
"424 1253 QCURVE SMOOTH",
"439 1339 OFFCURVE",
"523 1489 OFFCURVE",
"648 1603 OFFCURVE",
"806 1673 OFFCURVE",
"895 1679 QCURVE",
"939 1926 LINE"
);
}
);
width = 1222;
},
{
layerId = "4B953CDD-5CE3-4322-8A9F-D31267D1A9B5";
paths = (
{
closed = 1;
nodes = (
"1031 1926 LINE",
"987 1676 LINE",
"1046 1668 OFFCURVE",
"1140 1623 OFFCURVE",
"1210 1561 OFFCURVE",
"1256 1487 OFFCURVE",
"1268 1451 QCURVE",
"1191 1399 LINE",
"1179 1433 OFFCURVE",
"1132 1499 OFFCURVE",
"1060 1551 OFFCURVE",
"965 1583 OFFCURVE",
"906 1583 QCURVE SMOOTH",
"830 1583 OFFCURVE",
"703 1530 OFFCURVE",
"607 1442 OFFCURVE",
"544 1326 OFFCURVE",
"534 1264 QCURVE SMOOTH",
"514 1149 OFFCURVE",
"645 978 OFFCURVE",
"804 913 QCURVE SMOOTH",
"917 868 OFFCURVE",
"1073 770 OFFCURVE",
"1164 653 OFFCURVE",
"1192 512 OFFCURVE",
"1177 423 QCURVE SMOOTH",
"1159 321 OFFCURVE",
"1065 160 OFFCURVE",
"932 45 OFFCURVE",
"771 -22 OFFCURVE",
"686 -30 QCURVE",
"642 -276 LINE",
"574 -276 LINE",
"617 -32 LINE",
"531 -29 OFFCURVE",
"384 27 OFFCURVE",
"270 118 OFFCURVE",
"196 239 OFFCURVE",
"181 307 QCURVE",
"262 354 LINE",
"279 292 OFFCURVE",
"350 186 OFFCURVE",
"451 109 OFFCURVE",
"576 65 OFFCURVE",
"647 65 QCURVE SMOOTH",
"718 65 OFFCURVE",
"858 111 OFFCURVE",
"976 200 OFFCURVE",
"1060 332 OFFCURVE",
"1075 418 QCURVE SMOOTH",
"1088 489 OFFCURVE",
"1065 604 OFFCURVE",
"986 701 OFFCURVE",
"846 787 OFFCURVE",
"740 829 QCURVE SMOOTH",
"388 971 OFFCURVE",
"441 1265 QCURVE SMOOTH",
"457 1354 OFFCURVE",
"543 1504 OFFCURVE",
"670 1615 OFFCURVE",
"830 1679 OFFCURVE",
"919 1680 QCURVE",
"963 1926 LINE"
);
}
);
width = 1225;
},
{
layerId = "E14BD65A-535D-455D-BD93-03DF5D4D66A0";
paths = (
{
closed = 1;
nodes = (
"989 1926 LINE",
"944 1674 LINE",
"942 1674 LINE",
"999 1664 OFFCURVE",
"1089 1617 OFFCURVE",
"1154 1553 OFFCURVE",
"1195 1479 OFFCURVE",
"1205 1443 QCURVE",
"1146 1409 LINE",
"1138 1446 OFFCURVE",
"1092 1518 OFFCURVE",
"1019 1575 OFFCURVE",
"919 1610 OFFCURVE",
"856 1610 QCURVE SMOOTH",
"777 1610 OFFCURVE",
"643 1554 OFFCURVE",
"542 1460 OFFCURVE",
"477 1338 OFFCURVE",
"465 1272 QCURVE SMOOTH",
"443 1149 OFFCURVE",
"579 969 OFFCURVE",
"742 904 QCURVE SMOOTH",
"857 858 OFFCURVE",
"1013 760 OFFCURVE",
"1103 643 OFFCURVE",
"1129 503 OFFCURVE",
"1114 416 QCURVE SMOOTH",
"1097 317 OFFCURVE",
"1006 160 OFFCURVE",
"879 47 OFFCURVE",
"725 -20 OFFCURVE",
"644 -29 QCURVE",
"600 -276 LINE",
"547 -276 LINE",
"590 -32 LINE",
"510 -32 OFFCURVE",
"361 15 OFFCURVE",
"239 105 OFFCURVE",
"155 236 OFFCURVE",
"141 319 QCURVE",
"201 349 LINE",
"214 283 OFFCURVE",
"285 169 OFFCURVE",
"387 85 OFFCURVE",
"518 37 OFFCURVE",
"593 37 QCURVE SMOOTH",
"666 37 OFFCURVE",
"813 85 OFFCURVE",
"938 180 OFFCURVE",
"1028 320 OFFCURVE",
"1044 412 QCURVE SMOOTH",
"1057 487 OFFCURVE",
"1034 608 OFFCURVE",
"952 710 OFFCURVE",
"806 799 OFFCURVE",
"697 842 QCURVE SMOOTH",
"522 911 OFFCURVE",
"375 1128 OFFCURVE",
"400 1274 QCURVE SMOOTH",
"416 1363 OFFCURVE",
"502 1512 OFFCURVE",
"627 1620 OFFCURVE",
"784 1680 OFFCURVE",
"871 1680 QCURVE SMOOTH",
"877 1680 OFFCURVE",
"887 1680 OFFCURVE",
"892 1679 QCURVE",
"936 1926 LINE"
);
}
);
width = 1178;
},
{
layerId = "E447CA33-FCF6-431B-A31E-579E9AB2C071";
paths = (
{
closed = 1;
nodes = (
"986 1926 LINE",
"942 1675 LINE",
"929 1675 LINE",
"988 1666 OFFCURVE",
"1078 1617 OFFCURVE",
"1143 1551 OFFCURVE",
"1184 1475 OFFCURVE",
"1192 1438 QCURVE",
"1145 1416 LINE",
"1138 1454 OFFCURVE",
"1094 1530 OFFCURVE",
"1021 1590 OFFCURVE",
"918 1628 OFFCURVE",
"852 1628 QCURVE SMOOTH",
"770 1628 OFFCURVE",
"633 1569 OFFCURVE",
"529 1472 OFFCURVE",
"461 1345 OFFCURVE",
"449 1277 QCURVE SMOOTH",
"405 1026 OFFCURVE",
"730 898 QCURVE SMOOTH",
"846 852 OFFCURVE",
"1002 753 OFFCURVE",
"1092 637 OFFCURVE",
"1117 497 OFFCURVE",
"1102 411 QCURVE SMOOTH",
"1085 314 OFFCURVE",
"995 159 OFFCURVE",
"870 47 OFFCURVE",
"720 -19 OFFCURVE",
"641 -28 QCURVE",
"598 -276 LINE",
"555 -276 LINE",
"598 -32 LINE",
"582 -32 LINE SMOOTH",
"492 -32 OFFCURVE",
"341 25 OFFCURVE",
"227 123 OFFCURVE",
"155 253 OFFCURVE",
"144 326 QCURVE",
"190 345 LINE",
"202 276 OFFCURVE",
"270 157 OFFCURVE",
"374 68 OFFCURVE",
"509 18 OFFCURVE",
"587 18 QCURVE SMOOTH",
"661 18 OFFCURVE",
"814 68 OFFCURVE",
"942 166 OFFCURVE",
"1036 312 OFFCURVE",
"1053 408 QCURVE SMOOTH",
"1067 486 OFFCURVE",
"1043 611 OFFCURVE",
"959 716 OFFCURVE",
"809 807 OFFCURVE",
"698 850 QCURVE SMOOTH",
"526 917 OFFCURVE",
"378 1134 OFFCURVE",
"403 1280 QCURVE SMOOTH",
"419 1368 OFFCURVE",
"503 1515 OFFCURVE",
"626 1621 OFFCURVE",
"779 1680 OFFCURVE",
"863 1680 QCURVE SMOOTH",
"872 1680 OFFCURVE",
"890 1679 OFFCURVE",
"900 1679 QCURVE",
"943 1926 LINE"
);
}
);
width = 1185;
}
);
unicode = 0024;
},
{
color = (255, 153, 153, 255);
glyphname = percent;
layers = (
{
layerId = "AE9DFD7C-61AF-45F8-BC87-08C480261DD9";
paths = (
{
closed = 1;
nodes = (
"520 892 OFFCURVE",
"375 950 OFFCURVE",
"279 1054 OFFCURVE",
"240 1199 OFFCURVE",
"255 1286 QCURVE SMOOTH",
"270 1373 OFFCURVE",
"361 1518 OFFCURVE",
"494 1622 OFFCURVE",
"658 1680 OFFCURVE",
"749 1680 QCURVE SMOOTH",
"839 1680 OFFCURVE",
"983 1622 OFFCURVE",
"1079 1518 OFFCURVE",
"1118 1373 OFFCURVE",
"1103 1286 QCURVE SMOOTH",
"1088 1199 OFFCURVE",
"997 1054 OFFCURVE",
"864 950 OFFCURVE",
"700 892 OFFCURVE",
"610 892 QCURVE SMOOTH"
);
},
{
closed = 1;
nodes = (
"335 0 LINE",
"1519 1650 LINE",
"1774 1650 LINE",
"590 0 LINE"
);
},
{
closed = 1;
nodes = (
"682 1136 OFFCURVE",
"737 1158 OFFCURVE",
"783 1198 OFFCURVE",
"816 1253 OFFCURVE",
"822 1286 QCURVE SMOOTH",
"828 1319 OFFCURVE",
"815 1374 OFFCURVE",
"783 1414 OFFCURVE",
"734 1436 OFFCURVE",
"705 1436 QCURVE SMOOTH",
"676 1436 OFFCURVE",
"621 1414 OFFCURVE",
"575 1374 OFFCURVE",
"542 1319 OFFCURVE",
"536 1286 QCURVE SMOOTH",
"530 1253 OFFCURVE",
"544 1198 OFFCURVE",
"576 1158 OFFCURVE",
"624 1136 OFFCURVE",
"653 1136 QCURVE SMOOTH"
);
},
{
closed = 1;
nodes = (
"1262 -32 OFFCURVE",
"1118 26 OFFCURVE",
"1022 130 OFFCURVE",
"983 275 OFFCURVE",
"998 362 QCURVE SMOOTH",
"1013 449 OFFCURVE",
"1104 594 OFFCURVE",
"1237 698 OFFCURVE",
"1401 756 OFFCURVE",
"1491 756 QCURVE SMOOTH",
"1581 756 OFFCURVE",
"1726 698 OFFCURVE",
"1822 594 OFFCURVE",
"1861 449 OFFCURVE",
"1846 362 QCURVE SMOOTH",
"1831 275 OFFCURVE",
"1740 130 OFFCURVE",
"1607 26 OFFCURVE",
"1442 -32 OFFCURVE",
"1352 -32 QCURVE SMOOTH"
);
},
{
closed = 1;
nodes = (
"1424 212 OFFCURVE",
"1480 234 OFFCURVE",
"1526 274 OFFCURVE",
"1559 329 OFFCURVE",
"1565 362 QCURVE SMOOTH",
"1571 395 OFFCURVE",
"1557 450 OFFCURVE",
"1525 490 OFFCURVE",
"1477 512 OFFCURVE",
"1448 512 QCURVE SMOOTH",
"1419 512 OFFCURVE",
"1364 490 OFFCURVE",
"1317 450 OFFCURVE",
"1285 395 OFFCURVE",
"1279 362 QCURVE SMOOTH",
"1273 329 OFFCURVE",
"1286 274 OFFCURVE",
"1318 234 OFFCURVE",
"1366 212 OFFCURVE",
"1395 212 QCURVE SMOOTH"
);
}
);
width = 1810;
},
{
layerId = "801DDF57-AF28-491E-9007-7F83CAB295FA";
paths = (
{
closed = 1;
nodes = (
"524 892 OFFCURVE",
"382 950 OFFCURVE",
"289 1054 OFFCURVE",
"251 1199 OFFCURVE",
"267 1286 QCURVE SMOOTH",
"282 1373 OFFCURVE",
"371 1518 OFFCURVE",
"501 1622 OFFCURVE",
"663 1680 OFFCURVE",
"751 1680 QCURVE SMOOTH",
"839 1680 OFFCURVE",
"981 1622 OFFCURVE",
"1074 1518 OFFCURVE",
"1112 1373 OFFCURVE",
"1096 1286 QCURVE SMOOTH",
"1081 1199 OFFCURVE",
"992 1054 OFFCURVE",
"862 950 OFFCURVE",
"700 892 OFFCURVE",
"612 892 QCURVE SMOOTH"
);
},
{
closed = 1;
nodes = (
"355 0 LINE",
"1539 1650 LINE",
"1760 1650 LINE",
"577 0 LINE"
);
},
{
closed = 1;
nodes = (
"684 1104 OFFCURVE",
"752 1131 OFFCURVE",
"808 1179 OFFCURVE",
"847 1246 OFFCURVE",
"854 1286 QCURVE SMOOTH",
"861 1326 OFFCURVE",
"846 1393 OFFCURVE",
"807 1441 OFFCURVE",
"749 1468 OFFCURVE",
"714 1468 QCURVE SMOOTH",
"679 1468 OFFCURVE",
"611 1441 OFFCURVE",
"555 1393 OFFCURVE",
"517 1326 OFFCURVE",
"510 1286 QCURVE SMOOTH",
"503 1246 OFFCURVE",
"518 1179 OFFCURVE",
"557 1131 OFFCURVE",
"614 1104 OFFCURVE",
"649 1104 QCURVE SMOOTH"
);
},
{
closed = 1;
nodes = (
"1272 -32 OFFCURVE",
"1130 26 OFFCURVE",
"1037 130 OFFCURVE",
"999 275 OFFCURVE",
"1014 362 QCURVE SMOOTH",
"1029 449 OFFCURVE",
"1118 594 OFFCURVE",
"1248 698 OFFCURVE",
"1410 756 OFFCURVE",
"1499 756 QCURVE SMOOTH",
"1587 756 OFFCURVE",
"1727 698 OFFCURVE",
"1821 594 OFFCURVE",
"1858 449 OFFCURVE",
"1843 362 QCURVE SMOOTH",
"1828 275 OFFCURVE",
"1739 130 OFFCURVE",
"1609 26 OFFCURVE",
"1448 -32 OFFCURVE",
"1360 -32 QCURVE SMOOTH"
);
},
{
closed = 1;
nodes = (
"1432 180 OFFCURVE",
"1499 207 OFFCURVE",
"1554 255 OFFCURVE",
"1593 322 OFFCURVE",
"1600 362 QCURVE SMOOTH",
"1607 402 OFFCURVE",
"1592 469 OFFCURVE",
"1553 517 OFFCURVE",
"1497 544 OFFCURVE",
"1461 544 QCURVE SMOOTH",
"1426 544 OFFCURVE",
"1359 517 OFFCURVE",
"1303 469 OFFCURVE",
"1264 402 OFFCURVE",
"1257 362 QCURVE SMOOTH",
"1250 322 OFFCURVE",
"1265 255 OFFCURVE",
"1304 207 OFFCURVE",
"1362 180 OFFCURVE",
"1397 180 QCURVE SMOOTH"
);
}
);
width = 1820;
},
{
layerId = "7828A6CD-C6F9-4202-83DF-9F2979E44CC9";
paths = (
{
closed = 1;
nodes = (
"530 892 OFFCURVE",
"393 950 OFFCURVE",
"303 1054 OFFCURVE",
"266 1199 OFFCURVE",
"281 1286 QCURVE SMOOTH",
"296 1373 OFFCURVE",
"385 1518 OFFCURVE",
"512 1622 OFFCURVE",
"670 1680 OFFCURVE",
"755 1680 QCURVE SMOOTH",
"841 1680 OFFCURVE",
"979 1622 OFFCURVE",
"1069 1518 OFFCURVE",
"1106 1373 OFFCURVE",
"1090 1286 QCURVE SMOOTH",
"1075 1199 OFFCURVE",
"987 1054 OFFCURVE",
"860 950 OFFCURVE",
"702 892 OFFCURVE",
"616 892 QCURVE SMOOTH"
);
},
{
closed = 1;
nodes = (
"378 0 LINE",
"1562 1650 LINE",
"1747 1650 LINE",
"563 0 LINE"
);
},
{
closed = 1;
nodes = (
"690 1070 OFFCURVE",
"770 1102 OFFCURVE",
"834 1159 OFFCURVE",
"879 1238 OFFCURVE",
"888 1286 QCURVE SMOOTH",
"896 1334 OFFCURVE",
"878 1413 OFFCURVE",
"835 1470 OFFCURVE",
"766 1502 OFFCURVE",
"724 1502 QCURVE SMOOTH",
"682 1502 OFFCURVE",
"602 1470 OFFCURVE",
"538 1413 OFFCURVE",
"493 1334 OFFCURVE",
"484 1286 QCURVE SMOOTH",
"476 1238 OFFCURVE",
"493 1159 OFFCURVE",
"537 1102 OFFCURVE",
"606 1070 OFFCURVE",
"648 1070 QCURVE SMOOTH"
);
},
{
closed = 1;
nodes = (
"1282 -32 OFFCURVE",
"1144 26 OFFCURVE",
"1054 130 OFFCURVE",
"1017 275 OFFCURVE",
"1033 362 QCURVE SMOOTH",
"1048 449 OFFCURVE",
"1136 594 OFFCURVE",
"1263 698 OFFCURVE",
"1421 756 OFFCURVE",
"1507 756 QCURVE SMOOTH",
"1593 756 OFFCURVE",
"1730 698 OFFCURVE",
"1820 594 OFFCURVE",
"1857 449 OFFCURVE",
"1842 362 QCURVE SMOOTH",
"1827 275 OFFCURVE",
"1739 130 OFFCURVE",
"1611 26 OFFCURVE",
"1454 -32 OFFCURVE",
"1368 -32 QCURVE SMOOTH"
);
},
{
closed = 1;
nodes = (
"1441 146 OFFCURVE",
"1521 178 OFFCURVE",
"1585 235 OFFCURVE",
"1631 314 OFFCURVE",
"1639 362 QCURVE SMOOTH",
"1647 410 OFFCURVE",
"1630 489 OFFCURVE",
"1586 546 OFFCURVE",
"1517 578 OFFCURVE",
"1475 578 QCURVE SMOOTH",
"1433 578 OFFCURVE",
"1353 546 OFFCURVE",
"1289 489 OFFCURVE",
"1244 410 OFFCURVE",
"1235 362 QCURVE SMOOTH",
"1227 314 OFFCURVE",
"1245 235 OFFCURVE",
"1288 178 OFFCURVE",
"1357 146 OFFCURVE",
"1399 146 QCURVE SMOOTH"
);
}
);
width = 1832;
},
{
layerId = "E014D827-045C-4C5E-9112-DAAA2F08F96E";
paths = (
{
closed = 1;
nodes = (
"536 892 OFFCURVE",
"401 950 OFFCURVE",
"313 1054 OFFCURVE",
"278 1199 OFFCURVE",
"293 1286 QCURVE SMOOTH",
"308 1373 OFFCURVE",
"395 1518 OFFCURVE",
"520 1622 OFFCURVE",
"675 1680 OFFCURVE",
"759 1680 QCURVE SMOOTH",
"843 1680 OFFCURVE",
"977 1622 OFFCURVE",
"1066 1518 OFFCURVE",
"1101 1373 OFFCURVE",
"1086 1286 QCURVE SMOOTH",
"1071 1199 OFFCURVE",
"984 1054 OFFCURVE",
"859 950 OFFCURVE",
"704 892 OFFCURVE",
"620 892 QCURVE SMOOTH"
);
},
{
closed = 1;
nodes = (
"398 0 LINE",
"1581 1650 LINE",
"1737 1650 LINE",
"552 0 LINE"
);
},
{
closed = 1;
nodes = (
"694 1041 OFFCURVE",
"784 1077 OFFCURVE",
"856 1142 OFFCURVE",
"908 1232 OFFCURVE",
"917 1286 QCURVE SMOOTH",
"927 1340 OFFCURVE",
"907 1430 OFFCURVE",
"857 1495 OFFCURVE",
"781 1531 OFFCURVE",
"733 1531 QCURVE SMOOTH",
"685 1531 OFFCURVE",
"595 1495 OFFCURVE",
"522 1430 OFFCURVE",
"471 1340 OFFCURVE",
"462 1286 QCURVE SMOOTH",
"452 1232 OFFCURVE",
"471 1142 OFFCURVE",
"521 1077 OFFCURVE",
"598 1041 OFFCURVE",
"646 1041 QCURVE SMOOTH"
);
},
{
closed = 1;
nodes = (
"1291 -32 OFFCURVE",
"1156 26 OFFCURVE",
"1068 130 OFFCURVE",
"1033 275 OFFCURVE",
"1048 362 QCURVE SMOOTH",
"1063 449 OFFCURVE",
"1150 594 OFFCURVE",
"1275 698 OFFCURVE",
"1430 756 OFFCURVE",
"1514 756 QCURVE SMOOTH",
"1598 756 OFFCURVE",
"1732 698 OFFCURVE",
"1821 594 OFFCURVE",
"1856 449 OFFCURVE",
"1841 362 QCURVE SMOOTH",
"1826 275 OFFCURVE",
"1739 130 OFFCURVE",
"1614 26 OFFCURVE",
"1459 -32 OFFCURVE",
"1375 -32 QCURVE SMOOTH"
);
},
{
closed = 1;
nodes = (
"1449 117 OFFCURVE",
"1539 153 OFFCURVE",
"1611 218 OFFCURVE",
"1663 308 OFFCURVE",
"1672 362 QCURVE SMOOTH",
"1682 416 OFFCURVE",
"1662 506 OFFCURVE",
"1612 571 OFFCURVE",
"1536 607 OFFCURVE",
"1488 607 QCURVE SMOOTH",
"1440 607 OFFCURVE",
"1350 571 OFFCURVE",
"1277 506 OFFCURVE",
"1226 416 OFFCURVE",
"1216 362 QCURVE SMOOTH",
"1206 308 OFFCURVE",
"1226 218 OFFCURVE",
"1276 153 OFFCURVE",
"1353 117 OFFCURVE",
"1401 117 QCURVE SMOOTH"
);
}
);
width = 1844;
},
{
layerId = "FF432E7F-1027-4D02-BFD8-A992D5952530";
paths = (
{
closed = 1;
nodes = (
"544 892 OFFCURVE",
"412 950 OFFCURVE",
"325 1054 OFFCURVE",
"291 1199 OFFCURVE",
"307 1286 QCURVE SMOOTH",
"322 1373 OFFCURVE",
"407 1518 OFFCURVE",
"531 1622 OFFCURVE",
"683 1680 OFFCURVE",
"766 1680 QCURVE SMOOTH",
"849 1680 OFFCURVE",
"981 1622 OFFCURVE",
"1068 1518 OFFCURVE",
"1102 1373 OFFCURVE",
"1086 1286 QCURVE SMOOTH",
"1071 1199 OFFCURVE",
"986 1054 OFFCURVE",
"862 950 OFFCURVE",
"710 892 OFFCURVE",
"627 892 QCURVE SMOOTH"
);
},
{
closed = 1;
nodes = (
"417 0 LINE",
"1600 1650 LINE",
"1732 1650 LINE",
"548 0 LINE"
);
},
{
closed = 1;
nodes = (
"702 1018 OFFCURVE",
"800 1058 OFFCURVE",
"879 1129 OFFCURVE",
"934 1227 OFFCURVE",
"945 1286 QCURVE SMOOTH",
"955 1345 OFFCURVE",
"934 1443 OFFCURVE",
"881 1514 OFFCURVE",
"797 1554 OFFCURVE",
"744 1554 QCURVE SMOOTH",
"691 1554 OFFCURVE",
"593 1514 OFFCURVE",
"514 1443 OFFCURVE",
"459 1345 OFFCURVE",
"448 1286 QCURVE SMOOTH",
"438 1227 OFFCURVE",
"459 1129 OFFCURVE",
"512 1058 OFFCURVE",
"596 1018 OFFCURVE",
"649 1018 QCURVE SMOOTH"
);
},
{
closed = 1;
nodes = (
"1302 -32 OFFCURVE",
"1170 26 OFFCURVE",
"1083 130 OFFCURVE",
"1049 275 OFFCURVE",
"1065 362 QCURVE SMOOTH",
"1080 449 OFFCURVE",
"1165 594 OFFCURVE",
"1288 698 OFFCURVE",
"1441 756 OFFCURVE",
"1524 756 QCURVE SMOOTH",
"1607 756 OFFCURVE",
"1739 698 OFFCURVE",
"1825 594 OFFCURVE",
"1859 449 OFFCURVE",
"1844 362 QCURVE SMOOTH",
"1829 275 OFFCURVE",
"1744 130 OFFCURVE",
"1620 26 OFFCURVE",
"1468 -32 OFFCURVE",
"1385 -32 QCURVE SMOOTH"
);
},
{
closed = 1;
nodes = (
"1460 94 OFFCURVE",
"1558 134 OFFCURVE",
"1637 205 OFFCURVE",
"1692 303 OFFCURVE",
"1703 362 QCURVE SMOOTH",
"1713 421 OFFCURVE",
"1692 519 OFFCURVE",
"1639 590 OFFCURVE",
"1555 630 OFFCURVE",
"1502 630 QCURVE SMOOTH",
"1449 630 OFFCURVE",
"1350 590 OFFCURVE",
"1272 519 OFFCURVE",
"1216 421 OFFCURVE",
"1206 362 QCURVE SMOOTH",
"1196 303 OFFCURVE",
"1216 205 OFFCURVE",
"1270 134 OFFCURVE",
"1354 94 OFFCURVE",
"1407 94 QCURVE SMOOTH"
);
}
);
width = 1862;
},
{
layerId = "74131A9F-F041-4E04-A4FA-FF748C1727DF";
paths = (
{
closed = 1;
nodes = (
"536 892 OFFCURVE",
"408 950 OFFCURVE",
"323 1054 OFFCURVE",
"290 1199 OFFCURVE",
"305 1286 QCURVE SMOOTH",
"320 1373 OFFCURVE",
"405 1518 OFFCURVE",
"526 1622 OFFCURVE",
"675 1680 OFFCURVE",
"756 1680 QCURVE SMOOTH",
"836 1680 OFFCURVE",
"965 1622 OFFCURVE",
"1049 1518 OFFCURVE",
"1082 1373 OFFCURVE",
"1067 1286 QCURVE SMOOTH",
"1052 1199 OFFCURVE",
"967 1054 OFFCURVE",
"847 950 OFFCURVE",
"697 892 OFFCURVE",
"617 892 QCURVE SMOOTH"
);
},
{
closed = 1;
nodes = (
"422 0 LINE",
"1606 1650 LINE",
"1707 1650 LINE",
"524 0 LINE"
);
},
{
closed = 1;
nodes = (
"693 990 OFFCURVE",
"801 1034 OFFCURVE",
"887 1112 OFFCURVE",
"948 1221 OFFCURVE",
"960 1286 QCURVE SMOOTH",
"971 1351 OFFCURVE",
"949 1460 OFFCURVE",
"890 1538 OFFCURVE",
"797 1582 OFFCURVE",
"739 1582 QCURVE SMOOTH",
"680 1582 OFFCURVE",
"572 1538 OFFCURVE",
"484 1460 OFFCURVE",
"424 1351 OFFCURVE",
"413 1286 QCURVE SMOOTH",
"402 1221 OFFCURVE",
"423 1112 OFFCURVE",
"483 1034 OFFCURVE",
"575 990 OFFCURVE",
"634 990 QCURVE SMOOTH"
);
},
{
closed = 1;
nodes = (
"1298 -32 OFFCURVE",
"1169 26 OFFCURVE",
"1084 130 OFFCURVE",
"1051 275 OFFCURVE",
"1067 362 QCURVE SMOOTH",
"1082 449 OFFCURVE",
"1166 594 OFFCURVE",
"1288 698 OFFCURVE",
"1437 756 OFFCURVE",
"1517 756 QCURVE SMOOTH",
"1598 756 OFFCURVE",
"1727 698 OFFCURVE",
"1811 594 OFFCURVE",
"1844 449 OFFCURVE",
"1829 362 QCURVE SMOOTH",
"1814 275 OFFCURVE",
"1730 130 OFFCURVE",
"1608 26 OFFCURVE",
"1459 -32 OFFCURVE",
"1378 -32 QCURVE SMOOTH"
);
},
{
closed = 1;
nodes = (
"1455 66 OFFCURVE",
"1562 110 OFFCURVE",
"1650 188 OFFCURVE",
"1710 297 OFFCURVE",
"1721 362 QCURVE SMOOTH",
"1732 427 OFFCURVE",
"1711 536 OFFCURVE",
"1651 614 OFFCURVE",
"1559 658 OFFCURVE",
"1500 658 QCURVE SMOOTH",
"1441 658 OFFCURVE",
"1333 614 OFFCURVE",
"1247 536 OFFCURVE",
"1186 427 OFFCURVE",
"1174 362 QCURVE SMOOTH",
"1163 297 OFFCURVE",
"1186 188 OFFCURVE",
"1244 110 OFFCURVE",
"1337 66 OFFCURVE",
"1396 66 QCURVE SMOOTH"
);
}
);
width = 1840;
},
{
layerId = "4B953CDD-5CE3-4322-8A9F-D31267D1A9B5";
paths = (
{
closed = 1;
nodes = (
"546 892 OFFCURVE",
"418 950 OFFCURVE",
"335 1054 OFFCURVE",
"303 1199 OFFCURVE",
"319 1286 QCURVE SMOOTH",
"334 1373 OFFCURVE",
"417 1518 OFFCURVE",
"537 1622 OFFCURVE",
"685 1680 OFFCURVE",
"764 1680 QCURVE SMOOTH",
"843 1680 OFFCURVE",
"969 1622 OFFCURVE",
"1051 1518 OFFCURVE",
"1084 1373 OFFCURVE",
"1068 1286 QCURVE SMOOTH",
"1053 1199 OFFCURVE",
"970 1054 OFFCURVE",
"851 950 OFFCURVE",
"704 892 OFFCURVE",
"625 892 QCURVE SMOOTH"
);
},
{
closed = 1;
nodes = (
"442 0 LINE",
"1625 1650 LINE",
"1705 1650 LINE",
"522 0 LINE"
);
},
{
closed = 1;
nodes = (
"702 970 OFFCURVE",
"816 1017 OFFCURVE",
"909 1101 OFFCURVE",
"973 1217 OFFCURVE",
"985 1286 QCURVE SMOOTH",
"997 1356 OFFCURVE",
"975 1472 OFFCURVE",
"911 1556 OFFCURVE",
"813 1602 OFFCURVE",
"750 1602 QCURVE SMOOTH",
"687 1602 OFFCURVE",
"572 1555 OFFCURVE",
"480 1471 OFFCURVE",
"415 1355 OFFCURVE",
"403 1286 QCURVE SMOOTH",
"391 1217 OFFCURVE",
"414 1101 OFFCURVE",
"477 1017 OFFCURVE",
"576 970 OFFCURVE",
"639 970 QCURVE SMOOTH"
);
},
{
closed = 1;
nodes = (
"1310 -32 OFFCURVE",
"1184 26 OFFCURVE",
"1101 130 OFFCURVE",
"1068 275 OFFCURVE",
"1083 362 QCURVE SMOOTH",
"1098 449 OFFCURVE",
"1182 594 OFFCURVE",
"1302 698 OFFCURVE",
"1449 756 OFFCURVE",
"1528 756 QCURVE SMOOTH",
"1608 756 OFFCURVE",
"1735 698 OFFCURVE",
"1818 594 OFFCURVE",
"1850 449 OFFCURVE",
"1834 362 QCURVE SMOOTH",
"1819 275 OFFCURVE",
"1736 130 OFFCURVE",
"1616 26 OFFCURVE",
"1469 -32 OFFCURVE",
"1389 -32 QCURVE SMOOTH"
);
},
{
closed = 1;
nodes = (
"1466 46 OFFCURVE",
"1581 93 OFFCURVE",
"1673 177 OFFCURVE",
"1738 293 OFFCURVE",
"1750 362 QCURVE SMOOTH",
"1762 431 OFFCURVE",
"1739 547 OFFCURVE",
"1676 631 OFFCURVE",
"1578 678 OFFCURVE",
"1514 678 QCURVE SMOOTH",
"1452 678 OFFCURVE",
"1337 631 OFFCURVE",
"1244 547 OFFCURVE",
"1180 431 OFFCURVE",
"1168 362 QCURVE SMOOTH",
"1156 293 OFFCURVE",
"1179 177 OFFCURVE",
"1242 93 OFFCURVE",
"1341 46 OFFCURVE",
"1403 46 QCURVE SMOOTH"
);
}
);
width = 1860;
},
{
layerId = "E14BD65A-535D-455D-BD93-03DF5D4D66A0";
paths = (
{
closed = 1;
nodes = (
"544 892 OFFCURVE",
"418 950 OFFCURVE",
"336 1054 OFFCURVE",
"305 1199 OFFCURVE",
"320 1286 QCURVE SMOOTH",
"335 1373 OFFCURVE",
"418 1518 OFFCURVE",
"537 1622 OFFCURVE",
"683 1680 OFFCURVE",
"762 1680 QCURVE SMOOTH",
"840 1680 OFFCURVE",
"965 1622 OFFCURVE",
"1046 1518 OFFCURVE",
"1077 1373 OFFCURVE",
"1062 1286 QCURVE SMOOTH",
"1047 1199 OFFCURVE",
"964 1054 OFFCURVE",
"846 950 OFFCURVE",
"701 892 OFFCURVE",
"623 892 QCURVE SMOOTH"
);
},
{
closed = 1;
nodes = (
"447 0 LINE",
"1631 1650 LINE",
"1695 1650 LINE",
"511 0 LINE"
);
},
{
closed = 1;
nodes = (
"700 955 OFFCURVE",
"819 1004 OFFCURVE",
"917 1092 OFFCURVE",
"984 1213 OFFCURVE",
"997 1286 QCURVE SMOOTH",
"1010 1359 OFFCURVE",
"985 1481 OFFCURVE",
"919 1568 OFFCURVE",
"817 1617 OFFCURVE",
"751 1617 QCURVE SMOOTH",
"684 1617 OFFCURVE",
"564 1568 OFFCURVE",
"467 1480 OFFCURVE",
"400 1359 OFFCURVE",
"387 1286 QCURVE SMOOTH",
"374 1213 OFFCURVE",
"399 1092 OFFCURVE",
"464 1004 OFFCURVE",
"567 955 OFFCURVE",
"634 955 QCURVE SMOOTH"
);
},
{
closed = 1;
nodes = (
"1311 -32 OFFCURVE",
"1185 26 OFFCURVE",
"1103 130 OFFCURVE",
"1071 275 OFFCURVE",
"1087 362 QCURVE SMOOTH",
"1102 449 OFFCURVE",
"1185 594 OFFCURVE",
"1304 698 OFFCURVE",
"1450 756 OFFCURVE",
"1528 756 QCURVE SMOOTH",
"1606 756 OFFCURVE",
"1732 698 OFFCURVE",
"1814 594 OFFCURVE",
"1845 449 OFFCURVE",
"1830 362 QCURVE SMOOTH",
"1815 275 OFFCURVE",
"1732 130 OFFCURVE",
"1613 26 OFFCURVE",
"1467 -32 OFFCURVE",
"1389 -32 QCURVE SMOOTH"
);
},
{
closed = 1;
nodes = (
"1466 31 OFFCURVE",
"1587 80 OFFCURVE",
"1683 168 OFFCURVE",
"1750 289 OFFCURVE",
"1763 362 QCURVE SMOOTH",
"1776 435 OFFCURVE",
"1751 556 OFFCURVE",
"1686 644 OFFCURVE",
"1583 693 OFFCURVE",
"1517 693 QCURVE SMOOTH",
"1451 693 OFFCURVE",
"1331 644 OFFCURVE",
"1233 556 OFFCURVE",
"1166 435 OFFCURVE",
"1154 362 QCURVE SMOOTH",
"1141 289 OFFCURVE",
"1165 168 OFFCURVE",
"1231 80 OFFCURVE",
"1334 31 OFFCURVE",
"1400 31 QCURVE SMOOTH"
);
}
);
width = 1859;
},
{
layerId = "E447CA33-FCF6-431B-A31E-579E9AB2C071";
paths = (
{
closed = 1;
nodes = (
"551 892 OFFCURVE",
"427 950 OFFCURVE",
"346 1054 OFFCURVE",
"315 1199 OFFCURVE",
"330 1286 QCURVE SMOOTH",
"345 1373 OFFCURVE",
"428 1518 OFFCURVE",
"545 1622 OFFCURVE",
"690 1680 OFFCURVE",
"768 1680 QCURVE SMOOTH",
"845 1680 OFFCURVE",
"969 1622 OFFCURVE",
"1049 1518 OFFCURVE",
"1081 1373 OFFCURVE",
"1065 1286 QCURVE SMOOTH",
"1050 1199 OFFCURVE",
"968 1054 OFFCURVE",
"851 950 OFFCURVE",
"706 892 OFFCURVE",
"629 892 QCURVE SMOOTH"
);
},
{
closed = 1;
nodes = (
"707 945 OFFCURVE",
"830 995 OFFCURVE",
"929 1086 OFFCURVE",
"999 1211 OFFCURVE",
"1012 1286 QCURVE SMOOTH",
"1025 1361 OFFCURVE",
"1000 1487 OFFCURVE",
"932 1577 OFFCURVE",
"827 1627 OFFCURVE",
"759 1627 QCURVE SMOOTH",
"691 1627 OFFCURVE",
"567 1577 OFFCURVE",
"467 1486 OFFCURVE",
"399 1361 OFFCURVE",
"385 1286 QCURVE SMOOTH",
"372 1211 OFFCURVE",
"397 1086 OFFCURVE",
"464 995 OFFCURVE",
"571 945 OFFCURVE",
"639 945 QCURVE SMOOTH"
);
},
{
closed = 1;
nodes = (
"1319 -32 OFFCURVE",
"1195 26 OFFCURVE",
"1113 130 OFFCURVE",
"1082 275 OFFCURVE",
"1098 362 QCURVE SMOOTH",
"1113 449 OFFCURVE",
"1195 594 OFFCURVE",
"1313 698 OFFCURVE",
"1458 756 OFFCURVE",
"1535 756 QCURVE SMOOTH",
"1613 756 OFFCURVE",
"1738 698 OFFCURVE",
"1818 594 OFFCURVE",
"1849 449 OFFCURVE",
"1834 362 QCURVE SMOOTH",
"1819 275 OFFCURVE",
"1736 130 OFFCURVE",
"1620 26 OFFCURVE",
"1474 -32 OFFCURVE",
"1396 -32 QCURVE SMOOTH"
);
},
{
closed = 1;
nodes = (
"1475 21 OFFCURVE",
"1598 71 OFFCURVE",
"1697 162 OFFCURVE",
"1766 287 OFFCURVE",
"1779 362 QCURVE SMOOTH",
"1792 437 OFFCURVE",
"1768 562 OFFCURVE",
"1700 653 OFFCURVE",
"1595 703 OFFCURVE",
"1526 703 QCURVE SMOOTH",
"1458 703 OFFCURVE",
"1335 653 OFFCURVE",
"1235 562 OFFCURVE",
"1166 437 OFFCURVE",
"1152 362 QCURVE SMOOTH",
"1139 287 OFFCURVE",
"1165 162 OFFCURVE",
"1232 71 OFFCURVE",
"1338 21 OFFCURVE",
"1406 21 QCURVE SMOOTH"
);
},
{
closed = 1;
nodes = (
"459 0 LINE",
"1643 1650 LINE",
"1697 1650 LINE",
"513 0 LINE"
);
}
);
width = 1874;
}
);
unicode = 0025;
},
{
color = (255, 153, 153, 255);
glyphname = ampersand;
layers = (
{
layerId = "AE9DFD7C-61AF-45F8-BC87-08C480261DD9";
paths = (
{
closed = 1;
nodes = (
"440 -32 OFFCURVE",
"255 35 OFFCURVE",
"137 155 OFFCURVE",
"93 321 OFFCURVE",
"110 420 QCURVE SMOOTH",
"137 572 OFFCURVE",
"360 793 OFFCURVE",
"566 872 QCURVE",
"538 929 OFFCURVE",
"502 1025 OFFCURVE",
"484 1113 OFFCURVE",
"484 1197 OFFCURVE",
"491 1241 QCURVE SMOOTH",
"510 1349 OFFCURVE",
"620 1514 OFFCURVE",
"777 1625 OFFCURVE",
"970 1682 OFFCURVE",
"1074 1682 QCURVE SMOOTH",
"1161 1682 OFFCURVE",
"1297 1644 OFFCURVE",
"1398 1580 OFFCURVE",
"1464 1494 OFFCURVE",
"1500 1398 OFFCURVE",
"1507 1296 OFFCURVE",
"1499 1249 QCURVE SMOOTH",
"1478 1129 OFFCURVE",
"1287 912 OFFCURVE",
"1127 826 QCURVE",
"1249 664 LINE",
"1279 683 OFFCURVE",
"1350 731 OFFCURVE",
"1421 785 OFFCURVE",
"1489 841 OFFCURVE",
"1517 866 QCURVE",
"1721 598 LINE",
"1645 532 OFFCURVE",
"1505 418 OFFCURVE",
"1456 384 QCURVE",
"1735 0 LINE",
"1218 0 LINE",
"1106 150 LINE",
"984 65 OFFCURVE",
"715 -32 OFFCURVE",
"564 -32 QCURVE SMOOTH"
);
},
{
closed = 1;
nodes = (
"1047 1114 OFFCURVE",
"1132 1204 OFFCURVE",
"1141 1252 QCURVE",
"1145 1277 OFFCURVE",
"1135 1321 OFFCURVE",
"1109 1354 OFFCURVE",
"1068 1374 OFFCURVE",
"1041 1374 QCURVE SMOOTH",
"991 1374 OFFCURVE",
"922 1308 OFFCURVE",
"912 1254 QCURVE SMOOTH",
"903 1204 OFFCURVE",
"935 1107 OFFCURVE",
"966 1064 QCURVE"
);
},
{
closed = 1;
nodes = (
"743 388 OFFCURVE",
"842 420 OFFCURVE",
"889 448 QCURVE",
"731 638 LINE",
"706 632 OFFCURVE",
"658 603 OFFCURVE",
"620 563 OFFCURVE",
"594 515 OFFCURVE",
"590 490 QCURVE SMOOTH",
"581 441 OFFCURVE",
"639 388 OFFCURVE",
"697 388 QCURVE SMOOTH"
);
}
);
width = 1586;
},
{
layerId = "801DDF57-AF28-491E-9007-7F83CAB295FA";
paths = (
{
closed = 1;
nodes = (
"445 -32 OFFCURVE",
"266 33 OFFCURVE",
"152 152 OFFCURVE",
"108 318 OFFCURVE",
"126 418 QCURVE SMOOTH",
"154 575 OFFCURVE",
"377 801 OFFCURVE",
"582 884 QCURVE",
"550 942 OFFCURVE",
"509 1040 OFFCURVE",
"488 1129 OFFCURVE",
"486 1214 OFFCURVE",
"494 1258 QCURVE SMOOTH",
"512 1361 OFFCURVE",
"615 1519 OFFCURVE",
"762 1627 OFFCURVE",
"945 1682 OFFCURVE",
"1043 1682 QCURVE SMOOTH",
"1164 1682 OFFCURVE",
"1327 1605 OFFCURVE",
"1422 1484 OFFCURVE",
"1453 1335 OFFCURVE",
"1440 1263 QCURVE SMOOTH",
"1418 1139 OFFCURVE",
"1226 929 OFFCURVE",
"1063 844 QCURVE",
"1231 611 LINE",
"1259 630 OFFCURVE",
"1329 684 OFFCURVE",
"1400 743 OFFCURVE",
"1465 801 OFFCURVE",
"1490 824 QCURVE",
"1665 599 LINE",
"1630 566 OFFCURVE",
"1560 501 OFFCURVE",
"1493 442 OFFCURVE",
"1432 391 OFFCURVE",
"1407 371 QCURVE",
"1673 0 LINE",
"1231 0 LINE",
"1109 169 LINE",
"984 74 OFFCURVE",
"711 -32 OFFCURVE",
"562 -32 QCURVE SMOOTH"
);
},
{
closed = 1;
nodes = (
"1019 1102 OFFCURVE",
"1123 1204 OFFCURVE",
"1133 1266 QCURVE SMOOTH",
"1139 1298 OFFCURVE",
"1128 1354 OFFCURVE",
"1096 1394 OFFCURVE",
"1046 1417 OFFCURVE",
"1014 1417 QCURVE SMOOTH",
"983 1417 OFFCURVE",
"929 1395 OFFCURVE",
"887 1356 OFFCURVE",
"858 1302 OFFCURVE",
"852 1269 QCURVE SMOOTH",
"842 1214 OFFCURVE",
"879 1107 OFFCURVE",
"924 1048 QCURVE"
);
},
{
closed = 1;
nodes = (
"735 326 OFFCURVE",
"863 377 OFFCURVE",
"925 424 QCURVE",
"725 683 LINE",
"688 671 OFFCURVE",
"623 628 OFFCURVE",
"572 574 OFFCURVE",
"538 510 OFFCURVE",
"532 477 QCURVE SMOOTH",
"526 441 OFFCURVE",
"541 384 OFFCURVE",
"580 346 OFFCURVE",
"639 326 OFFCURVE",
"675 326 QCURVE SMOOTH"
);
}
);
width = 1549;
},
{
layerId = "7828A6CD-C6F9-4202-83DF-9F2979E44CC9";
paths = (
{
closed = 1;
nodes = (
"393 -32 OFFCURVE",
"221 32 OFFCURVE",
"111 149 OFFCURVE",
"67 314 OFFCURVE",
"85 416 QCURVE SMOOTH",
"113 576 OFFCURVE",
"340 811 OFFCURVE",
"542 896 QCURVE",
"505 956 OFFCURVE",
"458 1056 OFFCURVE",
"433 1146 OFFCURVE",
"431 1231 OFFCURVE",
"439 1276 QCURVE SMOOTH",
"456 1372 OFFCURVE",
"551 1523 OFFCURVE",
"689 1627 OFFCURVE",
"860 1682 OFFCURVE",
"952 1682 QCURVE SMOOTH",
"1062 1682 OFFCURVE",
"1213 1611 OFFCURVE",
"1302 1496 OFFCURVE",
"1332 1352 OFFCURVE",
"1319 1278 QCURVE SMOOTH",
"1296 1150 OFFCURVE",
"1103 947 OFFCURVE",
"937 862 QCURVE",
"1153 554 LINE",
"1181 574 OFFCURVE",
"1250 634 OFFCURVE",
"1320 698 OFFCURVE",
"1383 759 OFFCURVE",
"1403 780 QCURVE",
"1548 599 LINE",
"1517 566 OFFCURVE",
"1450 499 OFFCURVE",
"1384 436 OFFCURVE",
"1323 379 OFFCURVE",
"1297 357 QCURVE",
"1548 0 LINE",
"1188 0 LINE",
"1054 190 LINE",
"926 84 OFFCURVE",
"650 -32 OFFCURVE",
"503 -32 QCURVE SMOOTH"
);
},
{
closed = 1;
nodes = (
"876 1060 OFFCURVE",
"962 1116 OFFCURVE",
"1024 1176 OFFCURVE",
"1061 1241 OFFCURVE",
"1068 1280 QCURVE SMOOTH",
"1075 1320 OFFCURVE",
"1061 1387 OFFCURVE",
"1023 1435 OFFCURVE",
"964 1462 OFFCURVE",
"927 1462 QCURVE SMOOTH",
"890 1462 OFFCURVE",
"825 1436 OFFCURVE",
"773 1389 OFFCURVE",
"737 1323 OFFCURVE",
"730 1284 QCURVE SMOOTH",
"725 1254 OFFCURVE",
"729 1195 OFFCURVE",
"752 1134 OFFCURVE",
"791 1069 OFFCURVE",
"821 1031 QCURVE"
);
},
{
closed = 1;
nodes = (
"667 260 OFFCURVE",
"826 332 OFFCURVE",
"905 399 QCURVE",
"661 731 LINE",
"561 692 OFFCURVE",
"430 549 OFFCURVE",
"415 462 QCURVE SMOOTH",
"406 413 OFFCURVE",
"427 338 OFFCURVE",
"475 287 OFFCURVE",
"548 260 OFFCURVE",
"593 260 QCURVE SMOOTH"
);
}
);
width = 1512;
},
{
layerId = "E014D827-045C-4C5E-9112-DAAA2F08F96E";
paths = (
{
closed = 1;
nodes = (
"454 -32 OFFCURVE",
"289 30 OFFCURVE",
"181 146 OFFCURVE",
"139 312 OFFCURVE",
"157 415 QCURVE SMOOTH",
"186 578 OFFCURVE",
"412 819 OFFCURVE",
"614 907 QCURVE",
"573 967 OFFCURVE",
"520 1068 OFFCURVE",
"494 1160 OFFCURVE",
"489 1246 OFFCURVE",
"497 1291 QCURVE SMOOTH",
"513 1382 OFFCURVE",
"603 1526 OFFCURVE",
"733 1627 OFFCURVE",
"893 1681 OFFCURVE",
"980 1681 QCURVE SMOOTH",
"1080 1681 OFFCURVE",
"1221 1615 OFFCURVE",
"1306 1505 OFFCURVE",
"1334 1365 OFFCURVE",
"1321 1290 QCURVE SMOOTH",
"1310 1225 OFFCURVE",
"1249 1111 OFFCURVE",
"1152 1010 OFFCURVE",
"1019 919 OFFCURVE",
"935 877 QCURVE",
"1192 505 LINE",
"1218 526 OFFCURVE",
"1287 591 OFFCURVE",
"1356 660 OFFCURVE",
"1417 723 OFFCURVE",
"1435 742 QCURVE",
"1554 599 LINE",
"1526 567 OFFCURVE",
"1462 498 OFFCURVE",
"1398 431 OFFCURVE",
"1335 369 OFFCURVE",
"1309 345 QCURVE",
"1548 0 LINE",
"1257 0 LINE",
"1114 208 LINE",
"983 93 OFFCURVE",
"703 -32 OFFCURVE",
"558 -32 QCURVE SMOOTH"
);
},
{
closed = 1;
nodes = (
"900 1048 OFFCURVE",
"997 1108 OFFCURVE",
"1067 1173 OFFCURVE",
"1110 1247 OFFCURVE",
"1118 1292 QCURVE SMOOTH",
"1126 1339 OFFCURVE",
"1110 1415 OFFCURVE",
"1066 1470 OFFCURVE",
"1000 1500 OFFCURVE",
"958 1500 QCURVE SMOOTH",
"916 1500 OFFCURVE",
"841 1470 OFFCURVE",
"781 1416 OFFCURVE",
"740 1341 OFFCURVE",
"732 1296 QCURVE SMOOTH",
"726 1263 OFFCURVE",
"732 1201 OFFCURVE",
"757 1135 OFFCURVE",
"803 1061 OFFCURVE",
"839 1016 QCURVE"
);
},
{
closed = 1;
nodes = (
"716 204 OFFCURVE",
"902 293 OFFCURVE",
"994 377 QCURVE",
"711 772 LINE",
"590 721 OFFCURVE",
"439 553 OFFCURVE",
"421 450 QCURVE SMOOTH",
"411 391 OFFCURVE",
"434 299 OFFCURVE",
"491 236 OFFCURVE",
"577 204 OFFCURVE",
"629 204 QCURVE SMOOTH"
);
}
);
width = 1471;
},
{
layerId = "FF432E7F-1027-4D02-BFD8-A992D5952530";
paths = (
{
closed = 1;
nodes = (
"460 -32 OFFCURVE",
"300 29 OFFCURVE",
"194 144 OFFCURVE",
"152 309 OFFCURVE",
"170 414 QCURVE SMOOTH",
"199 579 OFFCURVE",
"428 826 OFFCURVE",
"628 916 QCURVE",
"585 977 OFFCURVE",
"528 1079 OFFCURVE",
"498 1171 OFFCURVE",
"493 1258 OFFCURVE",
"501 1304 QCURVE SMOOTH",
"516 1390 OFFCURVE",
"602 1530 OFFCURVE",
"726 1628 OFFCURVE",
"878 1681 OFFCURVE",
"960 1681 QCURVE SMOOTH",
"1052 1681 OFFCURVE",
"1185 1619 OFFCURVE",
"1267 1514 OFFCURVE",
"1295 1376 OFFCURVE",
"1282 1300 QCURVE SMOOTH",
"1270 1233 OFFCURVE",
"1209 1120 OFFCURVE",
"1111 1021 OFFCURVE",
"977 932 OFFCURVE",
"891 890 QCURVE",
"1182 466 LINE",
"1207 487 OFFCURVE",
"1275 557 OFFCURVE",
"1344 630 OFFCURVE",
"1404 695 OFFCURVE",
"1419 712 QCURVE",
"1517 599 LINE",
"1491 567 OFFCURVE",
"1430 496 OFFCURVE",
"1367 426 OFFCURVE",
"1304 361 OFFCURVE",
"1277 335 QCURVE",
"1506 0 LINE",
"1270 0 LINE",
"1119 221 LINE",
"985 99 OFFCURVE",
"704 -32 OFFCURVE",
"560 -32 QCURVE SMOOTH"
);
},
{
closed = 1;
nodes = (
"877 1037 OFFCURVE",
"982 1101 OFFCURVE",
"1059 1171 OFFCURVE",
"1107 1251 OFFCURVE",
"1116 1302 QCURVE SMOOTH",
"1125 1354 OFFCURVE",
"1107 1438 OFFCURVE",
"1060 1498 OFFCURVE",
"987 1531 OFFCURVE",
"941 1531 QCURVE SMOOTH",
"895 1531 OFFCURVE",
"812 1498 OFFCURVE",
"745 1438 OFFCURVE",
"699 1356 OFFCURVE",
"691 1307 QCURVE SMOOTH",
"685 1272 OFFCURVE",
"691 1207 OFFCURVE",
"718 1136 OFFCURVE",
"771 1055 OFFCURVE",
"811 1004 QCURVE"
);
},
{
closed = 1;
nodes = (
"713 159 OFFCURVE",
"919 262 OFFCURVE",
"1022 360 QCURVE",
"709 804 LINE",
"571 744 OFFCURVE",
"403 555 OFFCURVE",
"382 440 QCURVE SMOOTH",
"370 373 OFFCURVE",
"398 268 OFFCURVE",
"462 196 OFFCURVE",
"558 159 OFFCURVE",
"616 159 QCURVE SMOOTH"
);
}
);
width = 1444;
},
{
layerId = "74131A9F-F041-4E04-A4FA-FF748C1727DF";
paths = (
{
closed = 1;
nodes = (
"457 -32 OFFCURVE",
"303 27 OFFCURVE",
"200 141 OFFCURVE",
"159 307 OFFCURVE",
"177 413 QCURVE SMOOTH",
"207 581 OFFCURVE",
"436 835 OFFCURVE",
"635 927 QCURVE",
"587 989 OFFCURVE",
"526 1092 OFFCURVE",
"493 1185 OFFCURVE",
"487 1273 OFFCURVE",
"495 1319 QCURVE SMOOTH",
"509 1400 OFFCURVE",
"589 1533 OFFCURVE",
"704 1629 OFFCURVE",
"847 1681 OFFCURVE",
"925 1681 QCURVE SMOOTH",
"1007 1681 OFFCURVE",
"1129 1624 OFFCURVE",
"1207 1524 OFFCURVE",
"1234 1390 OFFCURVE",
"1221 1313 QCURVE SMOOTH",
"1209 1244 OFFCURVE",
"1147 1131 OFFCURVE",
"1048 1034 OFFCURVE",
"912 948 OFFCURVE",
"825 906 QCURVE",
"1158 418 LINE",
"1181 440 OFFCURVE",
"1250 514 OFFCURVE",
"1318 592 OFFCURVE",
"1375 659 OFFCURVE",
"1387 674 QCURVE",
"1460 600 LINE",
"1437 568 OFFCURVE",
"1379 495 OFFCURVE",
"1316 421 OFFCURVE",
"1254 352 OFFCURVE",
"1226 323 QCURVE",
"1443 0 LINE",
"1276 0 LINE",
"1115 239 LINE",
"978 107 OFFCURVE",
"692 -32 OFFCURVE",
"550 -32 QCURVE SMOOTH"
);
},
{
closed = 1;
nodes = (
"837 1025 OFFCURVE",
"954 1092 OFFCURVE",
"1039 1168 OFFCURVE",
"1092 1258 OFFCURVE",
"1102 1315 QCURVE SMOOTH",
"1112 1373 OFFCURVE",
"1092 1467 OFFCURVE",
"1039 1534 OFFCURVE",
"958 1570 OFFCURVE",
"908 1570 QCURVE SMOOTH",
"857 1570 OFFCURVE",
"764 1533 OFFCURVE",
"689 1467 OFFCURVE",
"637 1375 OFFCURVE",
"628 1321 QCURVE SMOOTH",
"621 1284 OFFCURVE",
"627 1214 OFFCURVE",
"659 1137 OFFCURVE",
"717 1047 OFFCURVE",
"764 989 QCURVE"
);
},
{
closed = 1;
nodes = (
"697 103 OFFCURVE",
"930 223 OFFCURVE",
"1047 338 QCURVE",
"694 845 LINE",
"535 772 OFFCURVE",
"346 559 OFFCURVE",
"323 428 QCURVE SMOOTH",
"309 350 OFFCURVE",
"340 228 OFFCURVE",
"413 146 OFFCURVE",
"523 103 OFFCURVE",
"587 103 QCURVE SMOOTH"
);
}
);
width = 1401;
},
{
layerId = "4B953CDD-5CE3-4322-8A9F-D31267D1A9B5";
paths = (
{
closed = 1;
nodes = (
"464 -32 OFFCURVE",
"314 26 OFFCURVE",
"213 139 OFFCURVE",
"172 305 OFFCURVE",
"191 412 QCURVE SMOOTH",
"221 582 OFFCURVE",
"451 840 OFFCURVE",
"648 934 QCURVE",
"598 997 OFFCURVE",
"534 1101 OFFCURVE",
"498 1194 OFFCURVE",
"491 1283 OFFCURVE",
"500 1330 QCURVE SMOOTH",
"514 1407 OFFCURVE",
"589 1536 OFFCURVE",
"698 1629 OFFCURVE",
"834 1681 OFFCURVE",
"908 1681 QCURVE SMOOTH",
"983 1681 OFFCURVE",
"1099 1627 OFFCURVE",
"1172 1531 OFFCURVE",
"1199 1400 OFFCURVE",
"1186 1322 QCURVE SMOOTH",
"1174 1252 OFFCURVE",
"1111 1139 OFFCURVE",
"1013 1043 OFFCURVE",
"875 959 OFFCURVE",
"788 917 QCURVE",
"1149 384 LINE",
"1164 399 OFFCURVE",
"1205 444 OFFCURVE",
"1250 497 OFFCURVE",
"1296 552 OFFCURVE",
"1336 601 OFFCURVE",
"1367 639 OFFCURVE",
"1373 648 QCURVE",
"1428 600 LINE",
"1406 568 OFFCURVE",
"1349 494 OFFCURVE",
"1288 417 OFFCURVE",
"1225 344 OFFCURVE",
"1197 314 QCURVE",
"1406 0 LINE",
"1286 0 LINE",
"1120 251 LINE",
"980 112 OFFCURVE",
"693 -32 OFFCURVE",
"553 -32 QCURVE SMOOTH"
);
},
{
closed = 1;
nodes = (
"818 1016 OFFCURVE",
"941 1086 OFFCURVE",
"1033 1166 OFFCURVE",
"1089 1262 OFFCURVE",
"1100 1324 QCURVE SMOOTH",
"1111 1387 OFFCURVE",
"1089 1488 OFFCURVE",
"1033 1559 OFFCURVE",
"947 1597 OFFCURVE",
"894 1597 QCURVE SMOOTH",
"840 1597 OFFCURVE",
"740 1557 OFFCURVE",
"659 1487 OFFCURVE",
"603 1389 OFFCURVE",
"593 1330 QCURVE SMOOTH",
"586 1291 OFFCURVE",
"593 1218 OFFCURVE",
"626 1138 OFFCURVE",
"691 1042 OFFCURVE",
"741 979 QCURVE"
);
},
{
closed = 1;
nodes = (
"695 64 OFFCURVE",
"945 195 OFFCURVE",
"1072 322 QCURVE",
"694 873 LINE",
"521 792 OFFCURVE",
"317 562 OFFCURVE",
"292 419 QCURVE SMOOTH",
"277 334 OFFCURVE",
"310 201 OFFCURVE",
"389 111 OFFCURVE",
"506 64 OFFCURVE",
"576 64 QCURVE SMOOTH"
);
}
);
width = 1379;
},
{
layerId = "E14BD65A-535D-455D-BD93-03DF5D4D66A0";
paths = (
{
closed = 1;
nodes = (
"465 -32 OFFCURVE",
"318 25 OFFCURVE",
"219 138 OFFCURVE",
"177 303 OFFCURVE",
"196 411 QCURVE SMOOTH",
"226 582 OFFCURVE",
"458 845 OFFCURVE",
"655 940 QCURVE",
"603 1003 OFFCURVE",
"535 1108 OFFCURVE",
"498 1202 OFFCURVE",
"491 1290 OFFCURVE",
"499 1338 QCURVE SMOOTH",
"512 1413 OFFCURVE",
"585 1538 OFFCURVE",
"690 1630 OFFCURVE",
"820 1681 OFFCURVE",
"891 1681 QCURVE SMOOTH",
"962 1681 OFFCURVE",
"1072 1629 OFFCURVE",
"1143 1536 OFFCURVE",
"1170 1406 OFFCURVE",
"1156 1328 QCURVE SMOOTH",
"1143 1257 OFFCURVE",
"1082 1145 OFFCURVE",
"981 1050 OFFCURVE",
"844 967 OFFCURVE",
"756 925 QCURVE",
"1138 359 LINE",
"1153 374 OFFCURVE",
"1193 421 OFFCURVE",
"1239 475 OFFCURVE",
"1284 532 OFFCURVE",
"1324 582 OFFCURVE",
"1353 620 OFFCURVE",
"1358 629 QCURVE",
"1399 600 LINE",
"1378 568 OFFCURVE",
"1325 493 OFFCURVE",
"1264 415 OFFCURVE",
"1201 340 OFFCURVE",
"1172 308 QCURVE",
"1376 0 LINE",
"1291 0 LINE",
"1119 260 LINE",
"978 117 OFFCURVE",
"690 -32 OFFCURVE",
"551 -32 QCURVE SMOOTH"
);
},
{
closed = 1;
nodes = (
"800 1009 OFFCURVE",
"929 1082 OFFCURVE",
"1024 1165 OFFCURVE",
"1083 1265 OFFCURVE",
"1095 1330 QCURVE SMOOTH",
"1107 1396 OFFCURVE",
"1083 1502 OFFCURVE",
"1025 1577 OFFCURVE",
"935 1617 OFFCURVE",
"879 1617 QCURVE SMOOTH",
"822 1617 OFFCURVE",
"717 1575 OFFCURVE",
"633 1501 OFFCURVE",
"574 1398 OFFCURVE",
"563 1337 QCURVE SMOOTH",
"556 1296 OFFCURVE",
"563 1222 OFFCURVE",
"599 1138 OFFCURVE",
"667 1038 OFFCURVE",
"720 971 QCURVE"
);
},
{
closed = 1;
nodes = (
"688 35 OFFCURVE",
"953 175 OFFCURVE",
"1086 311 QCURVE",
"689 894 LINE",
"504 806 OFFCURVE",
"290 564 OFFCURVE",
"264 413 QCURVE SMOOTH",
"248 322 OFFCURVE",
"282 181 OFFCURVE",
"367 85 OFFCURVE",
"490 35 OFFCURVE",
"563 35 QCURVE SMOOTH"
);
}
);
width = 1363;
},
{
layerId = "E447CA33-FCF6-431B-A31E-579E9AB2C071";
paths = (
{
closed = 1;
nodes = (
"471 -32 OFFCURVE",
"327 25 OFFCURVE",
"229 137 OFFCURVE",
"187 303 OFFCURVE",
"206 411 QCURVE SMOOTH",
"236 583 OFFCURVE",
"468 848 OFFCURVE",
"665 944 QCURVE",
"612 1008 OFFCURVE",
"542 1113 OFFCURVE",
"504 1207 OFFCURVE",
"496 1295 OFFCURVE",
"504 1343 QCURVE SMOOTH",
"517 1416 OFFCURVE",
"588 1539 OFFCURVE",
"691 1629 OFFCURVE",
"817 1680 OFFCURVE",
"886 1680 QCURVE SMOOTH",
"953 1680 OFFCURVE",
"1060 1630 OFFCURVE",
"1130 1539 OFFCURVE",
"1156 1411 OFFCURVE",
"1142 1332 QCURVE SMOOTH",
"1129 1261 OFFCURVE",
"1068 1149 OFFCURVE",
"968 1054 OFFCURVE",
"830 972 OFFCURVE",
"740 930 QCURVE",
"1137 342 LINE",
"1152 357 OFFCURVE",
"1192 405 OFFCURVE",
"1237 461 OFFCURVE",
"1284 519 OFFCURVE",
"1322 570 OFFCURVE",
"1350 608 OFFCURVE",
"1355 616 QCURVE",
"1387 600 LINE",
"1367 568 OFFCURVE",
"1314 492 OFFCURVE",
"1255 413 OFFCURVE",
"1192 336 OFFCURVE",
"1162 304 QCURVE",
"1361 0 LINE",
"1300 0 LINE",
"1126 266 LINE",
"984 120 OFFCURVE",
"694 -32 OFFCURVE",
"555 -32 QCURVE SMOOTH"
);
},
{
closed = 1;
nodes = (
"691 16 OFFCURVE",
"964 162 OFFCURVE",
"1102 304 QCURVE",
"692 908 LINE",
"500 817 OFFCURVE",
"278 565 OFFCURVE",
"251 409 QCURVE SMOOTH",
"234 314 OFFCURVE",
"270 168 OFFCURVE",
"357 68 OFFCURVE",
"487 16 OFFCURVE",
"562 16 QCURVE SMOOTH"
);
},
{
closed = 1;
nodes = (
"794 1005 OFFCURVE",
"927 1079 OFFCURVE",
"1024 1164 OFFCURVE",
"1086 1267 OFFCURVE",
"1098 1334 QCURVE SMOOTH",
"1110 1402 OFFCURVE",
"1087 1512 OFFCURVE",
"1026 1589 OFFCURVE",
"934 1630 OFFCURVE",
"876 1630 QCURVE SMOOTH",
"817 1630 OFFCURVE",
"708 1587 OFFCURVE",
"620 1510 OFFCURVE",
"560 1404 OFFCURVE",
"549 1341 QCURVE SMOOTH",
"542 1299 OFFCURVE",
"549 1224 OFFCURVE",
"586 1138 OFFCURVE",
"655 1035 OFFCURVE",
"711 966 QCURVE"
);
}
);
width = 1359;
}
);
unicode = 0026;
},
{
glyphname = quotesingle;
layers = (
{
layerId = "AE9DFD7C-61AF-45F8-BC87-08C480261DD9";
paths = (
{
closed = 1;
nodes = (
"323 900 LINE",
"399 1720 LINE",
"763 1720 LINE",
"550 900 LINE"
);
}
);
width = 555;
},
{
layerId = "801DDF57-AF28-491E-9007-7F83CAB295FA";
paths = (
{
closed = 1;
nodes = (
"333 990 LINE",
"402 1720 LINE",
"718 1720 LINE",
"530 990 LINE"
);
}
);
width = 512;
},
{
layerId = "7828A6CD-C6F9-4202-83DF-9F2979E44CC9";
paths = (
{
closed = 1;
nodes = (
"343 1085 LINE",
"405 1720 LINE",
"667 1720 LINE",
"507 1085 LINE"
);
}
);
width = 466;
},
{
layerId = "E014D827-045C-4C5E-9112-DAAA2F08F96E";
paths = (
{
closed = 1;
nodes = (
"350 1166 LINE",
"408 1720 LINE",
"626 1720 LINE",
"488 1166 LINE"
);
}
);
width = 426;
},
{
layerId = "FF432E7F-1027-4D02-BFD8-A992D5952530";
paths = (
{
closed = 1;
nodes = (
"358 1231 LINE",
"411 1720 LINE",
"593 1720 LINE",
"473 1231 LINE"
);
}
);
width = 397;
},
{
layerId = "74131A9F-F041-4E04-A4FA-FF748C1727DF";
paths = (
{
closed = 1;
nodes = (
"366 1312 LINE",
"413 1720 LINE",
"551 1720 LINE",
"454 1312 LINE"
);
}
);
width = 357;
},
{
layerId = "4B953CDD-5CE3-4322-8A9F-D31267D1A9B5";
paths = (
{
closed = 1;
nodes = (
"373 1368 LINE",
"416 1720 LINE",
"523 1720 LINE",
"442 1368 LINE"
);
}
);
width = 331;
},
{
layerId = "E14BD65A-535D-455D-BD93-03DF5D4D66A0";
paths = (
{
closed = 1;
nodes = (
"378 1410 LINE",
"419 1720 LINE",
"503 1720 LINE",
"434 1410 LINE"
);
}
);
width = 313;
},
{
layerId = "E447CA33-FCF6-431B-A31E-579E9AB2C071";
paths = (
{
closed = 1;
nodes = (
"383 1438 LINE",
"422 1720 LINE",
"490 1720 LINE",
"430 1438 LINE"
);
}
);
width = 305;
}
);
unicode = 0027;
},
{
color = (255, 153, 153, 255);
glyphname = parenleft;
layers = (
{
layerId = "AE9DFD7C-61AF-45F8-BC87-08C480261DD9";
paths = (
{
closed = 1;
nodes = (
"316 -520 LINE",
"290 -470 OFFCURVE",
"238 -335 OFFCURVE",
"197 -168 OFFCURVE",
"167 26 OFFCURVE",
"158 245 OFFCURVE",
"172 485 OFFCURVE",
"195 614 QCURVE SMOOTH",
"218 744 OFFCURVE",
"289 985 OFFCURVE",
"376 1204 OFFCURVE",
"474 1400 OFFCURVE",
"575 1566 OFFCURVE",
"673 1701 OFFCURVE",
"716 1750 QCURVE",
"923 1608 LINE",
"882 1553 OFFCURVE",
"777 1365 OFFCURVE",
"673 1112 OFFCURVE",
"578 797 OFFCURVE",
"546 615 QCURVE SMOOTH",
"514 433 OFFCURVE",
"498 119 OFFCURVE",
"513 -135 OFFCURVE",
"551 -323 OFFCURVE",
"573 -378 QCURVE"
);
}
);
width = 766;
},
{
layerId = "801DDF57-AF28-491E-9007-7F83CAB295FA";
paths = (
{
closed = 1;
nodes = (
"335 -520 LINE",
"308 -470 OFFCURVE",
"256 -334 OFFCURVE",
"213 -168 OFFCURVE",
"182 27 OFFCURVE",
"172 245 OFFCURVE",
"186 485 OFFCURVE",
"208 614 QCURVE SMOOTH",
"242 808 OFFCURVE",
"366 1156 OFFCURVE",
"513 1447 OFFCURVE",
"669 1675 OFFCURVE",
"735 1750 QCURVE",
"915 1632 LINE",
"868 1571 OFFCURVE",
"755 1375 OFFCURVE",
"642 1116 OFFCURVE",
"543 798 OFFCURVE",
"511 615 QCURVE SMOOTH",
"479 433 OFFCURVE",
"466 116 OFFCURVE",
"486 -144 OFFCURVE",
"531 -340 OFFCURVE",
"557 -402 QCURVE"
);
}
);
width = 731;
},
{
layerId = "7828A6CD-C6F9-4202-83DF-9F2979E44CC9";
paths = (
{
closed = 1;
nodes = (
"362 -520 LINE",
"321 -444 OFFCURVE",
"244 -216 OFFCURVE",
"198 75 OFFCURVE",
"196 421 OFFCURVE",
"230 614 QCURVE SMOOTH",
"264 808 OFFCURVE",
"389 1155 OFFCURVE",
"537 1446 OFFCURVE",
"695 1674 OFFCURVE",
"763 1750 QCURVE",
"914 1657 LINE",
"861 1590 OFFCURVE",
"736 1385 OFFCURVE",
"617 1120 OFFCURVE",
"514 798 OFFCURVE",
"481 614 QCURVE SMOOTH",
"449 433 OFFCURVE",
"439 113 OFFCURVE",
"465 -152 OFFCURVE",
"516 -358 OFFCURVE",
"546 -427 QCURVE"
);
}
);
width = 707;
},
{
layerId = "E014D827-045C-4C5E-9112-DAAA2F08F96E";
paths = (
{
closed = 1;
nodes = (
"369 -520 LINE",
"327 -443 OFFCURVE",
"248 -215 OFFCURVE",
"200 75 OFFCURVE",
"198 420 OFFCURVE",
"232 614 QCURVE SMOOTH",
"266 808 OFFCURVE",
"390 1154 OFFCURVE",
"540 1445 OFFCURVE",
"700 1674 OFFCURVE",
"769 1750 QCURVE",
"896 1679 LINE",
"838 1607 OFFCURVE",
"705 1394 OFFCURVE",
"580 1124 OFFCURVE",
"472 799 OFFCURVE",
"439 614 QCURVE SMOOTH",
"407 433 OFFCURVE",
"400 111 OFFCURVE",
"430 -160 OFFCURVE",
"488 -374 OFFCURVE",
"521 -449 QCURVE"
);
}
);
width = 663;
},
{
layerId = "FF432E7F-1027-4D02-BFD8-A992D5952530";
paths = (
{
closed = 1;
nodes = (
"386 -520 LINE",
"344 -443 OFFCURVE",
"263 -214 OFFCURVE",
"215 75 OFFCURVE",
"211 420 OFFCURVE",
"246 614 QCURVE SMOOTH",
"280 808 OFFCURVE",
"405 1154 OFFCURVE",
"556 1445 OFFCURVE",
"717 1673 OFFCURVE",
"786 1750 QCURVE",
"894 1696 LINE",
"832 1620 OFFCURVE",
"692 1401 OFFCURVE",
"562 1127 OFFCURVE",
"451 800 OFFCURVE",
"419 614 QCURVE SMOOTH",
"387 433 OFFCURVE",
"382 109 OFFCURVE",
"415 -166 OFFCURVE",
"477 -387 OFFCURVE",
"513 -466 QCURVE"
);
}
);
width = 673;
},
{
layerId = "74131A9F-F041-4E04-A4FA-FF748C1727DF";
paths = (
{
closed = 1;
nodes = (
"391 -520 LINE",
"348 -442 OFFCURVE",
"266 -214 OFFCURVE",
"217 75 OFFCURVE",
"212 420 OFFCURVE",
"247 614 QCURVE SMOOTH",
"281 808 OFFCURVE",
"407 1154 OFFCURVE",
"558 1444 OFFCURVE",
"721 1672 OFFCURVE",
"791 1750 QCURVE",
"870 1711 LINE",
"802 1627 OFFCURVE",
"655 1401 OFFCURVE",
"520 1123 OFFCURVE",
"408 797 OFFCURVE",
"376 614 QCURVE SMOOTH",
"344 431 OFFCURVE",
"341 105 OFFCURVE",
"380 -172 OFFCURVE",
"447 -398 OFFCURVE",
"483 -481 QCURVE"
);
}
);
width = 583;
},
{
layerId = "4B953CDD-5CE3-4322-8A9F-D31267D1A9B5";
paths = (
{
closed = 1;
nodes = (
"407 -520 LINE",
"363 -442 OFFCURVE",
"281 -214 OFFCURVE",
"230 75 OFFCURVE",
"226 420 OFFCURVE",
"260 614 QCURVE SMOOTH",
"294 808 OFFCURVE",
"420 1153 OFFCURVE",
"573 1443 OFFCURVE",
"736 1672 OFFCURVE",
"807 1750 QCURVE",
"866 1721 LINE",
"795 1633 OFFCURVE",
"643 1401 OFFCURVE",
"504 1120 OFFCURVE",
"391 796 OFFCURVE",
"359 614 QCURVE SMOOTH",
"327 430 OFFCURVE",
"326 102 OFFCURVE",
"367 -177 OFFCURVE",
"438 -406 OFFCURVE",
"476 -491 QCURVE"
);
}
);
width = 592;
},
{
layerId = "E14BD65A-535D-455D-BD93-03DF5D4D66A0";
paths = (
{
closed = 1;
nodes = (
"412 -520 LINE",
"367 -442 OFFCURVE",
"284 -213 OFFCURVE",
"233 76 OFFCURVE",
"228 420 OFFCURVE",
"262 614 QCURVE SMOOTH",
"296 808 OFFCURVE",
"423 1153 OFFCURVE",
"576 1443 OFFCURVE",
"740 1672 OFFCURVE",
"812 1750 QCURVE",
"855 1729 LINE",
"781 1637 OFFCURVE",
"625 1401 OFFCURVE",
"484 1119 OFFCURVE",
"370 794 OFFCURVE",
"338 614 QCURVE SMOOTH",
"305 429 OFFCURVE",
"307 100 OFFCURVE",
"350 -181 OFFCURVE",
"423 -412 OFFCURVE",
"462 -499 QCURVE"
);
}
);
width = 548;
},
{
layerId = "E447CA33-FCF6-431B-A31E-579E9AB2C071";
paths = (
{
closed = 1;
nodes = (
"424 -520 LINE",
"379 -442 OFFCURVE",
"295 -213 OFFCURVE",
"243 76 OFFCURVE",
"238 420 OFFCURVE",
"272 614 QCURVE SMOOTH",
"306 808 OFFCURVE",
"433 1153 OFFCURVE",
"586 1442 OFFCURVE",
"751 1671 OFFCURVE",
"824 1750 QCURVE",
"856 1734 LINE",
"781 1640 OFFCURVE",
"622 1401 OFFCURVE",
"480 1118 OFFCURVE",
"365 794 OFFCURVE",
"333 614 QCURVE SMOOTH",
"300 429 OFFCURVE",
"303 99 OFFCURVE",
"348 -183 OFFCURVE",
"422 -416 OFFCURVE",
"462 -504 QCURVE"
);
}
);
width = 558;
}
);
unicode = 0028;
},
{
color = (255, 153, 153, 255);
glyphname = parenright;
layers = (
{
layerId = "AE9DFD7C-61AF-45F8-BC87-08C480261DD9";
paths = (
{
closed = 1;
nodes = (
"768 1750 LINE",
"794 1700 OFFCURVE",
"846 1565 OFFCURVE",
"887 1398 OFFCURVE",
"917 1204 OFFCURVE",
"926 985 OFFCURVE",
"912 745 OFFCURVE",
"889 616 QCURVE SMOOTH",
"866 486 OFFCURVE",
"795 245 OFFCURVE",
"708 26 OFFCURVE",
"610 -170 OFFCURVE",
"509 -336 OFFCURVE",
"411 -471 OFFCURVE",
"368 -520 QCURVE",
"161 -378 LINE",
"202 -323 OFFCURVE",
"307 -135 OFFCURVE",
"411 118 OFFCURVE",
"506 433 OFFCURVE",
"538 615 QCURVE SMOOTH",
"570 797 OFFCURVE",
"586 1111 OFFCURVE",
"571 1365 OFFCURVE",
"533 1553 OFFCURVE",
"511 1608 QCURVE"
);
}
);
width = 766;
},
{
layerId = "801DDF57-AF28-491E-9007-7F83CAB295FA";
paths = (
{
closed = 1;
nodes = (
"755 1750 LINE",
"782 1700 OFFCURVE",
"834 1564 OFFCURVE",
"877 1398 OFFCURVE",
"908 1203 OFFCURVE",
"918 985 OFFCURVE",
"904 745 OFFCURVE",
"882 616 QCURVE SMOOTH",
"848 422 OFFCURVE",
"724 74 OFFCURVE",
"577 -217 OFFCURVE",
"421 -445 OFFCURVE",
"355 -520 QCURVE",
"175 -402 LINE",
"222 -341 OFFCURVE",
"335 -145 OFFCURVE",
"448 114 OFFCURVE",
"547 432 OFFCURVE",
"579 615 QCURVE SMOOTH",
"611 797 OFFCURVE",
"624 1114 OFFCURVE",
"604 1374 OFFCURVE",
"559 1570 OFFCURVE",
"533 1632 QCURVE"
);
}
);
width = 731;
},
{
layerId = "7828A6CD-C6F9-4202-83DF-9F2979E44CC9";
paths = (
{
closed = 1;
nodes = (
"749 1750 LINE",
"790 1674 OFFCURVE",
"867 1446 OFFCURVE",
"913 1155 OFFCURVE",
"915 809 OFFCURVE",
"881 616 QCURVE SMOOTH",
"847 422 OFFCURVE",
"722 75 OFFCURVE",
"574 -216 OFFCURVE",
"416 -444 OFFCURVE",
"348 -520 QCURVE",
"197 -427 LINE",
"250 -360 OFFCURVE",
"375 -155 OFFCURVE",
"494 110 OFFCURVE",
"597 432 OFFCURVE",
"630 616 QCURVE SMOOTH",
"662 797 OFFCURVE",
"672 1117 OFFCURVE",
"646 1382 OFFCURVE",
"595 1588 OFFCURVE",
"565 1657 QCURVE"
);
}
);
width = 707;
},
{
layerId = "E014D827-045C-4C5E-9112-DAAA2F08F96E";
paths = (
{
closed = 1;
nodes = (
"726 1750 LINE",
"768 1673 OFFCURVE",
"847 1445 OFFCURVE",
"895 1155 OFFCURVE",
"897 810 OFFCURVE",
"863 616 QCURVE SMOOTH",
"829 422 OFFCURVE",
"705 76 OFFCURVE",
"555 -215 OFFCURVE",
"395 -444 OFFCURVE",
"326 -520 QCURVE",
"199 -449 LINE",
"257 -377 OFFCURVE",
"390 -164 OFFCURVE",
"515 106 OFFCURVE",
"623 431 OFFCURVE",
"656 616 QCURVE SMOOTH",
"688 797 OFFCURVE",
"695 1119 OFFCURVE",
"665 1390 OFFCURVE",
"607 1604 OFFCURVE",
"574 1679 QCURVE"
);
}
);
width = 663;
},
{
layerId = "FF432E7F-1027-4D02-BFD8-A992D5952530";
paths = (
{
closed = 1;
nodes = (
"721 1750 LINE",
"763 1673 OFFCURVE",
"844 1444 OFFCURVE",
"892 1155 OFFCURVE",
"896 810 OFFCURVE",
"861 616 QCURVE SMOOTH",
"827 422 OFFCURVE",
"702 76 OFFCURVE",
"551 -215 OFFCURVE",
"390 -443 OFFCURVE",
"321 -520 QCURVE",
"213 -466 LINE",
"275 -390 OFFCURVE",
"415 -171 OFFCURVE",
"545 103 OFFCURVE",
"656 430 OFFCURVE",
"688 616 QCURVE SMOOTH",
"720 797 OFFCURVE",
"725 1121 OFFCURVE",
"692 1396 OFFCURVE",
"630 1617 OFFCURVE",
"594 1696 QCURVE"
);
}
);
width = 673;
},
{
layerId = "74131A9F-F041-4E04-A4FA-FF748C1727DF";
paths = (
{
closed = 1;
nodes = (
"693 1750 LINE",
"736 1672 OFFCURVE",
"818 1444 OFFCURVE",
"867 1155 OFFCURVE",
"872 810 OFFCURVE",
"837 616 QCURVE SMOOTH",
"803 422 OFFCURVE",
"677 76 OFFCURVE",
"526 -214 OFFCURVE",
"363 -442 OFFCURVE",
"293 -520 QCURVE",
"214 -481 LINE",
"282 -397 OFFCURVE",
"429 -171 OFFCURVE",
"564 107 OFFCURVE",
"676 433 OFFCURVE",
"708 616 QCURVE SMOOTH",
"740 799 OFFCURVE",
"743 1125 OFFCURVE",
"704 1402 OFFCURVE",
"637 1628 OFFCURVE",
"601 1711 QCURVE"
);
}
);
width = 583;
},
{
layerId = "4B953CDD-5CE3-4322-8A9F-D31267D1A9B5";
paths = (
{
closed = 1;
nodes = (
"687 1750 LINE",
"731 1672 OFFCURVE",
"813 1444 OFFCURVE",
"864 1155 OFFCURVE",
"868 810 OFFCURVE",
"834 616 QCURVE SMOOTH",
"800 422 OFFCURVE",
"674 77 OFFCURVE",
"521 -213 OFFCURVE",
"358 -442 OFFCURVE",
"287 -520 QCURVE",
"228 -491 LINE",
"299 -403 OFFCURVE",
"451 -171 OFFCURVE",
"590 110 OFFCURVE",
"703 434 OFFCURVE",
"735 616 QCURVE SMOOTH",
"767 800 OFFCURVE",
"768 1128 OFFCURVE",
"727 1407 OFFCURVE",
"656 1636 OFFCURVE",
"618 1721 QCURVE"
);
}
);
width = 592;
},
{
layerId = "E14BD65A-535D-455D-BD93-03DF5D4D66A0";
paths = (
{
closed = 1;
nodes = (
"673 1750 LINE",
"718 1672 OFFCURVE",
"801 1443 OFFCURVE",
"852 1154 OFFCURVE",
"857 810 OFFCURVE",
"823 616 QCURVE SMOOTH",
"789 422 OFFCURVE",
"662 77 OFFCURVE",
"509 -213 OFFCURVE",
"345 -442 OFFCURVE",
"273 -520 QCURVE",
"230 -499 LINE",
"304 -407 OFFCURVE",
"460 -171 OFFCURVE",
"601 111 OFFCURVE",
"715 436 OFFCURVE",
"747 616 QCURVE SMOOTH",
"780 801 OFFCURVE",
"778 1130 OFFCURVE",
"735 1411 OFFCURVE",
"662 1642 OFFCURVE",
"623 1729 QCURVE"
);
}
);
width = 548;
},
{
layerId = "E447CA33-FCF6-431B-A31E-579E9AB2C071";
paths = (
{
closed = 1;
nodes = (
"672 1750 LINE",
"717 1672 OFFCURVE",
"801 1443 OFFCURVE",
"853 1154 OFFCURVE",
"858 810 OFFCURVE",
"824 616 QCURVE SMOOTH",
"790 422 OFFCURVE",
"663 77 OFFCURVE",
"510 -212 OFFCURVE",
"345 -441 OFFCURVE",
"272 -520 QCURVE",
"240 -504 LINE",
"315 -410 OFFCURVE",
"474 -171 OFFCURVE",
"616 112 OFFCURVE",
"731 436 OFFCURVE",
"763 616 QCURVE SMOOTH",
"796 801 OFFCURVE",
"793 1131 OFFCURVE",
"748 1413 OFFCURVE",
"674 1646 OFFCURVE",
"634 1734 QCURVE"
);
}
);
width = 558;
}
);
unicode = 0029;
},
{
glyphname = asterisk;
layers = (
{
layerId = "AE9DFD7C-61AF-45F8-BC87-08C480261DD9";
paths = (
{
closed = 1;
nodes = (
"534 952 LINE",
"408 1058 LINE",
"575 1270 LINE",
"366 1358 LINE",
"455 1546 LINE",
"668 1470 LINE",
"712 1720 LINE",
"906 1720 LINE",
"862 1470 LINE",
"1102 1546 LINE",
"1125 1358 LINE",
"884 1270 LINE",
"977 1058 LINE",
"813 952 LINE",
"708 1146 LINE"
);
}
);
width = 1011;
},
{
layerId = "801DDF57-AF28-491E-9007-7F83CAB295FA";
paths = (
{
closed = 1;
nodes = (
"501 1026 LINE",
"394 1117 LINE",
"551 1315 LINE",
"354 1396 LINE",
"431 1557 LINE",
"631 1486 LINE",
"672 1720 LINE",
"837 1720 LINE",
"795 1486 LINE",
"1020 1557 LINE",
"1040 1396 LINE",
"814 1315 LINE",
"902 1117 LINE",
"763 1026 LINE",
"664 1209 LINE"
);
}
);
width = 901;
},
{
layerId = "7828A6CD-C6F9-4202-83DF-9F2979E44CC9";
paths = (
{
closed = 1;
nodes = (
"472 1104 LINE",
"383 1179 LINE",
"531 1362 LINE",
"348 1437 LINE",
"411 1568 LINE",
"596 1502 LINE",
"634 1720 LINE",
"769 1720 LINE",
"731 1502 LINE",
"938 1568 LINE",
"955 1437 LINE",
"746 1362 LINE",
"829 1179 LINE",
"714 1104 LINE",
"623 1275 LINE"
);
}
);
width = 796;
},
{
layerId = "E014D827-045C-4C5E-9112-DAAA2F08F96E";
paths = (
{
closed = 1;
nodes = (
"437 1171 LINE",
"365 1232 LINE",
"504 1403 LINE",
"333 1471 LINE",
"384 1577 LINE",
"557 1516 LINE",
"593 1720 LINE",
"702 1720 LINE",
"667 1516 LINE",
"860 1577 LINE",
"874 1471 LINE",
"679 1403 LINE",
"757 1232 LINE",
"664 1171 LINE",
"578 1332 LINE"
);
}
);
width = 688;
},
{
layerId = "FF432E7F-1027-4D02-BFD8-A992D5952530";
paths = (
{
closed = 1;
nodes = (
"442 1224 LINE",
"383 1274 LINE",
"514 1435 LINE",
"352 1498 LINE",
"395 1585 LINE",
"557 1527 LINE",
"592 1720 LINE",
"681 1720 LINE",
"647 1527 LINE",
"830 1585 LINE",
"841 1498 LINE",
"657 1435 LINE",
"731 1274 LINE",
"656 1224 LINE",
"575 1377 LINE"
);
}
);
width = 664;
},
{
layerId = "74131A9F-F041-4E04-A4FA-FF748C1727DF";
paths = (
{
closed = 1;
nodes = (
"406 1291 LINE",
"364 1327 LINE",
"486 1475 LINE",
"336 1532 LINE",
"366 1595 LINE",
"517 1541 LINE",
"548 1720 LINE",
"612 1720 LINE",
"580 1541 LINE",
"749 1595 LINE",
"757 1532 LINE",
"588 1475 LINE",
"658 1327 LINE",
"603 1291 LINE",
"529 1434 LINE"
);
}
);
width = 552;
},
{
layerId = "4B953CDD-5CE3-4322-8A9F-D31267D1A9B5";
paths = (
{
closed = 1;
nodes = (
"382 1337 LINE",
"351 1364 LINE",
"467 1503 LINE",
"325 1556 LINE",
"347 1602 LINE",
"489 1550 LINE",
"519 1720 LINE",
"564 1720 LINE",
"534 1550 LINE",
"694 1602 LINE",
"700 1556 LINE",
"540 1503 LINE",
"607 1364 LINE",
"567 1337 LINE",
"498 1473 LINE"
);
}
);
width = 476;
},
{
layerId = "E14BD65A-535D-455D-BD93-03DF5D4D66A0";
paths = (
{
closed = 1;
nodes = (
"359 1371 LINE",
"338 1392 LINE",
"448 1524 LINE",
"313 1574 LINE",
"329 1607 LINE",
"464 1557 LINE",
"493 1720 LINE",
"526 1720 LINE",
"497 1557 LINE",
"650 1607 LINE",
"654 1574 LINE",
"501 1524 LINE",
"566 1392 LINE",
"537 1371 LINE",
"471 1502 LINE"
);
}
);
width = 412;
},
{
layerId = "E447CA33-FCF6-431B-A31E-579E9AB2C071";
paths = (
{
closed = 1;
nodes = (
"338 1394 LINE",
"323 1410 LINE",
"431 1538 LINE",
"300 1586 LINE",
"311 1610 LINE",
"442 1562 LINE",
"470 1720 LINE",
"494 1720 LINE",
"467 1562 LINE",
"615 1610 LINE",
"618 1586 LINE",
"470 1538 LINE",
"533 1410 LINE",
"511 1394 LINE",
"446 1522 LINE"
);
}
);
width = 358;
}
);
unicode = 002A;
},
{
glyphname = plus;
layers = (
{
layerId = "AE9DFD7C-61AF-45F8-BC87-08C480261DD9";
paths = (
{
closed = 1;
nodes = (
"476 316 LINE",
"535 650 LINE",
"225 650 LINE",
"288 1010 LINE",
"599 1010 LINE",
"658 1344 LINE",
"993 1344 LINE",
"934 1010 LINE",
"1244 1010 LINE",
"1181 650 LINE",
"870 650 LINE",
"811 316 LINE"
);
}
);
width = 1176;
},
{
layerId = "801DDF57-AF28-491E-9007-7F83CAB295FA";
paths = (
{
closed = 1;
nodes = (
"499 316 LINE",
"562 676 LINE",
"227 676 LINE",
"282 984 LINE",
"617 984 LINE",
"680 1344 LINE",
"967 1344 LINE",
"903 984 LINE",
"1238 984 LINE",
"1184 676 LINE",
"849 676 LINE",
"785 316 LINE"
);
}
);
width = 1174;
},
{
layerId = "7828A6CD-C6F9-4202-83DF-9F2979E44CC9";
paths = (
{
closed = 1;
nodes = (
"524 316 LINE",
"592 703 LINE",
"232 703 LINE",
"277 955 LINE",
"637 955 LINE",
"705 1342 LINE",
"939 1342 LINE",
"871 955 LINE",
"1231 955 LINE",
"1186 703 LINE",
"827 703 LINE",
"758 316 LINE"
);
}
);
width = 1171;
},
{
layerId = "E014D827-045C-4C5E-9112-DAAA2F08F96E";
paths = (
{
closed = 1;
nodes = (
"543 316 LINE",
"616 726 LINE",
"234 726 LINE",
"271 931 LINE",
"652 931 LINE",
"724 1341 LINE",
"915 1341 LINE",
"843 931 LINE",
"1224 931 LINE",
"1188 726 LINE",
"806 726 LINE",
"734 316 LINE"
);
}
);
width = 1166;
},
{
layerId = "FF432E7F-1027-4D02-BFD8-A992D5952530";
paths = (
{
closed = 1;
nodes = (
"575 316 LINE",
"650 745 LINE",
"251 745 LINE",
"281 913 LINE",
"680 913 LINE",
"756 1342 LINE",
"912 1342 LINE",
"836 913 LINE",
"1235 913 LINE",
"1206 745 LINE",
"807 745 LINE",
"731 316 LINE"
);
}
);
width = 1195;
},
{
layerId = "74131A9F-F041-4E04-A4FA-FF748C1727DF";
paths = (
{
closed = 1;
nodes = (
"569 316 LINE",
"649 768 LINE",
"228 768 LINE",
"250 889 LINE",
"670 889 LINE",
"750 1341 LINE",
"862 1341 LINE",
"782 889 LINE",
"1203 889 LINE",
"1181 768 LINE",
"761 768 LINE",
"681 316 LINE"
);
}
);
width = 1137;
},
{
layerId = "4B953CDD-5CE3-4322-8A9F-D31267D1A9B5";
paths = (
{
closed = 1;
nodes = (
"597 316 LINE",
"680 784 LINE",
"245 784 LINE",
"260 872 LINE",
"695 872 LINE",
"778 1340 LINE",
"860 1340 LINE",
"777 872 LINE",
"1213 872 LINE",
"1197 784 LINE",
"762 784 LINE",
"679 316 LINE"
);
}
);
width = 1165;
},
{
layerId = "E14BD65A-535D-455D-BD93-03DF5D4D66A0";
paths = (
{
closed = 1;
nodes = (
"594 316 LINE",
"679 796 LINE",
"232 796 LINE",
"244 860 LINE",
"690 860 LINE",
"775 1340 LINE",
"834 1340 LINE",
"749 860 LINE",
"1196 860 LINE",
"1185 796 LINE",
"738 796 LINE",
"654 316 LINE"
);
}
);
width = 1136;
},
{
layerId = "E447CA33-FCF6-431B-A31E-579E9AB2C071";
paths = (
{
closed = 1;
nodes = (
"611 316 LINE",
"698 804 LINE",
"244 804 LINE",
"252 852 LINE",
"706 852 LINE",
"792 1340 LINE",
"837 1340 LINE",
"751 852 LINE",
"1204 852 LINE",
"1196 804 LINE",
"742 804 LINE",
"656 316 LINE"
);
}
);
width = 1156;
}
);
unicode = 002B;
},
{
color = (255, 153, 153, 255);
glyphname = comma;
layers = (
{
layerId = "AE9DFD7C-61AF-45F8-BC87-08C480261DD9";
paths = (
{
closed = 1;
nodes = (
"60 -316 LINE",
"86 -296 OFFCURVE",
"151 -221 OFFCURVE",
"213 -133 OFFCURVE",
"264 -43 OFFCURVE",
"276 -8 QCURVE",
"193 17 OFFCURVE",
"121 146 OFFCURVE",
"137 236 QCURVE SMOOTH",
"147 293 OFFCURVE",
"202 389 OFFCURVE",
"282 460 OFFCURVE",
"381 500 OFFCURVE",
"434 500 QCURVE SMOOTH",
"487 500 OFFCURVE",
"570 459 OFFCURVE",
"622 384 OFFCURVE",
"640 279 OFFCURVE",
"628 215 QCURVE SMOOTH",
"615 142 OFFCURVE",
"539 -15 OFFCURVE",
"418 -176 OFFCURVE",
"255 -338 OFFCURVE",
"155 -414 QCURVE"
);
}
);
width = 685;
},
{
layerId = "801DDF57-AF28-491E-9007-7F83CAB295FA";
paths = (
{
closed = 1;
nodes = (
"67 -293 LINE",
"90 -274 OFFCURVE",
"146 -207 OFFCURVE",
"200 -127 OFFCURVE",
"245 -45 OFFCURVE",
"256 -12 QCURVE",
"184 9 OFFCURVE",
"121 122 OFFCURVE",
"134 200 QCURVE SMOOTH",
"142 248 OFFCURVE",
"190 331 OFFCURVE",
"259 392 OFFCURVE",
"345 427 OFFCURVE",
"390 427 QCURVE SMOOTH",
"436 427 OFFCURVE",
"508 392 OFFCURVE",
"554 327 OFFCURVE",
"569 235 OFFCURVE",
"559 178 QCURVE SMOOTH",
"548 113 OFFCURVE",
"480 -27 OFFCURVE",
"374 -170 OFFCURVE",
"232 -310 OFFCURVE",
"146 -376 QCURVE"
);
}
);
width = 626;
},
{
layerId = "7828A6CD-C6F9-4202-83DF-9F2979E44CC9";
paths = (
{
closed = 1;
nodes = (
"72 -268 LINE",
"93 -250 OFFCURVE",
"141 -191 OFFCURVE",
"187 -120 OFFCURVE",
"224 -47 OFFCURVE",
"234 -16 QCURVE",
"174 1 OFFCURVE",
"119 95 OFFCURVE",
"130 161 QCURVE SMOOTH",
"137 201 OFFCURVE",
"176 270 OFFCURVE",
"234 321 OFFCURVE",
"305 350 OFFCURVE",
"343 350 QCURVE SMOOTH",
"381 350 OFFCURVE",
"441 321 OFFCURVE",
"480 266 OFFCURVE",
"493 188 OFFCURVE",
"484 139 QCURVE SMOOTH",
"474 83 OFFCURVE",
"416 -39 OFFCURVE",
"326 -162 OFFCURVE",
"208 -281 OFFCURVE",
"137 -335 QCURVE"
);
}
);
width = 561;
},
{
layerId = "E014D827-045C-4C5E-9112-DAAA2F08F96E";
paths = (
{
closed = 1;
nodes = (
"77 -247 LINE",
"96 -230 OFFCURVE",
"137 -177 OFFCURVE",
"176 -115 OFFCURVE",
"207 -49 OFFCURVE",
"216 -20 QCURVE",
"165 -7 OFFCURVE",
"118 73 OFFCURVE",
"127 128 QCURVE SMOOTH",
"133 161 OFFCURVE",
"165 218 OFFCURVE",
"213 260 OFFCURVE",
"272 284 OFFCURVE",
"304 284 QCURVE SMOOTH",
"336 284 OFFCURVE",
"386 260 OFFCURVE",
"418 214 OFFCURVE",
"429 148 OFFCURVE",
"422 106 QCURVE SMOOTH",
"413 57 OFFCURVE",
"363 -50 OFFCURVE",
"286 -156 OFFCURVE",
"187 -257 OFFCURVE",
"129 -301 QCURVE"
);
}
);
width = 507;
},
{
layerId = "FF432E7F-1027-4D02-BFD8-A992D5952530";
paths = (
{
closed = 1;
nodes = (
"82 -230 LINE",
"99 -214 OFFCURVE",
"135 -166 OFFCURVE",
"167 -110 OFFCURVE",
"193 -51 OFFCURVE",
"201 -23 QCURVE",
"158 -13 OFFCURVE",
"117 55 OFFCURVE",
"125 102 QCURVE SMOOTH",
"130 129 OFFCURVE",
"158 177 OFFCURVE",
"198 212 OFFCURVE",
"247 232 OFFCURVE",
"273 232 QCURVE SMOOTH",
"299 232 OFFCURVE",
"342 212 OFFCURVE",
"369 173 OFFCURVE",
"379 116 OFFCURVE",
"372 79 QCURVE SMOOTH",
"364 36 OFFCURVE",
"320 -58 OFFCURVE",
"255 -151 OFFCURVE",
"171 -238 OFFCURVE",
"123 -274 QCURVE"
);
}
);
width = 465;
},
{
layerId = "74131A9F-F041-4E04-A4FA-FF748C1727DF";
paths = (
{
closed = 1;
nodes = (
"87 -209 LINE",
"117 -178 OFFCURVE",
"170 -79 OFFCURVE",
"182 -27 QCURVE",
"150 -21 OFFCURVE",
"116 32 OFFCURVE",
"122 68 QCURVE SMOOTH",
"129 110 OFFCURVE",
"193 166 OFFCURVE",
"233 166 QCURVE SMOOTH",
"272 166 OFFCURVE",
"319 105 OFFCURVE",
"309 45 QCURVE SMOOTH",
"303 9 OFFCURVE",
"266 -69 OFFCURVE",
"214 -145 OFFCURVE",
"150 -214 OFFCURVE",
"115 -240 QCURVE"
);
}
);
width = 410;
},
{
layerId = "4B953CDD-5CE3-4322-8A9F-D31267D1A9B5";
paths = (
{
closed = 1;
nodes = (
"92 -194 LINE",
"119 -165 OFFCURVE",
"159 -79 OFFCURVE",
"170 -29 QCURVE",
"144 -26 OFFCURVE",
"116 16 OFFCURVE",
"121 45 QCURVE SMOOTH",
"127 77 OFFCURVE",
"176 121 OFFCURVE",
"207 121 QCURVE SMOOTH",
"238 121 OFFCURVE",
"275 71 OFFCURVE",
"266 22 QCURVE SMOOTH",
"261 -8 OFFCURVE",
"231 -76 OFFCURVE",
"187 -141 OFFCURVE",
"136 -197 OFFCURVE",
"110 -216 QCURVE"
);
}
);
width = 374;
},
{
layerId = "E14BD65A-535D-455D-BD93-03DF5D4D66A0";
paths = (
{
closed = 1;
nodes = (
"95 -183 LINE",
"144 -125 OFFCURVE",
"162 -31 QCURVE",
"141 -29 OFFCURVE",
"116 5 OFFCURVE",
"121 28 QCURVE",
"125 52 OFFCURVE",
"163 87 OFFCURVE",
"188 87 QCURVE SMOOTH",
"212 87 OFFCURVE",
"243 47 OFFCURVE",
"235 5 QCURVE SMOOTH",
"230 -22 OFFCURVE",
"205 -81 OFFCURVE",
"168 -137 OFFCURVE",
"126 -184 OFFCURVE",
"107 -198 QCURVE"
);
}
);
width = 349;
},
{
layerId = "E447CA33-FCF6-431B-A31E-579E9AB2C071";
paths = (
{
closed = 1;
nodes = (
"98 -176 LINE",
"121 -148 OFFCURVE",
"149 -79 OFFCURVE",
"157 -32 QCURVE",
"138 -32 OFFCURVE",
"118 -4 OFFCURVE",
"121 16 QCURVE",
"125 36 OFFCURVE",
"157 64 OFFCURVE",
"176 64 QCURVE SMOOTH",
"196 64 OFFCURVE",
"222 30 OFFCURVE",
"216 -7 QCURVE SMOOTH",
"212 -31 OFFCURVE",
"187 -85 OFFCURVE",
"156 -135 OFFCURVE",
"121 -176 OFFCURVE",
"106 -186 QCURVE"
);
}
);
width = 335;
}
);
unicode = 002C;
},
{
glyphname = hyphen;
layers = (
{
layerId = "AE9DFD7C-61AF-45F8-BC87-08C480261DD9";
paths = (
{
closed = 1;
nodes = (
"174 400 LINE",
"237 758 LINE",
"836 758 LINE",
"773 400 LINE"
);
}
);
width = 806;
},
{
layerId = "801DDF57-AF28-491E-9007-7F83CAB295FA";
paths = (
{
closed = 1;
nodes = (
"183 426 LINE",
"237 732 LINE",
"836 732 LINE",
"782 426 LINE"
);
}
);
width = 815;
},
{
layerId = "7828A6CD-C6F9-4202-83DF-9F2979E44CC9";
paths = (
{
closed = 1;
nodes = (
"193 453 LINE",
"237 704 LINE",
"836 704 LINE",
"792 453 LINE"
);
}
);
width = 824;
},
{
layerId = "E014D827-045C-4C5E-9112-DAAA2F08F96E";
paths = (
{
closed = 1;
nodes = (
"201 477 LINE",
"237 681 LINE",
"835 681 LINE",
"800 477 LINE"
);
}
);
width = 831;
},
{
layerId = "FF432E7F-1027-4D02-BFD8-A992D5952530";
paths = (
{
closed = 1;
nodes = (
"218 496 LINE",
"248 663 LINE",
"847 663 LINE",
"817 496 LINE"
);
}
);
width = 860;
},
{
layerId = "74131A9F-F041-4E04-A4FA-FF748C1727DF";
paths = (
{
closed = 1;
nodes = (
"202 520 LINE",
"223 640 LINE",
"822 640 LINE",
"801 520 LINE"
);
}
);
width = 819;
},
{
layerId = "4B953CDD-5CE3-4322-8A9F-D31267D1A9B5";
paths = (
{
closed = 1;
nodes = (
"218 536 LINE",
"234 624 LINE",
"833 624 LINE",
"817 536 LINE"
);
}
);
width = 846;
},
{
layerId = "E14BD65A-535D-455D-BD93-03DF5D4D66A0";
paths = (
{
closed = 1;
nodes = (
"215 548 LINE",
"226 612 LINE",
"825 612 LINE",
"814 548 LINE"
);
}
);
width = 835;
},
{
layerId = "E447CA33-FCF6-431B-A31E-579E9AB2C071";
paths = (
{
closed = 1;
nodes = (
"226 556 LINE",
"235 604 LINE",
"834 604 LINE",
"825 556 LINE"
);
}
);
width = 855;
}
);
unicode = 002D;
},
{
color = (255, 153, 153, 255);
glyphname = period;
layers = (
{
layerId = "AE9DFD7C-61AF-45F8-BC87-08C480261DD9";
paths = (
{
closed = 1;
nodes = (
"286 -32 OFFCURVE",
"203 10 OFFCURVE",
"149 82 OFFCURVE",
"127 179 OFFCURVE",
"137 234 QCURVE SMOOTH",
"147 289 OFFCURVE",
"203 386 OFFCURVE",
"282 458 OFFCURVE",
"380 500 OFFCURVE",
"431 500 QCURVE SMOOTH",
"482 500 OFFCURVE",
"565 458 OFFCURVE",
"619 386 OFFCURVE",
"641 289 OFFCURVE",
"632 234 QCURVE SMOOTH",
"622 179 OFFCURVE",
"566 82 OFFCURVE",
"486 10 OFFCURVE",
"388 -32 OFFCURVE",
"337 -32 QCURVE SMOOTH"
);
}
);
width = 685;
},
{
layerId = "801DDF57-AF28-491E-9007-7F83CAB295FA";
paths = (
{
closed = 1;
nodes = (
"262 -32 OFFCURVE",
"192 4 OFFCURVE",
"144 67 OFFCURVE",
"126 150 OFFCURVE",
"134 198 QCURVE SMOOTH",
"142 246 OFFCURVE",
"191 329 OFFCURVE",
"260 392 OFFCURVE",
"344 428 OFFCURVE",
"389 428 QCURVE SMOOTH",
"434 428 OFFCURVE",
"504 392 OFFCURVE",
"552 329 OFFCURVE",
"570 246 OFFCURVE",
"562 198 QCURVE SMOOTH",
"554 150 OFFCURVE",
"505 67 OFFCURVE",
"436 4 OFFCURVE",
"352 -32 OFFCURVE",
"307 -32 QCURVE SMOOTH"
);
}
);
width = 625;
},
{
layerId = "7828A6CD-C6F9-4202-83DF-9F2979E44CC9";
paths = (
{
closed = 1;
nodes = (
"237 -32 OFFCURVE",
"178 -2 OFFCURVE",
"139 50 OFFCURVE",
"123 119 OFFCURVE",
"130 159 QCURVE SMOOTH",
"137 199 OFFCURVE",
"177 268 OFFCURVE",
"235 320 OFFCURVE",
"304 350 OFFCURVE",
"341 350 QCURVE SMOOTH",
"378 350 OFFCURVE",
"437 320 OFFCURVE",
"477 268 OFFCURVE",
"492 199 OFFCURVE",
"485 159 QCURVE SMOOTH",
"478 119 OFFCURVE",
"438 50 OFFCURVE",
"381 -2 OFFCURVE",
"311 -32 OFFCURVE",
"274 -32 QCURVE SMOOTH"
);
}
);
width = 559;
},
{
layerId = "E014D827-045C-4C5E-9112-DAAA2F08F96E";
paths = (
{
closed = 1;
nodes = (
"215 -32 OFFCURVE",
"166 -7 OFFCURVE",
"134 35 OFFCURVE",
"121 93 OFFCURVE",
"127 126 QCURVE SMOOTH",
"133 159 OFFCURVE",
"166 217 OFFCURVE",
"213 259 OFFCURVE",
"271 284 OFFCURVE",
"302 284 QCURVE SMOOTH",
"333 284 OFFCURVE",
"382 259 OFFCURVE",
"414 217 OFFCURVE",
"427 159 OFFCURVE",
"421 126 QCURVE SMOOTH",
"415 93 OFFCURVE",
"381 35 OFFCURVE",
"335 -7 OFFCURVE",
"277 -32 OFFCURVE",
"246 -32 QCURVE SMOOTH"
);
}
);
width = 503;
},
{
layerId = "FF432E7F-1027-4D02-BFD8-A992D5952530";
paths = (
{
closed = 1;
nodes = (
"199 -32 OFFCURVE",
"158 -11 OFFCURVE",
"131 25 OFFCURVE",
"120 73 OFFCURVE",
"125 100 QCURVE SMOOTH",
"130 127 OFFCURVE",
"158 175 OFFCURVE",
"198 211 OFFCURVE",
"246 232 OFFCURVE",
"271 232 QCURVE SMOOTH",
"296 232 OFFCURVE",
"337 211 OFFCURVE",
"364 175 OFFCURVE",
"375 127 OFFCURVE",
"371 100 QCURVE",
"366 73 OFFCURVE",
"338 25 OFFCURVE",
"298 -11 OFFCURVE",
"249 -32 OFFCURVE",
"224 -32 QCURVE SMOOTH"
);
}
);
width = 460;
},
{
layerId = "74131A9F-F041-4E04-A4FA-FF748C1727DF";
paths = (
{
closed = 1;
nodes = (
"178 -32 OFFCURVE",
"147 -16 OFFCURVE",
"127 11 OFFCURVE",
"118 47 OFFCURVE",
"122 67 QCURVE SMOOTH",
"126 87 OFFCURVE",
"147 123 OFFCURVE",
"177 150 OFFCURVE",
"213 166 OFFCURVE",
"231 166 QCURVE SMOOTH",
"250 166 OFFCURVE",
"281 150 OFFCURVE",
"301 123 OFFCURVE",
"310 87 OFFCURVE",
"306 67 QCURVE SMOOTH",
"302 47 OFFCURVE",
"281 11 OFFCURVE",
"251 -16 OFFCURVE",
"216 -32 OFFCURVE",
"197 -32 QCURVE SMOOTH"
);
}
);
width = 404;
},
{
layerId = "4B953CDD-5CE3-4322-8A9F-D31267D1A9B5";
paths = (
{
closed = 1;
nodes = (
"149 -32 OFFCURVE",
"115 13 OFFCURVE",
"121 45 QCURVE SMOOTH",
"127 77 OFFCURVE",
"176 122 OFFCURVE",
"206 122 QCURVE SMOOTH",
"236 122 OFFCURVE",
"270 77 OFFCURVE",
"264 45 QCURVE SMOOTH",
"258 13 OFFCURVE",
"209 -32 OFFCURVE",
"179 -32 QCURVE SMOOTH"
);
}
);
width = 367;
},
{
layerId = "E14BD65A-535D-455D-BD93-03DF5D4D66A0";
paths = (
{
closed = 1;
nodes = (
"143 -32 OFFCURVE",
"116 3 OFFCURVE",
"121 28 QCURVE",
"125 53 OFFCURVE",
"164 88 OFFCURVE",
"187 88 QCURVE SMOOTH",
"210 88 OFFCURVE",
"237 53 OFFCURVE",
"232 28 QCURVE",
"228 3 OFFCURVE",
"189 -32 OFFCURVE",
"166 -32 QCURVE SMOOTH"
);
}
);
width = 341;
},
{
layerId = "E447CA33-FCF6-431B-A31E-579E9AB2C071";
paths = (
{
closed = 1;
nodes = (
"138 -32 OFFCURVE",
"118 -4 OFFCURVE",
"121 16 QCURVE",
"125 36 OFFCURVE",
"156 64 OFFCURVE",
"174 64 QCURVE SMOOTH",
"193 64 OFFCURVE",
"214 36 OFFCURVE",
"210 16 QCURVE SMOOTH",
"206 -4 OFFCURVE",
"176 -32 OFFCURVE",
"157 -32 QCURVE SMOOTH"
);
}
);
width = 325;
}
);
unicode = 002E;
},
{
glyphname = slash;
layers = (
{
layerId = "AE9DFD7C-61AF-45F8-BC87-08C480261DD9";
paths = (
{
closed = 1;
nodes = (
"8 -240 LINE",
"1120 1720 LINE",
"1453 1720 LINE",
"341 -240 LINE"
);
}
);
width = 1199;
},
{
layerId = "801DDF57-AF28-491E-9007-7F83CAB295FA";
paths = (
{
closed = 1;
nodes = (
"-2 -240 LINE",
"1110 1720 LINE",
"1393 1720 LINE",
"281 -240 LINE"
);
}
);
width = 1130;
},
{
layerId = "7828A6CD-C6F9-4202-83DF-9F2979E44CC9";
paths = (
{
closed = 1;
nodes = (
"-7 -240 LINE",
"1105 1720 LINE",
"1337 1720 LINE",
"225 -240 LINE"
);
}
);
width = 1068;
},
{
layerId = "E014D827-045C-4C5E-9112-DAAA2F08F96E";
paths = (
{
closed = 1;
nodes = (
"-19 -240 LINE",
"1093 1720 LINE",
"1280 1720 LINE",
"168 -240 LINE"
);
}
);
width = 1000;
},
{
layerId = "FF432E7F-1027-4D02-BFD8-A992D5952530";
paths = (
{
closed = 1;
nodes = (
"-5 -240 LINE",
"1107 1720 LINE",
"1259 1720 LINE",
"147 -240 LINE"
);
}
);
width = 993;
},
{
layerId = "74131A9F-F041-4E04-A4FA-FF748C1727DF";
paths = (
{
closed = 1;
nodes = (
"-48 -240 LINE",
"1064 1720 LINE",
"1171 1720 LINE",
"59 -240 LINE"
);
}
);
width = 861;
},
{
layerId = "4B953CDD-5CE3-4322-8A9F-D31267D1A9B5";
paths = (
{
closed = 1;
nodes = (
"-34 -240 LINE",
"1078 1720 LINE",
"1154 1720 LINE",
"42 -240 LINE"
);
}
);
width = 858;
},
{
layerId = "E14BD65A-535D-455D-BD93-03DF5D4D66A0";
paths = (
{
closed = 1;
nodes = (
"-52 -240 LINE",
"1060 1720 LINE",
"1113 1720 LINE",
"1 -240 LINE"
);
}
);
width = 799;
},
{
layerId = "E447CA33-FCF6-431B-A31E-579E9AB2C071";
paths = (
{
closed = 1;
nodes = (
"-42 -240 LINE",
"1070 1720 LINE",
"1107 1720 LINE",
"-5 -240 LINE"
);
}
);
width = 803;
}
);
unicode = 002F;
},
{
color = (255, 153, 153, 255);
glyphname = zero;
layers = (
{
layerId = "AE9DFD7C-61AF-45F8-BC87-08C480261DD9";
paths = (
{
closed = 1;
nodes = (
"515 -32 OFFCURVE",
"303 93 OFFCURVE",
"175 318 OFFCURVE",
"139 634 OFFCURVE",
"173 824 QCURVE SMOOTH",
"207 1015 OFFCURVE",
"354 1330 OFFCURVE",
"561 1555 OFFCURVE",
"816 1680 OFFCURVE",
"958 1680 QCURVE SMOOTH",
"1099 1680 OFFCURVE",
"1311 1555 OFFCURVE",
"1438 1330 OFFCURVE",
"1475 1015 OFFCURVE",
"1441 824 QCURVE SMOOTH",
"1407 634 OFFCURVE",
"1260 318 OFFCURVE",
"1053 93 OFFCURVE",
"797 -32 OFFCURVE",
"656 -32 QCURVE SMOOTH"
);
},
{
closed = 1;
nodes = (
"772 354 OFFCURVE",
"859 417 OFFCURVE",
"932 537 OFFCURVE",
"990 712 OFFCURVE",
"1010 824 QCURVE SMOOTH",
"1030 936 OFFCURVE",
"1033 1111 OFFCURVE",
"1002 1231 OFFCURVE",
"938 1294 OFFCURVE",
"890 1294 QCURVE SMOOTH",
"842 1294 OFFCURVE",
"755 1231 OFFCURVE",
"682 1111 OFFCURVE",
"624 936 OFFCURVE",
"604 824 QCURVE SMOOTH",
"584 712 OFFCURVE",
"580 537 OFFCURVE",
"611 417 OFFCURVE",
"676 354 OFFCURVE",
"724 354 QCURVE SMOOTH"
);
}
);
width = 1323;
},
{
layerId = "801DDF57-AF28-491E-9007-7F83CAB295FA";
paths = (
{
closed = 1;
nodes = (
"536 -32 OFFCURVE",
"325 93 OFFCURVE",
"198 318 OFFCURVE",
"162 634 OFFCURVE",
"195 824 QCURVE SMOOTH",
"217 951 OFFCURVE",
"299 1177 OFFCURVE",
"410 1367 OFFCURVE",
"548 1518 OFFCURVE",
"707 1624 OFFCURVE",
"885 1680 OFFCURVE",
"979 1680 QCURVE SMOOTH",
"1073 1680 OFFCURVE",
"1230 1624 OFFCURVE",
"1352 1518 OFFCURVE",
"1437 1367 OFFCURVE",
"1481 1177 OFFCURVE",
"1483 951 OFFCURVE",
"1460 824 QCURVE SMOOTH",
"1426 634 OFFCURVE",
"1279 318 OFFCURVE",
"1073 93 OFFCURVE",
"818 -32 OFFCURVE",
"677 -32 QCURVE SMOOTH"
);
},
{
closed = 1;
nodes = (
"796 299 OFFCURVE",
"907 371 OFFCURVE",
"999 506 OFFCURVE",
"1069 701 OFFCURVE",
"1091 824 QCURVE SMOOTH",
"1113 947 OFFCURVE",
"1111 1142 OFFCURVE",
"1067 1277 OFFCURVE",
"982 1349 OFFCURVE",
"920 1349 QCURVE SMOOTH",
"859 1349 OFFCURVE",
"749 1277 OFFCURVE",
"657 1142 OFFCURVE",
"586 947 OFFCURVE",
"565 824 QCURVE SMOOTH",
"543 701 OFFCURVE",
"545 506 OFFCURVE",
"589 371 OFFCURVE",
"674 299 OFFCURVE",
"735 299 QCURVE SMOOTH"
);
}
);
width = 1364;
},
{
layerId = "7828A6CD-C6F9-4202-83DF-9F2979E44CC9";
paths = (
{
closed = 1;
nodes = (
"559 -32 OFFCURVE",
"348 92 OFFCURVE",
"222 318 OFFCURVE",
"186 633 OFFCURVE",
"220 824 QCURVE SMOOTH",
"254 1015 OFFCURVE",
"400 1330 OFFCURVE",
"606 1556 OFFCURVE",
"860 1680 OFFCURVE",
"1001 1680 QCURVE SMOOTH",
"1142 1680 OFFCURVE",
"1352 1556 OFFCURVE",
"1479 1330 OFFCURVE",
"1515 1015 OFFCURVE",
"1481 824 QCURVE SMOOTH",
"1447 633 OFFCURVE",
"1301 318 OFFCURVE",
"1094 92 OFFCURVE",
"841 -32 OFFCURVE",
"700 -32 QCURVE SMOOTH"
);
},
{
closed = 1;
nodes = (
"822 240 OFFCURVE",
"958 321 OFFCURVE",
"1070 472 OFFCURVE",
"1154 689 OFFCURVE",
"1178 824 QCURVE SMOOTH",
"1202 959 OFFCURVE",
"1194 1176 OFFCURVE",
"1135 1327 OFFCURVE",
"1029 1408 OFFCURVE",
"953 1408 QCURVE SMOOTH",
"878 1408 OFFCURVE",
"742 1327 OFFCURVE",
"630 1176 OFFCURVE",
"546 959 OFFCURVE",
"522 824 QCURVE SMOOTH",
"498 689 OFFCURVE",
"506 472 OFFCURVE",
"565 321 OFFCURVE",
"672 240 OFFCURVE",
"747 240 QCURVE SMOOTH"
);
}
);
width = 1410;
},
{
layerId = "E014D827-045C-4C5E-9112-DAAA2F08F96E";
paths = (
{
closed = 1;
nodes = (
"580 -32 OFFCURVE",
"369 92 OFFCURVE",
"244 317 OFFCURVE",
"209 633 OFFCURVE",
"243 824 QCURVE SMOOTH",
"277 1015 OFFCURVE",
"423 1331 OFFCURVE",
"627 1556 OFFCURVE",
"882 1680 OFFCURVE",
"1022 1680 QCURVE SMOOTH",
"1163 1680 OFFCURVE",
"1373 1556 OFFCURVE",
"1498 1331 OFFCURVE",
"1534 1015 OFFCURVE",
"1500 824 QCURVE SMOOTH",
"1466 633 OFFCURVE",
"1319 317 OFFCURVE",
"1115 92 OFFCURVE",
"861 -32 OFFCURVE",
"720 -32 QCURVE SMOOTH"
);
},
{
closed = 1;
nodes = (
"847 190 OFFCURVE",
"1004 279 OFFCURVE",
"1134 444 OFFCURVE",
"1229 679 OFFCURVE",
"1255 824 QCURVE SMOOTH",
"1281 970 OFFCURVE",
"1268 1204 OFFCURVE",
"1196 1369 OFFCURVE",
"1071 1458 OFFCURVE",
"983 1458 QCURVE SMOOTH",
"896 1458 OFFCURVE",
"739 1369 OFFCURVE",
"609 1204 OFFCURVE",
"514 970 OFFCURVE",
"488 824 QCURVE SMOOTH",
"462 679 OFFCURVE",
"475 444 OFFCURVE",
"546 279 OFFCURVE",
"673 190 OFFCURVE",
"760 190 QCURVE SMOOTH"
);
}
);
width = 1452;
},
{
layerId = "FF432E7F-1027-4D02-BFD8-A992D5952530";
paths = (
{
closed = 1;
nodes = (
"597 -32 OFFCURVE",
"387 92 OFFCURVE",
"262 317 OFFCURVE",
"227 632 OFFCURVE",
"261 824 QCURVE SMOOTH",
"295 1016 OFFCURVE",
"440 1331 OFFCURVE",
"645 1556 OFFCURVE",
"898 1680 OFFCURVE",
"1180 1680 OFFCURVE",
"1389 1556 OFFCURVE",
"1515 1331 OFFCURVE",
"1549 1016 OFFCURVE",
"1515 824 QCURVE SMOOTH",
"1481 632 OFFCURVE",
"1336 317 OFFCURVE",
"1131 92 OFFCURVE",
"878 -32 OFFCURVE",
"737 -32 QCURVE SMOOTH"
);
},
{
closed = 1;
nodes = (
"866 150 OFFCURVE",
"1040 245 OFFCURVE",
"1183 421 OFFCURVE",
"1287 670 OFFCURVE",
"1315 824 QCURVE SMOOTH",
"1342 978 OFFCURVE",
"1325 1227 OFFCURVE",
"1245 1403 OFFCURVE",
"1103 1498 OFFCURVE",
"1007 1498 QCURVE SMOOTH",
"910 1498 OFFCURVE",
"735 1403 OFFCURVE",
"592 1227 OFFCURVE",
"488 978 OFFCURVE",
"461 824 QCURVE SMOOTH",
"434 670 OFFCURVE",
"450 421 OFFCURVE",
"531 245 OFFCURVE",
"672 150 OFFCURVE",
"769 150 QCURVE SMOOTH"
);
}
);
width = 1485;
},
{
layerId = "74131A9F-F041-4E04-A4FA-FF748C1727DF";
paths = (
{
closed = 1;
nodes = (
"608 -32 OFFCURVE",
"399 92 OFFCURVE",
"274 317 OFFCURVE",
"240 632 OFFCURVE",
"274 824 QCURVE SMOOTH",
"308 1016 OFFCURVE",
"453 1332 OFFCURVE",
"658 1557 OFFCURVE",
"909 1680 OFFCURVE",
"1049 1680 QCURVE SMOOTH",
"1190 1680 OFFCURVE",
"1400 1557 OFFCURVE",
"1525 1332 OFFCURVE",
"1559 1016 OFFCURVE",
"1525 824 QCURVE SMOOTH",
"1491 632 OFFCURVE",
"1346 317 OFFCURVE",
"1141 92 OFFCURVE",
"889 -32 OFFCURVE",
"748 -32 QCURVE SMOOTH"
);
},
{
closed = 1;
nodes = (
"880 100 OFFCURVE",
"1076 203 OFFCURVE",
"1236 392 OFFCURVE",
"1352 660 OFFCURVE",
"1381 824 QCURVE SMOOTH",
"1410 988 OFFCURVE",
"1389 1256 OFFCURVE",
"1295 1445 OFFCURVE",
"1135 1548 OFFCURVE",
"1026 1548 QCURVE SMOOTH",
"917 1548 OFFCURVE",
"722 1445 OFFCURVE",
"562 1256 OFFCURVE",
"446 988 OFFCURVE",
"417 824 QCURVE SMOOTH",
"388 660 OFFCURVE",
"409 392 OFFCURVE",
"503 203 OFFCURVE",
"662 100 OFFCURVE",
"771 100 QCURVE SMOOTH"
);
}
);
width = 1508;
},
{
layerId = "4B953CDD-5CE3-4322-8A9F-D31267D1A9B5";
paths = (
{
closed = 1;
nodes = (
"624 -32 OFFCURVE",
"416 91 OFFCURVE",
"292 316 OFFCURVE",
"257 632 OFFCURVE",
"291 824 QCURVE SMOOTH",
"325 1016 OFFCURVE",
"471 1332 OFFCURVE",
"674 1557 OFFCURVE",
"925 1680 OFFCURVE",
"1066 1680 QCURVE SMOOTH",
"1206 1680 OFFCURVE",
"1415 1557 OFFCURVE",
"1539 1332 OFFCURVE",
"1574 1016 OFFCURVE",
"1540 824 QCURVE SMOOTH",
"1506 632 OFFCURVE",
"1360 316 OFFCURVE",
"1157 91 OFFCURVE",
"904 -32 OFFCURVE",
"764 -32 QCURVE SMOOTH"
);
},
{
closed = 1;
nodes = (
"898 65 OFFCURVE",
"1109 174 OFFCURVE",
"1281 373 OFFCURVE",
"1405 653 OFFCURVE",
"1435 824 QCURVE SMOOTH",
"1465 995 OFFCURVE",
"1440 1275 OFFCURVE",
"1338 1474 OFFCURVE",
"1166 1583 OFFCURVE",
"1049 1583 QCURVE SMOOTH",
"932 1583 OFFCURVE",
"721 1474 OFFCURVE",
"549 1275 OFFCURVE",
"425 995 OFFCURVE",
"395 824 QCURVE SMOOTH",
"365 653 OFFCURVE",
"390 373 OFFCURVE",
"492 174 OFFCURVE",
"664 65 OFFCURVE",
"781 65 QCURVE SMOOTH"
);
}
);
width = 1540;
},
{
layerId = "E14BD65A-535D-455D-BD93-03DF5D4D66A0";
paths = (
{
closed = 1;
nodes = (
"633 -32 OFFCURVE",
"425 91 OFFCURVE",
"301 316 OFFCURVE",
"266 632 OFFCURVE",
"300 824 QCURVE SMOOTH",
"334 1016 OFFCURVE",
"480 1332 OFFCURVE",
"683 1557 OFFCURVE",
"935 1680 OFFCURVE",
"1075 1680 QCURVE SMOOTH",
"1215 1680 OFFCURVE",
"1423 1557 OFFCURVE",
"1547 1332 OFFCURVE",
"1581 1016 OFFCURVE",
"1547 824 QCURVE SMOOTH",
"1513 632 OFFCURVE",
"1368 316 OFFCURVE",
"1165 91 OFFCURVE",
"913 -32 OFFCURVE",
"773 -32 QCURVE SMOOTH"
);
},
{
closed = 1;
nodes = (
"909 39 OFFCURVE",
"1131 152 OFFCURVE",
"1311 358 OFFCURVE",
"1441 647 OFFCURVE",
"1472 824 QCURVE SMOOTH",
"1503 1001 OFFCURVE",
"1475 1290 OFFCURVE",
"1368 1496 OFFCURVE",
"1185 1609 OFFCURVE",
"1062 1609 QCURVE SMOOTH",
"938 1609 OFFCURVE",
"717 1496 OFFCURVE",
"537 1290 OFFCURVE",
"407 1001 OFFCURVE",
"375 824 QCURVE SMOOTH",
"344 647 OFFCURVE",
"372 358 OFFCURVE",
"480 152 OFFCURVE",
"662 39 OFFCURVE",
"786 39 QCURVE SMOOTH"
);
}
);
width = 1556;
},
{
layerId = "E447CA33-FCF6-431B-A31E-579E9AB2C071";
paths = (
{
closed = 1;
nodes = (
"644 -32 OFFCURVE",
"436 91 OFFCURVE",
"312 316 OFFCURVE",
"278 632 OFFCURVE",
"312 824 QCURVE SMOOTH",
"346 1016 OFFCURVE",
"491 1332 OFFCURVE",
"694 1557 OFFCURVE",
"945 1680 OFFCURVE",
"1086 1680 QCURVE SMOOTH",
"1226 1680 OFFCURVE",
"1434 1557 OFFCURVE",
"1558 1332 OFFCURVE",
"1592 1016 OFFCURVE",
"1558 824 QCURVE SMOOTH",
"1524 632 OFFCURVE",
"1379 316 OFFCURVE",
"1176 91 OFFCURVE",
"924 -32 OFFCURVE",
"784 -32 QCURVE SMOOTH"
);
},
{
closed = 1;
nodes = (
"921 22 OFFCURVE",
"1151 138 OFFCURVE",
"1336 348 OFFCURVE",
"1470 644 OFFCURVE",
"1502 824 QCURVE SMOOTH",
"1534 1004 OFFCURVE",
"1504 1300 OFFCURVE",
"1393 1510 OFFCURVE",
"1204 1626 OFFCURVE",
"1076 1626 QCURVE SMOOTH",
"949 1626 OFFCURVE",
"719 1510 OFFCURVE",
"533 1300 OFFCURVE",
"399 1004 OFFCURVE",
"368 824 QCURVE SMOOTH",
"336 644 OFFCURVE",
"366 348 OFFCURVE",
"477 138 OFFCURVE",
"667 22 OFFCURVE",
"794 22 QCURVE SMOOTH"
);
}
);
width = 1579;
}
);
unicode = 0030;
},
{
glyphname = one;
layers = (
{
layerId = "AE9DFD7C-61AF-45F8-BC87-08C480261DD9";
paths = (
{
closed = 1;
nodes = (
"326 0 LINE",
"541 1218 LINE",
"303 1218 LINE",
"379 1650 LINE",
"1026 1650 LINE",
"736 0 LINE"
);
}
);
width = 823;
},
{
layerId = "801DDF57-AF28-491E-9007-7F83CAB295FA";
paths = (
{
closed = 1;
nodes = (
"323 0 LINE",
"549 1281 LINE",
"334 1281 LINE",
"399 1650 LINE",
"964 1650 LINE",
"673 0 LINE"
);
}
);
width = 781;
},
{
layerId = "7828A6CD-C6F9-4202-83DF-9F2979E44CC9";
paths = (
{
closed = 1;
nodes = (
"321 0 LINE",
"558 1347 LINE",
"368 1347 LINE",
"421 1650 LINE",
"898 1650 LINE",
"607 0 LINE"
);
}
);
width = 737;
},
{
layerId = "E014D827-045C-4C5E-9112-DAAA2F08F96E";
paths = (
{
closed = 1;
nodes = (
"318 0 LINE",
"565 1404 LINE",
"396 1404 LINE",
"439 1650 LINE",
"841 1650 LINE",
"550 0 LINE"
);
}
);
width = 698;
},
{
layerId = "FF432E7F-1027-4D02-BFD8-A992D5952530";
paths = (
{
closed = 1;
nodes = (
"315 0 LINE",
"571 1449 LINE",
"418 1449 LINE",
"454 1650 LINE",
"796 1650 LINE",
"505 0 LINE"
);
}
);
width = 668;
},
{
layerId = "74131A9F-F041-4E04-A4FA-FF748C1727DF";
paths = (
{
closed = 1;
nodes = (
"308 0 LINE",
"573 1506 LINE",
"442 1506 LINE",
"467 1650 LINE",
"734 1650 LINE",
"443 0 LINE"
);
}
);
width = 619;
},
{
layerId = "4B953CDD-5CE3-4322-8A9F-D31267D1A9B5";
paths = (
{
closed = 1;
nodes = (
"306 0 LINE",
"579 1545 LINE",
"463 1545 LINE",
"481 1650 LINE",
"696 1650 LINE",
"405 0 LINE"
);
}
);
width = 595;
},
{
layerId = "E14BD65A-535D-455D-BD93-03DF5D4D66A0";
paths = (
{
closed = 1;
nodes = (
"305 0 LINE",
"583 1574 LINE",
"478 1574 LINE",
"491 1650 LINE",
"667 1650 LINE",
"376 0 LINE"
);
}
);
width = 576;
},
{
layerId = "E447CA33-FCF6-431B-A31E-579E9AB2C071";
paths = (
{
closed = 1;
nodes = (
"309 0 LINE",
"590 1594 LINE",
"491 1594 LINE",
"501 1650 LINE",
"652 1650 LINE",
"361 0 LINE"
);
}
);
width = 571;
}
);
unicode = 0031;
},
{
color = (255, 153, 153, 255);
glyphname = two;
layers = (
{
layerId = "AE9DFD7C-61AF-45F8-BC87-08C480261DD9";
paths = (
{
closed = 1;
nodes = (
"86 0 LINE",
"127 230 LINE",
"353 391 OFFCURVE",
"687 653 OFFCURVE",
"910 867 OFFCURVE",
"1028 1037 OFFCURVE",
"1040 1105 QCURVE SMOOTH",
"1047 1143 OFFCURVE",
"1034 1211 OFFCURVE",
"996 1263 OFFCURVE",
"938 1294 OFFCURVE",
"900 1294 QCURVE SMOOTH",
"832 1294 OFFCURVE",
"705 1192 OFFCURVE",
"648 1086 QCURVE",
"335 1219 LINE",
"578 1682 OFFCURVE",
"994 1682 QCURVE SMOOTH",
"1125 1682 OFFCURVE",
"1327 1598 OFFCURVE",
"1456 1448 OFFCURVE",
"1505 1242 OFFCURVE",
"1484 1120 QCURVE SMOOTH",
"1414 723 OFFCURVE",
"880 386 QCURVE",
"1382 386 LINE",
"1314 0 LINE"
);
}
);
width = 1400;
},
{
layerId = "801DDF57-AF28-491E-9007-7F83CAB295FA";
paths = (
{
closed = 1;
nodes = (
"100 0 LINE",
"134 195 LINE",
"379 370 OFFCURVE",
"729 645 OFFCURVE",
"958 866 OFFCURVE",
"1076 1039 OFFCURVE",
"1089 1112 QCURVE SMOOTH",
"1097 1160 OFFCURVE",
"1080 1246 OFFCURVE",
"1032 1310 OFFCURVE",
"959 1348 OFFCURVE",
"913 1348 QCURVE SMOOTH",
"827 1348 OFFCURVE",
"669 1217 OFFCURVE",
"615 1096 QCURVE",
"346 1209 LINE",
"400 1323 OFFCURVE",
"537 1499 OFFCURVE",
"701 1619 OFFCURVE",
"889 1682 OFFCURVE",
"993 1682 QCURVE SMOOTH",
"1119 1682 OFFCURVE",
"1315 1598 OFFCURVE",
"1440 1449 OFFCURVE",
"1489 1245 OFFCURVE",
"1467 1124 QCURVE SMOOTH",
"1449 1024 OFFCURVE",
"1354 833 OFFCURVE",
"1188 639 OFFCURVE",
"949 440 OFFCURVE",
"787 332 QCURVE",
"1356 332 LINE",
"1297 0 LINE"
);
}
);
width = 1397;
},
{
layerId = "7828A6CD-C6F9-4202-83DF-9F2979E44CC9";
paths = (
{
closed = 1;
nodes = (
"112 0 LINE",
"140 157 LINE",
"316 284 OFFCURVE",
"595 497 OFFCURVE",
"811 676 OFFCURVE",
"965 826 OFFCURVE",
"1070 955 OFFCURVE",
"1127 1067 OFFCURVE",
"1136 1119 QCURVE SMOOTH",
"1146 1178 OFFCURVE",
"1125 1282 OFFCURVE",
"1067 1360 OFFCURVE",
"978 1405 OFFCURVE",
"922 1405 QCURVE SMOOTH",
"871 1405 OFFCURVE",
"771 1365 OFFCURVE",
"683 1291 OFFCURVE",
"608 1185 OFFCURVE",
"583 1120 QCURVE",
"355 1198 LINE",
"402 1311 OFFCURVE",
"534 1490 OFFCURVE",
"696 1614 OFFCURVE",
"885 1681 OFFCURVE",
"989 1681 QCURVE SMOOTH",
"1109 1681 OFFCURVE",
"1298 1598 OFFCURVE",
"1419 1450 OFFCURVE",
"1468 1248 OFFCURVE",
"1446 1128 QCURVE SMOOTH",
"1428 1028 OFFCURVE",
"1331 836 OFFCURVE",
"1150 633 OFFCURVE",
"877 408 OFFCURVE",
"685 275 QCURVE",
"1324 275 LINE",
"1275 0 LINE"
);
}
);
width = 1387;
},
{
layerId = "E014D827-045C-4C5E-9112-DAAA2F08F96E";
paths = (
{
closed = 1;
nodes = (
"124 0 LINE",
"146 125 LINE",
"333 261 OFFCURVE",
"626 484 OFFCURVE",
"848 670 OFFCURVE",
"1007 824 OFFCURVE",
"1112 955 OFFCURVE",
"1169 1071 OFFCURVE",
"1179 1125 QCURVE SMOOTH",
"1191 1193 OFFCURVE",
"1165 1313 OFFCURVE",
"1099 1402 OFFCURVE",
"998 1454 OFFCURVE",
"933 1454 QCURVE SMOOTH",
"873 1454 OFFCURVE",
"759 1407 OFFCURVE",
"659 1323 OFFCURVE",
"579 1205 OFFCURVE",
"554 1133 QCURVE",
"365 1189 LINE",
"405 1300 OFFCURVE",
"532 1482 OFFCURVE",
"694 1611 OFFCURVE",
"884 1681 OFFCURVE",
"987 1681 QCURVE SMOOTH",
"1103 1681 OFFCURVE",
"1286 1598 OFFCURVE",
"1405 1451 OFFCURVE",
"1452 1250 OFFCURVE",
"1431 1131 QCURVE SMOOTH",
"1413 1031 OFFCURVE",
"1312 839 OFFCURVE",
"1119 627 OFFCURVE",
"818 381 OFFCURVE",
"601 226 QCURVE",
"1299 226 LINE",
"1259 0 LINE"
);
}
);
width = 1383;
},
{
layerId = "FF432E7F-1027-4D02-BFD8-A992D5952530";
paths = (
{
closed = 1;
nodes = (
"135 0 LINE",
"152 100 LINE",
"347 243 OFFCURVE",
"652 474 OFFCURVE",
"881 665 OFFCURVE",
"1042 822 OFFCURVE",
"1148 956 OFFCURVE",
"1205 1073 OFFCURVE",
"1215 1130 QCURVE SMOOTH",
"1228 1205 OFFCURVE",
"1199 1338 OFFCURVE",
"1125 1436 OFFCURVE",
"1014 1493 OFFCURVE",
"944 1493 QCURVE SMOOTH",
"879 1493 OFFCURVE",
"753 1442 OFFCURVE",
"645 1352 OFFCURVE",
"559 1226 OFFCURVE",
"535 1151 QCURVE",
"374 1182 LINE",
"409 1292 OFFCURVE",
"533 1476 OFFCURVE",
"693 1608 OFFCURVE",
"884 1681 OFFCURVE",
"987 1681 QCURVE SMOOTH",
"1100 1681 OFFCURVE",
"1279 1598 OFFCURVE",
"1395 1452 OFFCURVE",
"1441 1251 OFFCURVE",
"1420 1134 QCURVE SMOOTH",
"1408 1068 OFFCURVE",
"1356 939 OFFCURVE",
"1265 805 OFFCURVE",
"1130 660 OFFCURVE",
"942 494 OFFCURVE",
"694 301 OFFCURVE",
"535 187 QCURVE",
"1281 187 LINE",
"1248 0 LINE"
);
}
);
width = 1382;
},
{
layerId = "74131A9F-F041-4E04-A4FA-FF748C1727DF";
paths = (
{
closed = 1;
nodes = (
"143 0 LINE",
"155 68 LINE",
"361 219 OFFCURVE",
"678 462 OFFCURVE",
"916 660 OFFCURVE",
"1080 820 OFFCURVE",
"1187 956 OFFCURVE",
"1243 1077 OFFCURVE",
"1254 1136 QCURVE SMOOTH",
"1269 1221 OFFCURVE",
"1236 1369 OFFCURVE",
"1154 1479 OFFCURVE",
"1029 1542 OFFCURVE",
"951 1542 QCURVE SMOOTH",
"877 1542 OFFCURVE",
"734 1483 OFFCURVE",
"613 1379 OFFCURVE",
"522 1236 OFFCURVE",
"500 1153 QCURVE",
"379 1173 LINE",
"408 1282 OFFCURVE",
"528 1468 OFFCURVE",
"688 1603 OFFCURVE",
"879 1680 OFFCURVE",
"981 1680 QCURVE SMOOTH",
"1089 1680 OFFCURVE",
"1263 1598 OFFCURVE",
"1376 1452 OFFCURVE",
"1421 1253 OFFCURVE",
"1401 1137 QCURVE SMOOTH",
"1389 1071 OFFCURVE",
"1337 942 OFFCURVE",
"1241 806 OFFCURVE",
"1098 656 OFFCURVE",
"894 478 OFFCURVE",
"622 267 OFFCURVE",
"446 138 QCURVE",
"1253 138 LINE",
"1228 0 LINE"
);
}
);
width = 1371;
},
{
layerId = "4B953CDD-5CE3-4322-8A9F-D31267D1A9B5";
paths = (
{
closed = 1;
nodes = (
"150 0 LINE",
"158 46 LINE",
"372 203 OFFCURVE",
"699 454 OFFCURVE",
"941 656 OFFCURVE",
"1108 818 OFFCURVE",
"1215 956 OFFCURVE",
"1271 1079 OFFCURVE",
"1282 1140 QCURVE SMOOTH",
"1298 1231 OFFCURVE",
"1263 1390 OFFCURVE",
"1175 1508 OFFCURVE",
"1041 1576 OFFCURVE",
"958 1576 QCURVE SMOOTH",
"877 1576 OFFCURVE",
"722 1511 OFFCURVE",
"592 1397 OFFCURVE",
"498 1244 OFFCURVE",
"477 1155 QCURVE",
"385 1166 LINE",
"411 1274 OFFCURVE",
"526 1462 OFFCURVE",
"685 1601 OFFCURVE",
"878 1680 OFFCURVE",
"979 1680 QCURVE SMOOTH",
"1084 1680 OFFCURVE",
"1254 1598 OFFCURVE",
"1365 1452 OFFCURVE",
"1409 1255 OFFCURVE",
"1389 1139 QCURVE SMOOTH",
"1377 1073 OFFCURVE",
"1324 945 OFFCURVE",
"1226 807 OFFCURVE",
"1077 653 OFFCURVE",
"863 467 OFFCURVE",
"574 243 OFFCURVE",
"387 104 QCURVE",
"1234 104 LINE",
"1216 0 LINE"
);
}
);
width = 1366;
},
{
layerId = "E14BD65A-535D-455D-BD93-03DF5D4D66A0";
paths = (
{
closed = 1;
nodes = (
"153 0 LINE",
"158 29 LINE",
"377 191 OFFCURVE",
"711 447 OFFCURVE",
"957 654 OFFCURVE",
"1126 819 OFFCURVE",
"1234 961 OFFCURVE",
"1291 1088 OFFCURVE",
"1302 1153 QCURVE SMOOTH",
"1318 1245 OFFCURVE",
"1288 1408 OFFCURVE",
"1204 1530 OFFCURVE",
"1066 1601 OFFCURVE",
"974 1601 QCURVE SMOOTH",
"883 1601 OFFCURVE",
"713 1532 OFFCURVE",
"575 1411 OFFCURVE",
"476 1249 OFFCURVE",
"457 1156 QCURVE",
"385 1161 LINE",
"400 1233 OFFCURVE",
"461 1365 OFFCURVE",
"549 1481 OFFCURVE",
"658 1575 OFFCURVE",
"781 1643 OFFCURVE",
"918 1680 OFFCURVE",
"989 1680 QCURVE SMOOTH",
"1097 1680 OFFCURVE",
"1260 1598 OFFCURVE",
"1362 1455 OFFCURVE",
"1398 1262 OFFCURVE",
"1379 1151 QCURVE SMOOTH",
"1367 1082 OFFCURVE",
"1313 951 OFFCURVE",
"1213 810 OFFCURVE",
"1059 652 OFFCURVE",
"836 459 OFFCURVE",
"537 225 OFFCURVE",
"340 79 QCURVE",
"1218 79 LINE",
"1204 0 LINE"
);
}
);
width = 1356;
},
{
layerId = "E447CA33-FCF6-431B-A31E-579E9AB2C071";
paths = (
{
closed = 1;
nodes = (
"163 0 LINE",
"166 18 LINE",
"389 183 OFFCURVE",
"727 442 OFFCURVE",
"976 648 OFFCURVE",
"1145 812 OFFCURVE",
"1253 953 OFFCURVE",
"1309 1079 OFFCURVE",
"1321 1145 QCURVE SMOOTH",
"1338 1244 OFFCURVE",
"1306 1417 OFFCURVE",
"1215 1545 OFFCURVE",
"1071 1618 OFFCURVE",
"978 1618 QCURVE SMOOTH",
"885 1618 OFFCURVE",
"711 1545 OFFCURVE",
"568 1418 OFFCURVE",
"469 1248 OFFCURVE",
"452 1152 QCURVE",
"395 1158 LINE",
"416 1265 OFFCURVE",
"527 1455 OFFCURVE",
"687 1597 OFFCURVE",
"884 1680 OFFCURVE",
"989 1680 QCURVE SMOOTH",
"1093 1680 OFFCURVE",
"1257 1598 OFFCURVE",
"1360 1453 OFFCURVE",
"1398 1256 OFFCURVE",
"1378 1142 QCURVE SMOOTH",
"1366 1073 OFFCURVE",
"1311 944 OFFCURVE",
"1211 805 OFFCURVE",
"1054 647 OFFCURVE",
"827 453 OFFCURVE",
"519 213 OFFCURVE",
"316 62 QCURVE",
"1215 62 LINE",
"1204 0 LINE"
);
}
);
width = 1367;
}
);
unicode = 0032;
},
{
color = (255, 153, 153, 255);
glyphname = three;
layers = (
{
layerId = "AE9DFD7C-61AF-45F8-BC87-08C480261DD9";
paths = (
{
closed = 1;
nodes = (
"463 -32 OFFCURVE",
"291 26 OFFCURVE",
"164 133 OFFCURVE",
"90 287 OFFCURVE",
"84 383 QCURVE",
"455 494 LINE",
"467 426 OFFCURVE",
"555 344 OFFCURVE",
"634 344 QCURVE SMOOTH",
"720 344 OFFCURVE",
"839 444 OFFCURVE",
"854 531 QCURVE SMOOTH",
"862 577 OFFCURVE",
"847 654 OFFCURVE",
"805 709 OFFCURVE",
"742 740 OFFCURVE",
"702 740 QCURVE SMOOTH",
"682 740 OFFCURVE",
"643 733 OFFCURVE",
"626 726 QCURVE",
"676 1010 LINE",
"760 1010 LINE SMOOTH",
"790 1010 OFFCURVE",
"848 1038 OFFCURVE",
"896 1085 OFFCURVE",
"931 1146 OFFCURVE",
"936 1178 QCURVE",
"942 1210 OFFCURVE",
"927 1264 OFFCURVE",
"891 1305 OFFCURVE",
"835 1328 OFFCURVE",
"799 1328 QCURVE SMOOTH",
"766 1328 OFFCURVE",
"701 1307 OFFCURVE",
"643 1268 OFFCURVE",
"593 1212 OFFCURVE",
"575 1177 QCURVE",
"304 1313 LINE",
"347 1401 OFFCURVE",
"465 1537 OFFCURVE",
"609 1631 OFFCURVE",
"777 1680 OFFCURVE",
"869 1680 QCURVE SMOOTH",
"984 1680 OFFCURVE",
"1165 1607 OFFCURVE",
"1281 1475 OFFCURVE",
"1327 1294 OFFCURVE",
"1308 1186 QCURVE SMOOTH",
"1292 1098 OFFCURVE",
"1216 958 OFFCURVE",
"1151 898 QCURVE",
"1228 828 OFFCURVE",
"1282 647 OFFCURVE",
"1261 530 QCURVE SMOOTH",
"1240 409 OFFCURVE",
"1114 203 OFFCURVE",
"929 53 OFFCURVE",
"695 -32 OFFCURVE",
"567 -32 QCURVE SMOOTH"
);
}
);
width = 1205;
},
{
layerId = "801DDF57-AF28-491E-9007-7F83CAB295FA";
paths = (
{
closed = 1;
nodes = (
"461 -32 OFFCURVE",
"291 26 OFFCURVE",
"170 135 OFFCURVE",
"101 289 OFFCURVE",
"98 385 QCURVE",
"416 473 LINE",
"424 391 OFFCURVE",
"529 292 OFFCURVE",
"622 292 QCURVE SMOOTH",
"672 292 OFFCURVE",
"758 323 OFFCURVE",
"825 379 OFFCURVE",
"870 460 OFFCURVE",
"879 509 QCURVE SMOOTH",
"888 562 OFFCURVE",
"869 651 OFFCURVE",
"822 715 OFFCURVE",
"749 752 OFFCURVE",
"703 752 QCURVE SMOOTH",
"664 752 OFFCURVE",
"630 739 QCURVE",
"674 986 LINE",
"750 986 LINE SMOOTH",
"788 986 OFFCURVE",
"861 1020 OFFCURVE",
"921 1077 OFFCURVE",
"964 1150 OFFCURVE",
"971 1190 QCURVE SMOOTH",
"978 1230 OFFCURVE",
"960 1298 OFFCURVE",
"917 1348 OFFCURVE",
"851 1377 OFFCURVE",
"810 1377 QCURVE SMOOTH",
"771 1377 OFFCURVE",
"697 1351 OFFCURVE",
"630 1305 OFFCURVE",
"577 1239 OFFCURVE",
"558 1198 QCURVE",
"322 1306 LINE",
"361 1394 OFFCURVE",
"474 1533 OFFCURVE",
"616 1629 OFFCURVE",
"780 1680 OFFCURVE",
"870 1680 QCURVE SMOOTH",
"980 1680 OFFCURVE",
"1152 1608 OFFCURVE",
"1265 1479 OFFCURVE",
"1309 1302 OFFCURVE",
"1290 1197 QCURVE SMOOTH",
"1273 1100 OFFCURVE",
"1176 945 OFFCURVE",
"1100 888 QCURVE",
"1183 825 OFFCURVE",
"1250 635 OFFCURVE",
"1227 509 QCURVE SMOOTH",
"1206 392 OFFCURVE",
"1087 194 OFFCURVE",
"911 49 OFFCURVE",
"689 -32 OFFCURVE",
"564 -32 QCURVE SMOOTH"
);
}
);
width = 1195;
},
{
layerId = "7828A6CD-C6F9-4202-83DF-9F2979E44CC9";
paths = (
{
closed = 1;
nodes = (
"471 -32 OFFCURVE",
"305 27 OFFCURVE",
"188 137 OFFCURVE",
"124 291 OFFCURVE",
"126 387 QCURVE",
"387 450 LINE",
"389 402 OFFCURVE",
"422 323 OFFCURVE",
"482 267 OFFCURVE",
"568 236 OFFCURVE",
"622 236 QCURVE SMOOTH",
"680 236 OFFCURVE",
"779 272 OFFCURVE",
"856 337 OFFCURVE",
"908 429 OFFCURVE",
"918 485 QCURVE SMOOTH",
"929 545 OFFCURVE",
"907 647 OFFCURVE",
"852 722 OFFCURVE",
"769 765 OFFCURVE",
"717 765 QCURVE SMOOTH",
"698 765 OFFCURVE",
"662 758 OFFCURVE",
"648 753 QCURVE",
"684 960 LINE",
"752 960 LINE SMOOTH",
"798 960 OFFCURVE",
"887 1000 OFFCURVE",
"961 1067 OFFCURVE",
"1011 1155 OFFCURVE",
"1020 1203 QCURVE SMOOTH",
"1028 1251 OFFCURVE",
"1009 1334 OFFCURVE",
"958 1395 OFFCURVE",
"882 1430 OFFCURVE",
"835 1430 QCURVE SMOOTH",
"790 1430 OFFCURVE",
"705 1399 OFFCURVE",
"631 1344 OFFCURVE",
"572 1267 OFFCURVE",
"553 1221 QCURVE",
"353 1299 LINE",
"388 1387 OFFCURVE",
"497 1528 OFFCURVE",
"635 1627 OFFCURVE",
"797 1680 OFFCURVE",
"885 1680 QCURVE SMOOTH",
"989 1680 OFFCURVE",
"1153 1609 OFFCURVE",
"1259 1483 OFFCURVE",
"1301 1310 OFFCURVE",
"1283 1209 QCURVE SMOOTH",
"1264 1103 OFFCURVE",
"1147 931 OFFCURVE",
"1058 877 QCURVE",
"1148 821 OFFCURVE",
"1229 623 OFFCURVE",
"1205 486 QCURVE SMOOTH",
"1185 374 OFFCURVE",
"1073 184 OFFCURVE",
"906 46 OFFCURVE",
"693 -32 OFFCURVE",
"573 -32 QCURVE SMOOTH"
);
}
);
width = 1217;
},
{
layerId = "E014D827-045C-4C5E-9112-DAAA2F08F96E";
paths = (
{
closed = 1;
nodes = (
"459 -32 OFFCURVE",
"295 28 OFFCURVE",
"182 138 OFFCURVE",
"125 293 OFFCURVE",
"129 389 QCURVE",
"341 430 LINE",
"341 376 OFFCURVE",
"377 287 OFFCURVE",
"444 224 OFFCURVE",
"540 189 OFFCURVE",
"600 189 QCURVE SMOOTH",
"664 189 OFFCURVE",
"776 229 OFFCURVE",
"861 301 OFFCURVE",
"919 403 OFFCURVE",
"930 465 QCURVE SMOOTH",
"942 531 OFFCURVE",
"918 644 OFFCURVE",
"857 728 OFFCURVE",
"765 776 OFFCURVE",
"707 776 QCURVE SMOOTH",
"671 776 OFFCURVE",
"641 765 QCURVE",
"672 938 LINE",
"734 938 LINE SMOOTH",
"788 938 OFFCURVE",
"891 983 OFFCURVE",
"974 1059 OFFCURVE",
"1032 1160 OFFCURVE",
"1042 1215 QCURVE SMOOTH",
"1052 1270 OFFCURVE",
"1029 1365 OFFCURVE",
"972 1435 OFFCURVE",
"888 1475 OFFCURVE",
"835 1475 QCURVE SMOOTH",
"786 1475 OFFCURVE",
"692 1440 OFFCURVE",
"610 1377 OFFCURVE",
"546 1291 OFFCURVE",
"528 1240 QCURVE",
"360 1293 LINE",
"391 1381 OFFCURVE",
"496 1524 OFFCURVE",
"631 1625 OFFCURVE",
"791 1680 OFFCURVE",
"876 1680 QCURVE SMOOTH",
"976 1680 OFFCURVE",
"1132 1610 OFFCURVE",
"1234 1486 OFFCURVE",
"1275 1318 OFFCURVE",
"1257 1220 QCURVE SMOOTH",
"1247 1163 OFFCURVE",
"1202 1057 OFFCURVE",
"1135 967 OFFCURVE",
"1052 894 OFFCURVE",
"1003 868 QCURVE",
"1051 843 OFFCURVE",
"1122 766 OFFCURVE",
"1166 664 OFFCURVE",
"1178 538 OFFCURVE",
"1165 466 QCURVE SMOOTH",
"1146 359 OFFCURVE",
"1041 176 OFFCURVE",
"881 43 OFFCURVE",
"677 -32 OFFCURVE",
"561 -32 QCURVE SMOOTH"
);
}
);
width = 1183;
},
{
layerId = "FF432E7F-1027-4D02-BFD8-A992D5952530";
paths = (
{
closed = 1;
nodes = (
"462 -32 OFFCURVE",
"299 28 OFFCURVE",
"189 139 OFFCURVE",
"136 295 OFFCURVE",
"142 390 QCURVE",
"317 415 LINE",
"315 355 OFFCURVE",
"353 258 OFFCURVE",
"425 189 OFFCURVE",
"530 151 OFFCURVE",
"595 151 QCURVE SMOOTH",
"665 151 OFFCURVE",
"784 194 OFFCURVE",
"877 272 OFFCURVE",
"939 382 OFFCURVE",
"951 449 QCURVE SMOOTH",
"964 520 OFFCURVE",
"937 642 OFFCURVE",
"872 732 OFFCURVE",
"773 784 OFFCURVE",
"711 784 QCURVE SMOOTH",
"675 784 OFFCURVE",
"648 775 QCURVE",
"674 920 LINE",
"731 920 LINE SMOOTH",
"791 920 OFFCURVE",
"904 969 OFFCURVE",
"996 1053 OFFCURVE",
"1060 1163 OFFCURVE",
"1071 1224 QCURVE SMOOTH",
"1082 1285 OFFCURVE",
"1057 1389 OFFCURVE",
"996 1466 OFFCURVE",
"904 1510 OFFCURVE",
"848 1510 QCURVE SMOOTH",
"796 1510 OFFCURVE",
"695 1473 OFFCURVE",
"608 1407 OFFCURVE",
"541 1316 OFFCURVE",
"521 1262 QCURVE",
"376 1289 LINE",
"405 1377 OFFCURVE",
"507 1521 OFFCURVE",
"640 1624 OFFCURVE",
"797 1680 OFFCURVE",
"881 1680 QCURVE SMOOTH",
"977 1680 OFFCURVE",
"1128 1610 OFFCURVE",
"1226 1489 OFFCURVE",
"1265 1324 OFFCURVE",
"1248 1228 QCURVE SMOOTH",
"1237 1167 OFFCURVE",
"1187 1055 OFFCURVE",
"1114 960 OFFCURVE",
"1022 884 OFFCURVE",
"969 860 QCURVE",
"1019 838 OFFCURVE",
"1096 761 OFFCURVE",
"1144 656 OFFCURVE",
"1158 526 OFFCURVE",
"1145 451 QCURVE SMOOTH",
"1127 347 OFFCURVE",
"1025 170 OFFCURVE",
"873 41 OFFCURVE",
"676 -32 OFFCURVE",
"563 -32 QCURVE SMOOTH"
);
}
);
width = 1179;
},
{
layerId = "74131A9F-F041-4E04-A4FA-FF748C1727DF";
paths = (
{
closed = 1;
nodes = (
"453 -32 OFFCURVE",
"294 29 OFFCURVE",
"188 140 OFFCURVE",
"140 297 OFFCURVE",
"149 392 QCURVE",
"277 410 LINE",
"270 341 OFFCURVE",
"308 228 OFFCURVE",
"387 147 OFFCURVE",
"504 103 OFFCURVE",
"577 103 QCURVE SMOOTH",
"653 103 OFFCURVE",
"784 150 OFFCURVE",
"886 236 OFFCURVE",
"955 356 OFFCURVE",
"968 429 QCURVE SMOOTH",
"982 506 OFFCURVE",
"953 639 OFFCURVE",
"882 738 OFFCURVE",
"773 795 OFFCURVE",
"706 795 QCURVE SMOOTH",
"673 795 OFFCURVE",
"646 787 QCURVE",
"665 898 LINE",
"716 898 LINE SMOOTH",
"784 898 OFFCURVE",
"910 952 OFFCURVE",
"1013 1044 OFFCURVE",
"1084 1167 OFFCURVE",
"1096 1235 QCURVE SMOOTH",
"1108 1303 OFFCURVE",
"1081 1420 OFFCURVE",
"1014 1506 OFFCURVE",
"913 1555 OFFCURVE",
"852 1555 QCURVE SMOOTH",
"793 1555 OFFCURVE",
"681 1511 OFFCURVE",
"586 1434 OFFCURVE",
"514 1329 OFFCURVE",
"496 1268 QCURVE",
"386 1283 LINE",
"411 1371 OFFCURVE",
"509 1517 OFFCURVE",
"640 1622 OFFCURVE",
"794 1680 OFFCURVE",
"876 1680 QCURVE SMOOTH",
"967 1680 OFFCURVE",
"1111 1611 OFFCURVE",
"1204 1492 OFFCURVE",
"1242 1331 OFFCURVE",
"1226 1238 QCURVE SMOOTH",
"1215 1173 OFFCURVE",
"1159 1053 OFFCURVE",
"1078 952 OFFCURVE",
"974 873 OFFCURVE",
"916 850 QCURVE",
"968 831 OFFCURVE",
"1053 756 OFFCURVE",
"1106 648 OFFCURVE",
"1123 512 OFFCURVE",
"1109 432 QCURVE SMOOTH",
"1091 332 OFFCURVE",
"996 162 OFFCURVE",
"851 38 OFFCURVE",
"664 -32 OFFCURVE",
"554 -32 QCURVE SMOOTH"
);
}
);
width = 1159;
},
{
layerId = "4B953CDD-5CE3-4322-8A9F-D31267D1A9B5";
paths = (
{
closed = 1;
nodes = (
"454 -32 OFFCURVE",
"295 29 OFFCURVE",
"192 141 OFFCURVE",
"147 298 OFFCURVE",
"159 393 QCURVE",
"255 406 LINE",
"245 331 OFFCURVE",
"282 207 OFFCURVE",
"366 118 OFFCURVE",
"492 70 OFFCURVE",
"571 70 QCURVE SMOOTH",
"652 70 OFFCURVE",
"791 120 OFFCURVE",
"899 211 OFFCURVE",
"971 338 OFFCURVE",
"984 415 QCURVE SMOOTH",
"998 496 OFFCURVE",
"969 637 OFFCURVE",
"893 742 OFFCURVE",
"778 802 OFFCURVE",
"708 802 QCURVE SMOOTH",
"675 802 OFFCURVE",
"650 796 QCURVE",
"665 883 LINE",
"712 883 LINE SMOOTH",
"785 883 OFFCURVE",
"921 941 OFFCURVE",
"1030 1039 OFFCURVE",
"1106 1170 OFFCURVE",
"1119 1243 QCURVE SMOOTH",
"1132 1316 OFFCURVE",
"1103 1441 OFFCURVE",
"1032 1533 OFFCURVE",
"926 1586 OFFCURVE",
"861 1586 QCURVE SMOOTH",
"798 1586 OFFCURVE",
"676 1537 OFFCURVE",
"575 1451 OFFCURVE",
"500 1335 OFFCURVE",
"483 1269 QCURVE",
"399 1279 LINE",
"421 1367 OFFCURVE",
"516 1514 OFFCURVE",
"645 1621 OFFCURVE",
"798 1680 OFFCURVE",
"878 1680 QCURVE SMOOTH",
"965 1680 OFFCURVE",
"1105 1612 OFFCURVE",
"1196 1494 OFFCURVE",
"1232 1336 OFFCURVE",
"1216 1245 QCURVE SMOOTH",
"1204 1177 OFFCURVE",
"1144 1051 OFFCURVE",
"1058 946 OFFCURVE",
"948 866 OFFCURVE",
"886 844 QCURVE",
"941 827 OFFCURVE",
"1029 752 OFFCURVE",
"1085 642 OFFCURVE",
"1104 502 OFFCURVE",
"1089 419 QCURVE SMOOTH",
"1072 322 OFFCURVE",
"982 157 OFFCURVE",
"843 36 OFFCURVE",
"662 -32 OFFCURVE",
"554 -32 QCURVE SMOOTH"
);
}
);
width = 1157;
},
{
layerId = "E14BD65A-535D-455D-BD93-03DF5D4D66A0";
paths = (
{
closed = 1;
nodes = (
"449 -32 OFFCURVE",
"292 30 OFFCURVE",
"191 142 OFFCURVE",
"149 299 OFFCURVE",
"163 394 QCURVE",
"235 403 LINE",
"223 323 OFFCURVE",
"259 191 OFFCURVE",
"346 97 OFFCURVE",
"478 46 OFFCURVE",
"562 46 QCURVE SMOOTH",
"646 46 OFFCURVE",
"791 98 OFFCURVE",
"903 193 OFFCURVE",
"979 325 OFFCURVE",
"993 404 QCURVE SMOOTH",
"1008 488 OFFCURVE",
"977 635 OFFCURVE",
"898 745 OFFCURVE",
"778 808 OFFCURVE",
"705 808 QCURVE SMOOTH",
"672 808 OFFCURVE",
"649 802 QCURVE",
"661 872 LINE",
"704 872 LINE SMOOTH",
"781 872 OFFCURVE",
"924 932 OFFCURVE",
"1040 1035 OFFCURVE",
"1119 1172 OFFCURVE",
"1132 1249 QCURVE SMOOTH",
"1146 1326 OFFCURVE",
"1116 1457 OFFCURVE",
"1042 1554 OFFCURVE",
"931 1609 OFFCURVE",
"863 1609 QCURVE SMOOTH",
"796 1609 OFFCURVE",
"668 1556 OFFCURVE",
"562 1464 OFFCURVE",
"485 1340 OFFCURVE",
"469 1269 QCURVE",
"405 1276 LINE",
"425 1364 OFFCURVE",
"518 1512 OFFCURVE",
"644 1620 OFFCURVE",
"797 1680 OFFCURVE",
"876 1680 QCURVE SMOOTH",
"961 1680 OFFCURVE",
"1096 1613 OFFCURVE",
"1185 1496 OFFCURVE",
"1221 1339 OFFCURVE",
"1205 1250 QCURVE SMOOTH",
"1193 1180 OFFCURVE",
"1130 1050 OFFCURVE",
"1038 942 OFFCURVE",
"923 860 OFFCURVE",
"859 839 QCURVE",
"915 824 OFFCURVE",
"1006 749 OFFCURVE",
"1066 638 OFFCURVE",
"1086 494 OFFCURVE",
"1071 409 QCURVE SMOOTH",
"1054 315 OFFCURVE",
"966 153 OFFCURVE",
"832 35 OFFCURVE",
"655 -32 OFFCURVE",
"549 -32 QCURVE SMOOTH"
);
}
);
width = 1150;
},
{
layerId = "E447CA33-FCF6-431B-A31E-579E9AB2C071";
paths = (
{
closed = 1;
nodes = (
"454 -32 OFFCURVE",
"298 30 OFFCURVE",
"198 143 OFFCURVE",
"158 300 OFFCURVE",
"173 395 QCURVE",
"228 401 LINE",
"214 318 OFFCURVE",
"251 181 OFFCURVE",
"341 84 OFFCURVE",
"477 30 OFFCURVE",
"564 30 QCURVE SMOOTH",
"650 30 OFFCURVE",
"798 81 OFFCURVE",
"913 177 OFFCURVE",
"991 314 OFFCURVE",
"1006 401 QCURVE SMOOTH",
"1022 493 OFFCURVE",
"990 645 OFFCURVE",
"909 753 OFFCURVE",
"785 812 OFFCURVE",
"710 812 QCURVE SMOOTH",
"678 812 OFFCURVE",
"655 806 QCURVE",
"665 864 LINE",
"706 864 LINE SMOOTH",
"786 864 OFFCURVE",
"934 926 OFFCURVE",
"1053 1034 OFFCURVE",
"1135 1178 OFFCURVE",
"1150 1260 QCURVE SMOOTH",
"1163 1336 OFFCURVE",
"1137 1468 OFFCURVE",
"1065 1567 OFFCURVE",
"951 1624 OFFCURVE",
"876 1624 QCURVE SMOOTH",
"802 1624 OFFCURVE",
"667 1568 OFFCURVE",
"558 1472 OFFCURVE",
"482 1342 OFFCURVE",
"467 1268 QCURVE",
"416 1274 LINE",
"435 1362 OFFCURVE",
"524 1511 OFFCURVE",
"649 1619 OFFCURVE",
"802 1680 OFFCURVE",
"885 1680 QCURVE SMOOTH",
"973 1680 OFFCURVE",
"1108 1613 OFFCURVE",
"1191 1499 OFFCURVE",
"1221 1346 OFFCURVE",
"1206 1260 QCURVE SMOOTH",
"1193 1186 OFFCURVE",
"1127 1051 OFFCURVE",
"1033 939 OFFCURVE",
"914 857 OFFCURVE",
"848 836 QCURVE",
"908 821 OFFCURVE",
"1002 747 OFFCURVE",
"1061 636 OFFCURVE",
"1081 489 OFFCURVE",
"1066 402 QCURVE SMOOTH",
"1049 305 OFFCURVE",
"963 145 OFFCURVE",
"831 31 OFFCURVE",
"658 -32 OFFCURVE",
"554 -32 QCURVE SMOOTH"
);
}
);
width = 1156;
}
);
unicode = 0033;
},
{
glyphname = four;
layers = (
{
layerId = "AE9DFD7C-61AF-45F8-BC87-08C480261DD9";
paths = (
{
closed = 1;
nodes = (
"704 0 LINE",
"756 292 LINE",
"-7 292 LINE",
"15 416 LINE",
"973 1650 LINE",
"1378 1650 LINE",
"1207 678 LINE",
"1386 678 LINE",
"1318 292 LINE",
"1139 292 LINE",
"1088 0 LINE"
);
},
{
closed = 1;
nodes = (
"623 678 LINE",
"824 678 LINE",
"892 1064 LINE"
);
}
);
width = 1282;
},
{
layerId = "801DDF57-AF28-491E-9007-7F83CAB295FA";
paths = (
{
closed = 1;
nodes = (
"717 0 LINE",
"770 298 LINE",
"6 298 LINE",
"26 409 LINE",
"989 1650 LINE",
"1336 1650 LINE",
"1156 628 LINE",
"1335 628 LINE",
"1277 298 LINE",
"1098 298 LINE",
"1045 0 LINE"
);
},
{
closed = 1;
nodes = (
"542 628 LINE",
"828 628 LINE",
"919 1147 LINE"
);
}
);
width = 1245;
},
{
layerId = "7828A6CD-C6F9-4202-83DF-9F2979E44CC9";
paths = (
{
closed = 1;
nodes = (
"720 0 LINE",
"773 304 LINE",
"8 304 LINE",
"25 402 LINE",
"996 1650 LINE",
"1281 1650 LINE",
"1091 574 LINE",
"1269 574 LINE",
"1222 304 LINE",
"1043 304 LINE",
"990 0 LINE"
);
},
{
closed = 1;
nodes = (
"444 574 LINE",
"821 574 LINE",
"938 1236 LINE"
);
}
);
width = 1193;
},
{
layerId = "E014D827-045C-4C5E-9112-DAAA2F08F96E";
paths = (
{
closed = 1;
nodes = (
"744 0 LINE",
"798 309 LINE",
"31 309 LINE",
"46 396 LINE",
"1022 1650 LINE",
"1254 1650 LINE",
"1056 528 LINE",
"1235 528 LINE",
"1196 309 LINE",
"1018 309 LINE",
"963 0 LINE"
);
},
{
closed = 1;
nodes = (
"382 528 LINE",
"837 528 LINE",
"975 1311 LINE"
);
}
);
width = 1173;
},
{
layerId = "FF432E7F-1027-4D02-BFD8-A992D5952530";
paths = (
{
closed = 1;
nodes = (
"759 0 LINE",
"814 313 LINE",
"45 313 LINE",
"59 391 LINE",
"1041 1650 LINE",
"1230 1650 LINE",
"1025 492 LINE",
"1204 492 LINE",
"1172 313 LINE",
"994 313 LINE",
"939 0 LINE"
);
},
{
closed = 1;
nodes = (
"330 492 LINE",
"846 492 LINE",
"1001 1371 LINE"
);
}
);
width = 1163;
},
{
layerId = "74131A9F-F041-4E04-A4FA-FF748C1727DF";
paths = (
{
closed = 1;
nodes = (
"755 0 LINE",
"811 318 LINE",
"41 318 LINE",
"52 385 LINE",
"1040 1650 LINE",
"1175 1650 LINE",
"962 446 LINE",
"1141 446 LINE",
"1118 318 LINE",
"940 318 LINE",
"884 0 LINE"
);
},
{
closed = 1;
nodes = (
"240 446 LINE",
"833 446 LINE",
"1010 1447 LINE"
);
}
);
width = 1087;
},
{
layerId = "4B953CDD-5CE3-4322-8A9F-D31267D1A9B5";
paths = (
{
closed = 1;
nodes = (
"769 0 LINE",
"826 321 LINE",
"55 321 LINE",
"65 381 LINE",
"1057 1650 LINE",
"1155 1650 LINE",
"937 415 LINE",
"1116 415 LINE",
"1099 321 LINE",
"921 321 LINE",
"864 0 LINE"
);
},
{
closed = 1;
nodes = (
"196 415 LINE",
"842 415 LINE",
"1033 1499 LINE"
);
}
);
width = 1082;
},
{
layerId = "E14BD65A-535D-455D-BD93-03DF5D4D66A0";
paths = (
{
closed = 1;
nodes = (
"770 0 LINE",
"827 324 LINE",
"55 324 LINE",
"65 378 LINE",
"1059 1650 LINE",
"1130 1650 LINE",
"908 392 LINE",
"1087 392 LINE",
"1075 324 LINE",
"896 324 LINE",
"839 0 LINE"
);
},
{
closed = 1;
nodes = (
"152 392 LINE",
"839 392 LINE",
"1041 1538 LINE"
);
}
);
width = 1051;
},
{
layerId = "E447CA33-FCF6-431B-A31E-579E9AB2C071";
paths = (
{
closed = 1;
nodes = (
"780 0 LINE",
"838 326 LINE",
"66 326 LINE",
"74 376 LINE",
"1071 1650 LINE",
"1123 1650 LINE",
"898 376 LINE",
"1077 376 LINE",
"1068 326 LINE",
"890 326 LINE",
"832 0 LINE"
);
},
{
closed = 1;
nodes = (
"133 376 LINE",
"846 376 LINE",
"1056 1564 LINE"
);
}
);
width = 1054;
}
);
unicode = 0034;
},
{
color = (255, 153, 153, 255);
glyphname = five;
layers = (
{
layerId = "AE9DFD7C-61AF-45F8-BC87-08C480261DD9";
paths = (
{
closed = 1;
nodes = (
"1336 1650 LINE",
"1268 1264 LINE",
"836 1264 LINE",
"778 1080 LINE",
"794 1082 OFFCURVE",
"826 1084 OFFCURVE",
"842 1084 QCURVE SMOOTH",
"951 1084 OFFCURVE",
"1119 1009 OFFCURVE",
"1225 871 OFFCURVE",
"1263 676 OFFCURVE",
"1242 557 QCURVE SMOOTH",
"1219 425 OFFCURVE",
"1093 207 OFFCURVE",
"911 53 OFFCURVE",
"682 -32 OFFCURVE",
"557 -32 QCURVE SMOOTH",
"467 -32 OFFCURVE",
"304 14 OFFCURVE",
"176 105 OFFCURVE",
"90 240 OFFCURVE",
"76 328 QCURVE",
"429 496 LINE",
"430 461 OFFCURVE",
"457 402 OFFCURVE",
"505 360 OFFCURVE",
"570 336 OFFCURVE",
"609 336 QCURVE SMOOTH",
"654 336 OFFCURVE",
"727 366 OFFCURVE",
"783 417 OFFCURVE",
"818 487 OFFCURVE",
"825 526 QCURVE SMOOTH",
"845 642 OFFCURVE",
"677 768 OFFCURVE",
"501 768 QCURVE SMOOTH",
"436 768 OFFCURVE",
"313 750 OFFCURVE",
"257 734 QCURVE",
"553 1650 LINE"
);
}
);
width = 1165;
},
{
layerId = "801DDF57-AF28-491E-9007-7F83CAB295FA";
paths = (
{
closed = 1;
nodes = (
"1341 1650 LINE",
"1283 1320 LINE",
"799 1320 LINE",
"720 1069 LINE",
"776 1085 OFFCURVE",
"838 1085 QCURVE SMOOTH",
"949 1085 OFFCURVE",
"1120 1009 OFFCURVE",
"1228 868 OFFCURVE",
"1267 671 OFFCURVE",
"1246 549 QCURVE SMOOTH",
"1223 416 OFFCURVE",
"1097 201 OFFCURVE",
"916 49 OFFCURVE",
"692 -32 OFFCURVE",
"569 -32 QCURVE SMOOTH",
"478 -32 OFFCURVE",
"316 15 OFFCURVE",
"189 106 OFFCURVE",
"104 240 OFFCURVE",
"90 328 QCURVE",
"392 472 LINE",
"396 430 OFFCURVE",
"431 360 OFFCURVE",
"489 310 OFFCURVE",
"568 283 OFFCURVE",
"616 283 QCURVE SMOOTH",
"671 283 OFFCURVE",
"763 319 OFFCURVE",
"834 384 OFFCURVE",
"881 472 OFFCURVE",
"891 524 QCURVE SMOOTH",
"903 592 OFFCURVE",
"869 700 OFFCURVE",
"781 775 OFFCURVE",
"644 814 OFFCURVE",
"554 814 QCURVE SMOOTH",
"478 814 OFFCURVE",
"333 778 OFFCURVE",
"266 745 QCURVE",
"558 1650 LINE"
);
}
);
width = 1190;
},
{
layerId = "7828A6CD-C6F9-4202-83DF-9F2979E44CC9";
paths = (
{
closed = 1;
nodes = (
"1333 1650 LINE",
"1285 1380 LINE",
"747 1380 LINE",
"641 1048 LINE",
"728 1087 OFFCURVE",
"821 1087 QCURVE SMOOTH",
"934 1087 OFFCURVE",
"1107 1009 OFFCURVE",
"1218 866 OFFCURVE",
"1257 664 OFFCURVE",
"1236 540 QCURVE SMOOTH",
"1212 406 OFFCURVE",
"1087 193 OFFCURVE",
"909 46 OFFCURVE",
"688 -32 OFFCURVE",
"569 -32 QCURVE SMOOTH",
"477 -32 OFFCURVE",
"316 16 OFFCURVE",
"190 107 OFFCURVE",
"106 241 OFFCURVE",
"91 327 QCURVE",
"339 446 LINE",
"345 396 OFFCURVE",
"389 315 OFFCURVE",
"459 257 OFFCURVE",
"553 226 OFFCURVE",
"609 226 QCURVE SMOOTH",
"675 226 OFFCURVE",
"789 269 OFFCURVE",
"876 347 OFFCURVE",
"935 456 OFFCURVE",
"947 521 QCURVE SMOOTH",
"961 601 OFFCURVE",
"925 728 OFFCURVE",
"832 816 OFFCURVE",
"689 863 OFFCURVE",
"596 863 QCURVE SMOOTH",
"508 863 OFFCURVE",
"339 808 OFFCURVE",
"263 756 QCURVE",
"550 1650 LINE"
);
}
);
width = 1214;
},
{
layerId = "E014D827-045C-4C5E-9112-DAAA2F08F96E";
paths = (
{
closed = 1;
nodes = (
"1351 1650 LINE",
"1312 1431 LINE",
"727 1431 LINE",
"597 1027 LINE",
"706 1088 OFFCURVE",
"830 1088 QCURVE SMOOTH",
"944 1088 OFFCURVE",
"1121 1009 OFFCURVE",
"1234 863 OFFCURVE",
"1275 659 OFFCURVE",
"1252 533 QCURVE SMOOTH",
"1228 398 OFFCURVE",
"1104 187 OFFCURVE",
"927 43 OFFCURVE",
"711 -32 OFFCURVE",
"595 -32 QCURVE SMOOTH",
"503 -32 OFFCURVE",
"341 16 OFFCURVE",
"216 108 OFFCURVE",
"132 242 OFFCURVE",
"118 327 QCURVE",
"319 424 LINE",
"327 368 OFFCURVE",
"378 277 OFFCURVE",
"458 212 OFFCURVE",
"566 177 OFFCURVE",
"629 177 QCURVE SMOOTH",
"704 177 OFFCURVE",
"835 226 OFFCURVE",
"937 316 OFFCURVE",
"1006 442 OFFCURVE",
"1019 519 QCURVE SMOOTH",
"1035 609 OFFCURVE",
"997 752 OFFCURVE",
"901 852 OFFCURVE",
"753 905 OFFCURVE",
"658 905 QCURVE SMOOTH",
"559 905 OFFCURVE",
"371 834 OFFCURVE",
"284 765 QCURVE",
"568 1650 LINE"
);
}
);
width = 1234;
},
{
layerId = "FF432E7F-1027-4D02-BFD8-A992D5952530";
paths = (
{
closed = 1;
nodes = (
"1358 1650 LINE",
"1326 1471 LINE",
"704 1471 LINE",
"555 1007 LINE",
"682 1089 OFFCURVE",
"831 1089 QCURVE SMOOTH",
"946 1089 OFFCURVE",
"1126 1009 OFFCURVE",
"1239 862 OFFCURVE",
"1281 654 OFFCURVE",
"1258 527 QCURVE SMOOTH",
"1234 391 OFFCURVE",
"1110 182 OFFCURVE",
"935 41 OFFCURVE",
"721 -32 OFFCURVE",
"607 -32 QCURVE SMOOTH",
"514 -32 OFFCURVE",
"354 17 OFFCURVE",
"229 109 OFFCURVE",
"146 242 OFFCURVE",
"131 327 QCURVE",
"296 406 LINE",
"306 345 OFFCURVE",
"363 246 OFFCURVE",
"451 177 OFFCURVE",
"567 139 OFFCURVE",
"637 139 QCURVE SMOOTH",
"720 139 OFFCURVE",
"865 193 OFFCURVE",
"978 292 OFFCURVE",
"1055 431 OFFCURVE",
"1070 517 QCURVE SMOOTH",
"1087 615 OFFCURVE",
"1048 770 OFFCURVE",
"949 880 OFFCURVE",
"796 938 OFFCURVE",
"699 938 QCURVE SMOOTH",
"592 938 OFFCURVE",
"388 854 OFFCURVE",
"294 773 QCURVE",
"575 1650 LINE"
);
}
);
width = 1256;
},
{
layerId = "74131A9F-F041-4E04-A4FA-FF748C1727DF";
paths = (
{
closed = 1;
nodes = (
"1352 1650 LINE",
"1330 1522 LINE",
"661 1522 LINE",
"486 979 LINE",
"562 1036 OFFCURVE",
"727 1090 OFFCURVE",
"817 1090 QCURVE SMOOTH",
"934 1090 OFFCURVE",
"1116 1009 OFFCURVE",
"1232 859 OFFCURVE",
"1274 649 OFFCURVE",
"1252 520 QCURVE SMOOTH",
"1228 383 OFFCURVE",
"1104 176 OFFCURVE",
"929 38 OFFCURVE",
"720 -32 OFFCURVE",
"609 -32 QCURVE SMOOTH",
"516 -32 OFFCURVE",
"355 17 OFFCURVE",
"230 110 OFFCURVE",
"148 242 OFFCURVE",
"134 326 QCURVE",
"253 384 LINE",
"264 316 OFFCURVE",
"328 208 OFFCURVE",
"426 132 OFFCURVE",
"556 91 OFFCURVE",
"632 91 QCURVE SMOOTH",
"725 91 OFFCURVE",
"887 150 OFFCURVE",
"1015 261 OFFCURVE",
"1102 418 OFFCURVE",
"1120 515 QCURVE SMOOTH",
"1139 622 OFFCURVE",
"1098 794 OFFCURVE",
"995 914 OFFCURVE",
"836 979 OFFCURVE",
"736 979 QCURVE SMOOTH",
"618 979 OFFCURVE",
"396 880 OFFCURVE",
"292 783 QCURVE",
"569 1650 LINE"
);
}
);
width = 1257;
},
{
layerId = "4B953CDD-5CE3-4322-8A9F-D31267D1A9B5";
paths = (
{
closed = 1;
nodes = (
"1360 1650 LINE",
"1344 1557 LINE",
"642 1557 LINE",
"450 959 LINE",
"533 1026 OFFCURVE",
"718 1091 OFFCURVE",
"819 1091 QCURVE SMOOTH",
"937 1091 OFFCURVE",
"1122 1010 OFFCURVE",
"1239 862 OFFCURVE",
"1283 651 OFFCURVE",
"1260 521 QCURVE SMOOTH",
"1236 383 OFFCURVE",
"1112 176 OFFCURVE",
"938 37 OFFCURVE",
"730 -32 OFFCURVE",
"621 -32 QCURVE SMOOTH",
"528 -32 OFFCURVE",
"367 18 OFFCURVE",
"243 111 OFFCURVE",
"162 243 OFFCURVE",
"148 326 QCURVE",
"234 369 LINE",
"246 297 OFFCURVE",
"315 181 OFFCURVE",
"421 101 OFFCURVE",
"559 58 OFFCURVE",
"641 58 QCURVE SMOOTH",
"741 58 OFFCURVE",
"915 123 OFFCURVE",
"1053 243 OFFCURVE",
"1147 414 OFFCURVE",
"1166 520 QCURVE SMOOTH",
"1186 634 OFFCURVE",
"1144 815 OFFCURVE",
"1038 941 OFFCURVE",
"875 1008 OFFCURVE",
"774 1008 QCURVE SMOOTH",
"649 1008 OFFCURVE",
"413 897 OFFCURVE",
"302 790 QCURVE",
"577 1650 LINE"
);
}
);
width = 1279;
},
{
layerId = "E14BD65A-535D-455D-BD93-03DF5D4D66A0";
paths = (
{
closed = 1;
nodes = (
"1360 1650 LINE",
"1348 1583 LINE",
"621 1583 LINE",
"415 942 LINE",
"594 1092 OFFCURVE",
"815 1092 QCURVE SMOOTH",
"934 1092 OFFCURVE",
"1120 1014 OFFCURVE",
"1239 868 OFFCURVE",
"1284 659 OFFCURVE",
"1261 528 QCURVE SMOOTH",
"1237 390 OFFCURVE",
"1111 180 OFFCURVE",
"939 39 OFFCURVE",
"731 -32 OFFCURVE",
"624 -32 QCURVE SMOOTH",
"531 -32 OFFCURVE",
"369 18 OFFCURVE",
"246 111 OFFCURVE",
"166 244 OFFCURVE",
"151 326 QCURVE",
"214 358 LINE",
"228 282 OFFCURVE",
"300 162 OFFCURVE",
"411 78 OFFCURVE",
"555 33 OFFCURVE",
"641 33 QCURVE SMOOTH",
"745 33 OFFCURVE",
"930 105 OFFCURVE",
"1075 235 OFFCURVE",
"1176 418 OFFCURVE",
"1195 530 QCURVE SMOOTH",
"1216 649 OFFCURVE",
"1174 835 OFFCURVE",
"1064 963 OFFCURVE",
"898 1030 OFFCURVE",
"795 1030 QCURVE SMOOTH",
"665 1030 OFFCURVE",
"419 910 OFFCURVE",
"303 795 QCURVE",
"577 1650 LINE"
);
}
);
width = 1288;
},
{
layerId = "E447CA33-FCF6-431B-A31E-579E9AB2C071";
paths = (
{
closed = 1;
nodes = (
"1367 1650 LINE",
"1359 1600 LINE",
"616 1600 LINE",
"397 922 LINE",
"390 922 LINE",
"486 1008 OFFCURVE",
"700 1092 OFFCURVE",
"819 1092 QCURVE SMOOTH",
"939 1092 OFFCURVE",
"1126 1015 OFFCURVE",
"1246 869 OFFCURVE",
"1291 660 OFFCURVE",
"1268 528 QCURVE SMOOTH",
"1244 390 OFFCURVE",
"1119 180 OFFCURVE",
"947 39 OFFCURVE",
"740 -32 OFFCURVE",
"634 -32 QCURVE SMOOTH",
"540 -32 OFFCURVE",
"379 18 OFFCURVE",
"256 111 OFFCURVE",
"176 244 OFFCURVE",
"161 326 QCURVE",
"208 350 LINE",
"222 272 OFFCURVE",
"297 148 OFFCURVE",
"412 62 OFFCURVE",
"561 16 OFFCURVE",
"649 16 QCURVE SMOOTH",
"757 16 OFFCURVE",
"947 91 OFFCURVE",
"1098 226 OFFCURVE",
"1202 417 OFFCURVE",
"1222 532 QCURVE SMOOTH",
"1244 654 OFFCURVE",
"1200 845 OFFCURVE",
"1090 976 OFFCURVE",
"920 1044 OFFCURVE",
"817 1044 QCURVE SMOOTH",
"684 1044 OFFCURVE",
"430 919 OFFCURVE",
"311 798 QCURVE",
"584 1650 LINE"
);
}
);
width = 1305;
}
);
unicode = 0035;
},
{
color = (255, 153, 153, 255);
glyphname = six;
layers = (
{
layerId = "AE9DFD7C-61AF-45F8-BC87-08C480261DD9";
paths = (
{
closed = 1;
nodes = (
"521 -32 OFFCURVE",
"305 57 OFFCURVE",
"166 218 OFFCURVE",
"111 439 OFFCURVE",
"134 571 QCURVE SMOOTH",
"189 885 OFFCURVE",
"526 1244 QCURVE SMOOTH",
"907 1650 LINE",
"1402 1650 LINE",
"869 1096 LINE",
"902 1110 OFFCURVE",
"963 1110 QCURVE SMOOTH",
"1068 1110 OFFCURVE",
"1228 1027 OFFCURVE",
"1328 877 OFFCURVE",
"1361 669 OFFCURVE",
"1339 545 QCURVE SMOOTH",
"1316 415 OFFCURVE",
"1196 202 OFFCURVE",
"1017 50 OFFCURVE",
"789 -32 OFFCURVE",
"659 -32 QCURVE SMOOTH"
);
},
{
closed = 1;
nodes = (
"743 332 OFFCURVE",
"817 362 OFFCURVE",
"877 415 OFFCURVE",
"918 488 OFFCURVE",
"925 531 QCURVE SMOOTH",
"933 575 OFFCURVE",
"917 649 OFFCURVE",
"877 703 OFFCURVE",
"813 734 OFFCURVE",
"773 734 QCURVE SMOOTH",
"733 734 OFFCURVE",
"661 703 OFFCURVE",
"602 649 OFFCURVE",
"561 575 OFFCURVE",
"553 531 QCURVE SMOOTH",
"545 488 OFFCURVE",
"561 414 OFFCURVE",
"600 362 OFFCURVE",
"662 332 OFFCURVE",
"702 332 QCURVE SMOOTH"
);
}
);
width = 1274;
},
{
layerId = "801DDF57-AF28-491E-9007-7F83CAB295FA";
paths = (
{
closed = 1;
nodes = (
"520 -32 OFFCURVE",
"310 58 OFFCURVE",
"177 217 OFFCURVE",
"125 434 OFFCURVE",
"147 561 QCURVE SMOOTH",
"173 710 OFFCURVE",
"355 1027 OFFCURVE",
"508 1189 QCURVE SMOOTH",
"943 1650 LINE",
"1365 1650 LINE",
"822 1084 LINE",
"845 1095 OFFCURVE",
"909 1108 OFFCURVE",
"944 1108 QCURVE SMOOTH",
"1048 1108 OFFCURVE",
"1210 1024 OFFCURVE",
"1312 874 OFFCURVE",
"1348 666 OFFCURVE",
"1326 542 QCURVE SMOOTH",
"1303 413 OFFCURVE",
"1184 201 OFFCURVE",
"1008 51 OFFCURVE",
"783 -32 OFFCURVE",
"655 -32 QCURVE SMOOTH"
);
},
{
closed = 1;
nodes = (
"743 280 OFFCURVE",
"837 317 OFFCURVE",
"912 384 OFFCURVE",
"964 476 OFFCURVE",
"973 531 QCURVE SMOOTH",
"983 586 OFFCURVE",
"963 679 OFFCURVE",
"912 747 OFFCURVE",
"833 786 OFFCURVE",
"784 786 QCURVE SMOOTH",
"735 786 OFFCURVE",
"642 747 OFFCURVE",
"567 678 OFFCURVE",
"514 584 OFFCURVE",
"504 529 QCURVE SMOOTH",
"495 476 OFFCURVE",
"512 385 OFFCURVE",
"562 318 OFFCURVE",
"641 280 OFFCURVE",
"692 280 QCURVE SMOOTH"
);
}
);
width = 1278;
},
{
layerId = "7828A6CD-C6F9-4202-83DF-9F2979E44CC9";
paths = (
{
closed = 1;
nodes = (
"519 -32 OFFCURVE",
"317 59 OFFCURVE",
"189 217 OFFCURVE",
"141 429 OFFCURVE",
"162 550 QCURVE SMOOTH",
"187 691 OFFCURVE",
"356 987 OFFCURVE",
"491 1130 QCURVE SMOOTH",
"982 1650 LINE",
"1329 1650 LINE",
"775 1072 LINE",
"808 1088 OFFCURVE",
"883 1105 OFFCURVE",
"926 1105 QCURVE SMOOTH",
"1030 1105 OFFCURVE",
"1193 1021 OFFCURVE",
"1298 871 OFFCURVE",
"1336 663 OFFCURVE",
"1314 539 QCURVE SMOOTH",
"1292 412 OFFCURVE",
"1172 201 OFFCURVE",
"998 51 OFFCURVE",
"777 -32 OFFCURVE",
"652 -32 QCURVE SMOOTH"
);
},
{
closed = 1;
nodes = (
"745 224 OFFCURVE",
"860 270 OFFCURVE",
"950 351 OFFCURVE",
"1014 464 OFFCURVE",
"1026 530 QCURVE SMOOTH",
"1038 597 OFFCURVE",
"1014 711 OFFCURVE",
"952 794 OFFCURVE",
"857 841 OFFCURVE",
"798 841 QCURVE SMOOTH",
"738 841 OFFCURVE",
"624 793 OFFCURVE",
"532 708 OFFCURVE",
"467 593 OFFCURVE",
"455 527 QCURVE SMOOTH",
"444 464 OFFCURVE",
"466 354 OFFCURVE",
"524 271 OFFCURVE",
"620 224 OFFCURVE",
"683 224 QCURVE SMOOTH"
);
}
);
width = 1279;
},
{
layerId = "E014D827-045C-4C5E-9112-DAAA2F08F96E";
paths = (
{
closed = 1;
nodes = (
"519 -32 OFFCURVE",
"323 60 OFFCURVE",
"200 216 OFFCURVE",
"155 424 OFFCURVE",
"175 541 QCURVE SMOOTH",
"187 608 OFFCURVE",
"239 746 OFFCURVE",
"316 883 OFFCURVE",
"416 1017 OFFCURVE",
"475 1080 QCURVE SMOOTH",
"1016 1650 LINE",
"1298 1650 LINE",
"734 1061 LINE",
"775 1081 OFFCURVE",
"862 1103 OFFCURVE",
"910 1103 QCURVE SMOOTH",
"1013 1103 OFFCURVE",
"1179 1019 OFFCURVE",
"1285 869 OFFCURVE",
"1325 661 OFFCURVE",
"1303 536 QCURVE SMOOTH",
"1281 410 OFFCURVE",
"1163 201 OFFCURVE",
"989 51 OFFCURVE",
"772 -32 OFFCURVE",
"649 -32 QCURVE SMOOTH"
);
},
{
closed = 1;
nodes = (
"748 177 OFFCURVE",
"879 230 OFFCURVE",
"984 324 OFFCURVE",
"1056 453 OFFCURVE",
"1070 529 QCURVE SMOOTH",
"1084 607 OFFCURVE",
"1057 738 OFFCURVE",
"985 834 OFFCURVE",
"876 888 OFFCURVE",
"809 888 QCURVE SMOOTH",
"739 888 OFFCURVE",
"608 832 OFFCURVE",
"502 734 OFFCURVE",
"426 602 OFFCURVE",
"413 525 QCURVE SMOOTH",
"400 453 OFFCURVE",
"424 327 OFFCURVE",
"493 232 OFFCURVE",
"603 177 OFFCURVE",
"676 177 QCURVE SMOOTH"
);
}
);
width = 1288;
},
{
layerId = "FF432E7F-1027-4D02-BFD8-A992D5952530";
paths = (
{
closed = 1;
nodes = (
"521 -32 OFFCURVE",
"329 60 OFFCURVE",
"211 216 OFFCURVE",
"168 421 OFFCURVE",
"188 534 QCURVE SMOOTH",
"211 663 OFFCURVE",
"356 926 OFFCURVE",
"464 1040 QCURVE SMOOTH",
"1045 1650 LINE",
"1276 1650 LINE",
"703 1052 LINE",
"750 1076 OFFCURVE",
"847 1101 OFFCURVE",
"899 1101 QCURVE SMOOTH",
"1002 1101 OFFCURVE",
"1169 1017 OFFCURVE",
"1276 867 OFFCURVE",
"1318 659 OFFCURVE",
"1296 534 QCURVE SMOOTH",
"1274 409 OFFCURVE",
"1156 201 OFFCURVE",
"984 51 OFFCURVE",
"769 -32 OFFCURVE",
"649 -32 QCURVE SMOOTH"
);
},
{
closed = 1;
nodes = (
"751 140 OFFCURVE",
"896 198 OFFCURVE",
"1012 302 OFFCURVE",
"1092 445 OFFCURVE",
"1107 529 QCURVE SMOOTH",
"1122 615 OFFCURVE",
"1092 760 OFFCURVE",
"1014 865 OFFCURVE",
"893 925 OFFCURVE",
"819 925 QCURVE SMOOTH",
"743 925 OFFCURVE",
"597 863 OFFCURVE",
"479 755 OFFCURVE",
"395 608 OFFCURVE",
"380 524 QCURVE SMOOTH",
"366 445 OFFCURVE",
"393 306 OFFCURVE",
"469 201 OFFCURVE",
"590 140 OFFCURVE",
"672 140 QCURVE SMOOTH"
);
}
);
width = 1295;
},
{
layerId = "74131A9F-F041-4E04-A4FA-FF748C1727DF";
paths = (
{
closed = 1;
nodes = (
"506 -32 OFFCURVE",
"321 61 OFFCURVE",
"208 215 OFFCURVE",
"168 417 OFFCURVE",
"187 525 QCURVE SMOOTH",
"198 586 OFFCURVE",
"243 710 OFFCURVE",
"307 829 OFFCURVE",
"388 941 OFFCURVE",
"435 990 QCURVE SMOOTH",
"1064 1650 LINE",
"1231 1650 LINE",
"648 1041 LINE",
"703 1070 OFFCURVE",
"812 1099 OFFCURVE",
"870 1099 QCURVE SMOOTH",
"973 1099 OFFCURVE",
"1140 1015 OFFCURVE",
"1251 865 OFFCURVE",
"1293 656 OFFCURVE",
"1271 531 QCURVE SMOOTH",
"1249 408 OFFCURVE",
"1133 201 OFFCURVE",
"963 51 OFFCURVE",
"750 -32 OFFCURVE",
"632 -32 QCURVE SMOOTH"
);
},
{
closed = 1;
nodes = (
"738 93 OFFCURVE",
"901 158 OFFCURVE",
"1031 274 OFFCURVE",
"1121 434 OFFCURVE",
"1137 528 QCURVE SMOOTH",
"1154 624 OFFCURVE",
"1121 787 OFFCURVE",
"1033 905 OFFCURVE",
"898 972 OFFCURVE",
"816 972 QCURVE SMOOTH",
"730 972 OFFCURVE",
"568 902 OFFCURVE",
"435 781 OFFCURVE",
"341 617 OFFCURVE",
"324 523 QCURVE SMOOTH",
"309 436 OFFCURVE",
"338 279 OFFCURVE",
"423 162 OFFCURVE",
"558 93 OFFCURVE",
"650 93 QCURVE SMOOTH"
);
}
);
width = 1270;
},
{
layerId = "4B953CDD-5CE3-4322-8A9F-D31267D1A9B5";
paths = (
{
closed = 1;
nodes = (
"509 -32 OFFCURVE",
"328 61 OFFCURVE",
"219 215 OFFCURVE",
"181 414 OFFCURVE",
"200 519 QCURVE SMOOTH",
"210 577 OFFCURVE",
"252 696 OFFCURVE",
"312 808 OFFCURVE",
"386 912 OFFCURVE",
"427 955 QCURVE SMOOTH",
"1091 1650 LINE",
"1213 1650 LINE",
"624 1034 LINE",
"684 1066 OFFCURVE",
"800 1098 OFFCURVE",
"862 1098 QCURVE SMOOTH",
"964 1098 OFFCURVE",
"1133 1014 OFFCURVE",
"1244 863 OFFCURVE",
"1288 654 OFFCURVE",
"1266 529 QCURVE SMOOTH",
"1244 407 OFFCURVE",
"1129 201 OFFCURVE",
"960 52 OFFCURVE",
"750 -32 OFFCURVE",
"634 -32 QCURVE SMOOTH"
);
},
{
closed = 1;
nodes = (
"743 60 OFFCURVE",
"917 130 OFFCURVE",
"1057 255 OFFCURVE",
"1153 426 OFFCURVE",
"1171 528 QCURVE SMOOTH",
"1189 631 OFFCURVE",
"1153 806 OFFCURVE",
"1059 933 OFFCURVE",
"915 1004 OFFCURVE",
"826 1004 QCURVE SMOOTH",
"735 1004 OFFCURVE",
"559 929 OFFCURVE",
"417 799 OFFCURVE",
"316 623 OFFCURVE",
"298 522 QCURVE SMOOTH",
"282 429 OFFCURVE",
"312 261 OFFCURVE",
"403 134 OFFCURVE",
"549 60 OFFCURVE",
"648 60 QCURVE SMOOTH"
);
}
);
width = 1281;
},
{
layerId = "E14BD65A-535D-455D-BD93-03DF5D4D66A0";
paths = (
{
closed = 1;
nodes = (
"506 -32 OFFCURVE",
"329 62 OFFCURVE",
"222 215 OFFCURVE",
"186 411 OFFCURVE",
"204 514 QCURVE SMOOTH",
"214 570 OFFCURVE",
"255 685 OFFCURVE",
"311 793 OFFCURVE",
"379 890 OFFCURVE",
"417 929 QCURVE SMOOTH",
"1107 1650 LINE",
"1194 1650 LINE",
"600 1028 LINE",
"664 1062 OFFCURVE",
"787 1097 OFFCURVE",
"851 1097 QCURVE SMOOTH",
"953 1097 OFFCURVE",
"1123 1013 OFFCURVE",
"1236 862 OFFCURVE",
"1281 653 OFFCURVE",
"1259 528 QCURVE SMOOTH",
"1237 406 OFFCURVE",
"1122 201 OFFCURVE",
"954 52 OFFCURVE",
"745 -32 OFFCURVE",
"630 -32 QCURVE SMOOTH"
);
},
{
closed = 1;
nodes = (
"742 36 OFFCURVE",
"925 110 OFFCURVE",
"1071 241 OFFCURVE",
"1173 421 OFFCURVE",
"1192 528 QCURVE SMOOTH",
"1211 636 OFFCURVE",
"1173 820 OFFCURVE",
"1073 953 OFFCURVE",
"923 1028 OFFCURVE",
"829 1028 QCURVE SMOOTH",
"733 1028 OFFCURVE",
"550 949 OFFCURVE",
"398 812 OFFCURVE",
"292 627 OFFCURVE",
"274 521 QCURVE SMOOTH",
"257 423 OFFCURVE",
"289 247 OFFCURVE",
"384 114 OFFCURVE",
"538 36 OFFCURVE",
"642 36 QCURVE SMOOTH"
);
}
);
width = 1279;
},
{
layerId = "E447CA33-FCF6-431B-A31E-579E9AB2C071";
paths = (
{
closed = 1;
nodes = (
"511 -32 OFFCURVE",
"337 62 OFFCURVE",
"230 215 OFFCURVE",
"196 410 OFFCURVE",
"214 511 QCURVE SMOOTH",
"224 566 OFFCURVE",
"263 678 OFFCURVE",
"317 783 OFFCURVE",
"381 876 OFFCURVE",
"417 912 QCURVE",
"1123 1650 LINE",
"1188 1650 LINE",
"591 1024 LINE",
"658 1059 OFFCURVE",
"785 1096 OFFCURVE",
"851 1096 QCURVE SMOOTH",
"953 1096 OFFCURVE",
"1123 1012 OFFCURVE",
"1236 861 OFFCURVE",
"1282 652 OFFCURVE",
"1260 527 QCURVE SMOOTH",
"1239 406 OFFCURVE",
"1123 200 OFFCURVE",
"956 52 OFFCURVE",
"748 -32 OFFCURVE",
"634 -32 QCURVE SMOOTH"
);
},
{
closed = 1;
nodes = (
"747 20 OFFCURVE",
"936 96 OFFCURVE",
"1088 231 OFFCURVE",
"1193 418 OFFCURVE",
"1212 528 QCURVE SMOOTH",
"1232 640 OFFCURVE",
"1192 829 OFFCURVE",
"1090 967 OFFCURVE",
"935 1044 OFFCURVE",
"838 1044 QCURVE SMOOTH",
"739 1044 OFFCURVE",
"549 963 OFFCURVE",
"393 821 OFFCURVE",
"283 630 OFFCURVE",
"264 520 QCURVE SMOOTH",
"246 419 OFFCURVE",
"280 238 OFFCURVE",
"378 101 OFFCURVE",
"537 20 OFFCURVE",
"644 20 QCURVE SMOOTH"
);
}
);
width = 1290;
}
);
unicode = 0036;
},
{
glyphname = seven;
layers = (
{
layerId = "AE9DFD7C-61AF-45F8-BC87-08C480261DD9";
paths = (
{
closed = 1;
nodes = (
"100 0 LINE",
"1011 1264 LINE",
"379 1264 LINE",
"447 1650 LINE",
"1686 1650 LINE",
"1663 1524 LINE",
"584 0 LINE"
);
}
);
width = 1338;
},
{
layerId = "801DDF57-AF28-491E-9007-7F83CAB295FA";
paths = (
{
closed = 1;
nodes = (
"100 0 LINE",
"1040 1320 LINE",
"380 1320 LINE",
"438 1650 LINE",
"1616 1650 LINE",
"1596 1540 LINE",
"514 0 LINE"
);
}
);
width = 1276;
},
{
layerId = "7828A6CD-C6F9-4202-83DF-9F2979E44CC9";
paths = (
{
closed = 1;
nodes = (
"50 0 LINE",
"1020 1380 LINE",
"331 1380 LINE",
"378 1650 LINE",
"1490 1650 LINE",
"1474 1558 LINE",
"389 0 LINE"
);
}
);
width = 1215;
},
{
layerId = "E014D827-045C-4C5E-9112-DAAA2F08F96E";
paths = (
{
closed = 1;
nodes = (
"100 0 LINE",
"1095 1431 LINE",
"381 1431 LINE",
"420 1650 LINE",
"1477 1650 LINE",
"1464 1573 LINE",
"375 0 LINE"
);
}
);
width = 1158;
},
{
layerId = "FF432E7F-1027-4D02-BFD8-A992D5952530";
paths = (
{
closed = 1;
nodes = (
"114 0 LINE",
"1129 1471 LINE",
"395 1471 LINE",
"426 1650 LINE",
"1440 1650 LINE",
"1428 1585 LINE",
"338 0 LINE"
);
}
);
width = 1135;
},
{
layerId = "74131A9F-F041-4E04-A4FA-FF748C1727DF";
paths = (
{
closed = 1;
nodes = (
"86 0 LINE",
"1128 1522 LINE",
"368 1522 LINE",
"390 1650 LINE",
"1349 1650 LINE",
"1340 1600 LINE",
"247 0 LINE"
);
}
);
width = 1033;
},
{
layerId = "4B953CDD-5CE3-4322-8A9F-D31267D1A9B5";
paths = (
{
closed = 1;
nodes = (
"100 0 LINE",
"1158 1557 LINE",
"381 1557 LINE",
"398 1650 LINE",
"1318 1650 LINE",
"1311 1611 LINE",
"216 0 LINE"
);
}
);
width = 1017;
},
{
layerId = "E14BD65A-535D-455D-BD93-03DF5D4D66A0";
paths = (
{
closed = 1;
nodes = (
"90 0 LINE",
"1162 1583 LINE",
"372 1583 LINE",
"384 1650 LINE",
"1276 1650 LINE",
"1270 1619 LINE",
"174 0 LINE"
);
}
);
width = 972;
},
{
layerId = "E447CA33-FCF6-431B-A31E-579E9AB2C071";
paths = (
{
closed = 1;
nodes = (
"100 0 LINE",
"1180 1600 LINE",
"382 1600 LINE",
"391 1650 LINE",
"1263 1650 LINE",
"1259 1624 LINE",
"161 0 LINE"
);
}
);
width = 970;
}
);
unicode = 0037;
},
{
color = (255, 153, 153, 255);
glyphname = eight;
layers = (
{
layerId = "AE9DFD7C-61AF-45F8-BC87-08C480261DD9";
paths = (
{
closed = 1;
nodes = (
"519 -32 OFFCURVE",
"314 41 OFFCURVE",
"174 173 OFFCURVE",
"113 356 OFFCURVE",
"132 467 QCURVE SMOOTH",
"144 537 OFFCURVE",
"207 667 OFFCURVE",
"296 778 OFFCURVE",
"407 866 OFFCURVE",
"470 894 QCURVE",
"429 923 OFFCURVE",
"370 1002 OFFCURVE",
"336 1093 OFFCURVE",
"328 1194 OFFCURVE",
"337 1246 QCURVE SMOOTH",
"354 1341 OFFCURVE",
"467 1500 OFFCURVE",
"633 1616 OFFCURVE",
"836 1680 OFFCURVE",
"944 1680 QCURVE SMOOTH",
"1004 1680 OFFCURVE",
"1125 1656 OFFCURVE",
"1235 1608 OFFCURVE",
"1327 1536 OFFCURVE",
"1389 1440 OFFCURVE",
"1414 1320 OFFCURVE",
"1401 1248 QCURVE SMOOTH",
"1391 1193 OFFCURVE",
"1345 1090 OFFCURVE",
"1278 998 OFFCURVE",
"1193 922 OFFCURVE",
"1143 894 QCURVE",
"1196 865 OFFCURVE",
"1278 776 OFFCURVE",
"1327 665 OFFCURVE",
"1342 535 OFFCURVE",
"1330 466 QCURVE SMOOTH",
"1311 356 OFFCURVE",
"1184 173 OFFCURVE",
"998 41 OFFCURVE",
"767 -32 OFFCURVE",
"643 -32 QCURVE SMOOTH"
);
},
{
closed = 1;
nodes = (
"864 1052 OFFCURVE",
"918 1074 OFFCURVE",
"963 1114 OFFCURVE",
"993 1168 OFFCURVE",
"998 1200 QCURVE",
"1004 1232 OFFCURVE",
"992 1286 OFFCURVE",
"963 1325 OFFCURVE",
"916 1348 OFFCURVE",
"858 1348 OFFCURVE",
"803 1325 OFFCURVE",
"759 1286 OFFCURVE",
"729 1232 OFFCURVE",
"723 1200 QCURVE SMOOTH",
"717 1168 OFFCURVE",
"728 1114 OFFCURVE",
"758 1074 OFFCURVE",
"804 1052 OFFCURVE",
"834 1052 QCURVE SMOOTH"
);
},
{
closed = 1;
nodes = (
"745 348 OFFCURVE",
"806 374 OFFCURVE",
"853 419 OFFCURVE",
"884 481 OFFCURVE",
"891 517 QCURVE SMOOTH",
"898 555 OFFCURVE",
"886 617 OFFCURVE",
"854 663 OFFCURVE",
"804 688 OFFCURVE",
"770 688 QCURVE SMOOTH",
"737 688 OFFCURVE",
"678 663 OFFCURVE",
"630 618 OFFCURVE",
"596 555 OFFCURVE",
"589 517 QCURVE SMOOTH",
"582 480 OFFCURVE",
"593 418 OFFCURVE",
"625 373 OFFCURVE",
"676 348 OFFCURVE",
"710 348 QCURVE SMOOTH"
);
}
);
width = 1297;
},
{
layerId = "801DDF57-AF28-491E-9007-7F83CAB295FA";
paths = (
{
closed = 1;
nodes = (
"512 -32 OFFCURVE",
"316 41 OFFCURVE",
"183 171 OFFCURVE",
"126 353 OFFCURVE",
"145 461 QCURVE SMOOTH",
"158 532 OFFCURVE",
"220 663 OFFCURVE",
"310 775 OFFCURVE",
"424 862 OFFCURVE",
"488 890 QCURVE",
"446 919 OFFCURVE",
"385 997 OFFCURVE",
"349 1091 OFFCURVE",
"340 1195 OFFCURVE",
"349 1249 QCURVE SMOOTH",
"366 1343 OFFCURVE",
"474 1501 OFFCURVE",
"633 1616 OFFCURVE",
"830 1680 OFFCURVE",
"934 1680 QCURVE SMOOTH",
"1023 1680 OFFCURVE",
"1194 1624 OFFCURVE",
"1321 1516 OFFCURVE",
"1385 1355 OFFCURVE",
"1367 1250 QCURVE SMOOTH",
"1357 1194 OFFCURVE",
"1309 1088 OFFCURVE",
"1240 995 OFFCURVE",
"1152 917 OFFCURVE",
"1100 890 QCURVE",
"1156 862 OFFCURVE",
"1240 773 OFFCURVE",
"1291 661 OFFCURVE",
"1306 531 OFFCURVE",
"1293 460 QCURVE SMOOTH",
"1274 352 OFFCURVE",
"1152 172 OFFCURVE",
"974 41 OFFCURVE",
"752 -32 OFFCURVE",
"632 -32 QCURVE SMOOTH"
);
},
{
closed = 1;
nodes = (
"855 1026 OFFCURVE",
"924 1054 OFFCURVE",
"978 1104 OFFCURVE",
"1016 1171 OFFCURVE",
"1023 1211 QCURVE SMOOTH",
"1030 1250 OFFCURVE",
"1016 1318 OFFCURVE",
"979 1367 OFFCURVE",
"921 1395 OFFCURVE",
"883 1395 QCURVE SMOOTH",
"847 1395 OFFCURVE",
"779 1367 OFFCURVE",
"724 1318 OFFCURVE",
"686 1250 OFFCURVE",
"679 1211 QCURVE SMOOTH",
"672 1171 OFFCURVE",
"686 1104 OFFCURVE",
"724 1054 OFFCURVE",
"781 1026 OFFCURVE",
"818 1026 QCURVE SMOOTH"
);
},
{
closed = 1;
nodes = (
"733 293 OFFCURVE",
"809 325 OFFCURVE",
"869 381 OFFCURVE",
"910 457 OFFCURVE",
"918 502 QCURVE SMOOTH",
"926 548 OFFCURVE",
"911 626 OFFCURVE",
"870 682 OFFCURVE",
"805 714 OFFCURVE",
"763 714 QCURVE SMOOTH",
"722 714 OFFCURVE",
"646 683 OFFCURVE",
"585 627 OFFCURVE",
"543 549 OFFCURVE",
"534 502 QCURVE SMOOTH",
"526 457 OFFCURVE",
"541 380 OFFCURVE",
"581 325 OFFCURVE",
"646 293 OFFCURVE",
"689 293 QCURVE SMOOTH"
);
}
);
width = 1275;
},
{
layerId = "7828A6CD-C6F9-4202-83DF-9F2979E44CC9";
paths = (
{
closed = 1;
nodes = (
"504 -32 OFFCURVE",
"318 40 OFFCURVE",
"193 169 OFFCURVE",
"140 348 OFFCURVE",
"158 454 QCURVE SMOOTH",
"171 526 OFFCURVE",
"234 659 OFFCURVE",
"326 771 OFFCURVE",
"442 859 OFFCURVE",
"508 886 QCURVE",
"464 914 OFFCURVE",
"399 993 OFFCURVE",
"361 1088 OFFCURVE",
"351 1195 OFFCURVE",
"361 1252 QCURVE SMOOTH",
"377 1344 OFFCURVE",
"481 1501 OFFCURVE",
"633 1615 OFFCURVE",
"821 1680 OFFCURVE",
"921 1680 QCURVE SMOOTH",
"1009 1680 OFFCURVE",
"1173 1623 OFFCURVE",
"1291 1513 OFFCURVE",
"1348 1354 OFFCURVE",
"1331 1253 QCURVE SMOOTH",
"1321 1195 OFFCURVE",
"1271 1085 OFFCURVE",
"1200 991 OFFCURVE",
"1108 913 OFFCURVE",
"1055 886 QCURVE",
"1112 858 OFFCURVE",
"1198 770 OFFCURVE",
"1250 658 OFFCURVE",
"1265 525 OFFCURVE",
"1253 453 QCURVE SMOOTH",
"1234 348 OFFCURVE",
"1118 170 OFFCURVE",
"948 41 OFFCURVE",
"734 -32 OFFCURVE",
"619 -32 QCURVE SMOOTH"
);
},
{
closed = 1;
nodes = (
"846 999 OFFCURVE",
"928 1033 OFFCURVE",
"994 1092 OFFCURVE",
"1040 1174 OFFCURVE",
"1049 1222 QCURVE SMOOTH",
"1057 1270 OFFCURVE",
"1040 1351 OFFCURVE",
"995 1411 OFFCURVE",
"925 1445 OFFCURVE",
"880 1445 QCURVE SMOOTH",
"835 1445 OFFCURVE",
"753 1411 OFFCURVE",
"687 1351 OFFCURVE",
"641 1270 OFFCURVE",
"632 1222 QCURVE SMOOTH",
"624 1174 OFFCURVE",
"641 1092 OFFCURVE",
"686 1033 OFFCURVE",
"756 999 OFFCURVE",
"801 999 QCURVE SMOOTH"
);
},
{
closed = 1;
nodes = (
"720 235 OFFCURVE",
"813 274 OFFCURVE",
"887 341 OFFCURVE",
"937 433 OFFCURVE",
"946 487 QCURVE SMOOTH",
"956 542 OFFCURVE",
"937 635 OFFCURVE",
"887 703 OFFCURVE",
"807 741 OFFCURVE",
"756 741 QCURVE SMOOTH",
"706 741 OFFCURVE",
"613 704 OFFCURVE",
"538 636 OFFCURVE",
"486 543 OFFCURVE",
"476 487 QCURVE SMOOTH",
"466 433 OFFCURVE",
"484 341 OFFCURVE",
"535 273 OFFCURVE",
"615 235 OFFCURVE",
"667 235 QCURVE SMOOTH"
);
}
);
width = 1251;
},
{
layerId = "E014D827-045C-4C5E-9112-DAAA2F08F96E";
paths = (
{
closed = 1;
nodes = (
"495 -32 OFFCURVE",
"317 40 OFFCURVE",
"199 168 OFFCURVE",
"149 345 OFFCURVE",
"167 449 QCURVE SMOOTH",
"180 522 OFFCURVE",
"244 656 OFFCURVE",
"337 768 OFFCURVE",
"456 856 OFFCURVE",
"523 883 QCURVE",
"477 910 OFFCURVE",
"410 989 OFFCURVE",
"370 1085 OFFCURVE",
"360 1196 OFFCURVE",
"370 1254 QCURVE SMOOTH",
"386 1345 OFFCURVE",
"486 1501 OFFCURVE",
"632 1615 OFFCURVE",
"812 1680 OFFCURVE",
"909 1680 QCURVE SMOOTH",
"996 1680 OFFCURVE",
"1153 1621 OFFCURVE",
"1264 1511 OFFCURVE",
"1315 1353 OFFCURVE",
"1298 1255 QCURVE SMOOTH",
"1287 1195 OFFCURVE",
"1237 1084 OFFCURVE",
"1163 988 OFFCURVE",
"1069 910 OFFCURVE",
"1014 883 QCURVE",
"1072 856 OFFCURVE",
"1160 768 OFFCURVE",
"1214 655 OFFCURVE",
"1230 521 OFFCURVE",
"1217 448 QCURVE SMOOTH",
"1199 345 OFFCURVE",
"1087 169 OFFCURVE",
"923 40 OFFCURVE",
"719 -32 OFFCURVE",
"607 -32 QCURVE SMOOTH"
);
},
{
closed = 1;
nodes = (
"837 976 OFFCURVE",
"931 1015 OFFCURVE",
"1006 1083 OFFCURVE",
"1059 1176 OFFCURVE",
"1069 1231 QCURVE SMOOTH",
"1079 1286 OFFCURVE",
"1059 1380 OFFCURVE",
"1007 1449 OFFCURVE",
"926 1488 OFFCURVE",
"875 1488 QCURVE SMOOTH",
"824 1488 OFFCURVE",
"730 1449 OFFCURVE",
"653 1380 OFFCURVE",
"601 1286 OFFCURVE",
"591 1231 QCURVE SMOOTH",
"581 1176 OFFCURVE",
"601 1083 OFFCURVE",
"652 1015 OFFCURVE",
"734 976 OFFCURVE",
"785 976 QCURVE SMOOTH"
);
},
{
closed = 1;
nodes = (
"705 185 OFFCURVE",
"814 229 OFFCURVE",
"899 307 OFFCURVE",
"958 413 OFFCURVE",
"969 474 QCURVE SMOOTH",
"980 537 OFFCURVE",
"958 643 OFFCURVE",
"899 721 OFFCURVE",
"806 764 OFFCURVE",
"690 764 OFFCURVE",
"583 721 OFFCURVE",
"496 644 OFFCURVE",
"435 538 OFFCURVE",
"424 474 QCURVE SMOOTH",
"413 413 OFFCURVE",
"434 307 OFFCURVE",
"492 229 OFFCURVE",
"585 185 OFFCURVE",
"645 185 QCURVE SMOOTH"
);
}
);
width = 1226;
},
{
layerId = "FF432E7F-1027-4D02-BFD8-A992D5952530";
paths = (
{
closed = 1;
nodes = (
"495 -32 OFFCURVE",
"322 40 OFFCURVE",
"209 168 OFFCURVE",
"162 342 OFFCURVE",
"180 445 QCURVE SMOOTH",
"193 519 OFFCURVE",
"258 653 OFFCURVE",
"351 766 OFFCURVE",
"472 853 OFFCURVE",
"541 880 QCURVE",
"494 907 OFFCURVE",
"425 986 OFFCURVE",
"383 1083 OFFCURVE",
"372 1196 OFFCURVE",
"383 1256 QCURVE SMOOTH",
"399 1346 OFFCURVE",
"495 1501 OFFCURVE",
"636 1615 OFFCURVE",
"811 1680 OFFCURVE",
"905 1680 QCURVE SMOOTH",
"992 1680 OFFCURVE",
"1144 1620 OFFCURVE",
"1248 1509 OFFCURVE",
"1295 1353 OFFCURVE",
"1278 1257 QCURVE SMOOTH",
"1267 1196 OFFCURVE",
"1215 1082 OFFCURVE",
"1140 985 OFFCURVE",
"1044 906 OFFCURVE",
"988 880 QCURVE",
"1047 853 OFFCURVE",
"1137 765 OFFCURVE",
"1192 652 OFFCURVE",
"1208 518 OFFCURVE",
"1195 444 QCURVE SMOOTH",
"1177 342 OFFCURVE",
"1069 168 OFFCURVE",
"910 40 OFFCURVE",
"712 -32 OFFCURVE",
"603 -32 QCURVE SMOOTH"
);
},
{
closed = 1;
nodes = (
"835 958 OFFCURVE",
"939 1001 OFFCURVE",
"1023 1076 OFFCURVE",
"1081 1179 OFFCURVE",
"1091 1239 QCURVE SMOOTH",
"1102 1299 OFFCURVE",
"1080 1403 OFFCURVE",
"1023 1479 OFFCURVE",
"934 1522 OFFCURVE",
"877 1522 QCURVE SMOOTH",
"820 1522 OFFCURVE",
"717 1479 OFFCURVE",
"633 1403 OFFCURVE",
"575 1299 OFFCURVE",
"564 1239 QCURVE SMOOTH",
"553 1179 OFFCURVE",
"575 1076 OFFCURVE",
"632 1001 OFFCURVE",
"721 958 OFFCURVE",
"778 958 QCURVE SMOOTH"
);
},
{
closed = 1;
nodes = (
"702 146 OFFCURVE",
"822 194 OFFCURVE",
"916 280 OFFCURVE",
"981 396 OFFCURVE",
"993 464 QCURVE SMOOTH",
"1005 533 OFFCURVE",
"980 650 OFFCURVE",
"914 735 OFFCURVE",
"812 783 OFFCURVE",
"747 783 QCURVE SMOOTH",
"683 783 OFFCURVE",
"565 736 OFFCURVE",
"469 651 OFFCURVE",
"402 534 OFFCURVE",
"389 464 QCURVE SMOOTH",
"377 396 OFFCURVE",
"401 280 OFFCURVE",
"465 194 OFFCURVE",
"568 146 OFFCURVE",
"635 146 QCURVE SMOOTH"
);
}
);
width = 1218;
},
{
layerId = "74131A9F-F041-4E04-A4FA-FF748C1727DF";
paths = (
{
closed = 1;
nodes = (
"481 -32 OFFCURVE",
"316 40 OFFCURVE",
"209 166 OFFCURVE",
"166 339 OFFCURVE",
"184 440 QCURVE SMOOTH",
"197 515 OFFCURVE",
"262 650 OFFCURVE",
"357 764 OFFCURVE",
"480 851 OFFCURVE",
"550 877 QCURVE",
"502 903 OFFCURVE",
"430 982 OFFCURVE",
"387 1081 OFFCURVE",
"376 1197 OFFCURVE",
"387 1259 QCURVE SMOOTH",
"403 1348 OFFCURVE",
"495 1502 OFFCURVE",
"629 1615 OFFCURVE",
"797 1680 OFFCURVE",
"887 1680 QCURVE SMOOTH",
"973 1680 OFFCURVE",
"1118 1618 OFFCURVE",
"1216 1506 OFFCURVE",
"1256 1351 OFFCURVE",
"1240 1259 QCURVE SMOOTH",
"1229 1196 OFFCURVE",
"1176 1080 OFFCURVE",
"1098 981 OFFCURVE",
"999 903 OFFCURVE",
"942 877 QCURVE",
"1003 850 OFFCURVE",
"1095 763 OFFCURVE",
"1150 649 OFFCURVE",
"1167 514 OFFCURVE",
"1154 439 QCURVE SMOOTH",
"1136 339 OFFCURVE",
"1032 166 OFFCURVE",
"881 40 OFFCURVE",
"690 -32 OFFCURVE",
"585 -32 QCURVE SMOOTH"
);
},
{
closed = 1;
nodes = (
"819 935 OFFCURVE",
"936 983 OFFCURVE",
"1030 1067 OFFCURVE",
"1095 1182 OFFCURVE",
"1107 1249 QCURVE SMOOTH",
"1119 1316 OFFCURVE",
"1095 1432 OFFCURVE",
"1030 1517 OFFCURVE",
"930 1565 OFFCURVE",
"867 1565 QCURVE SMOOTH",
"804 1565 OFFCURVE",
"687 1517 OFFCURVE",
"593 1432 OFFCURVE",
"528 1316 OFFCURVE",
"516 1249 QCURVE SMOOTH",
"504 1182 OFFCURVE",
"529 1067 OFFCURVE",
"593 983 OFFCURVE",
"693 935 OFFCURVE",
"756 935 QCURVE SMOOTH"
);
},
{
closed = 1;
nodes = (
"683 97 OFFCURVE",
"818 151 OFFCURVE",
"924 246 OFFCURVE",
"997 375 OFFCURVE",
"1010 451 QCURVE SMOOTH",
"1024 528 OFFCURVE",
"995 658 OFFCURVE",
"922 752 OFFCURVE",
"807 806 OFFCURVE",
"733 806 QCURVE SMOOTH",
"661 806 OFFCURVE",
"528 753 OFFCURVE",
"421 659 OFFCURVE",
"346 529 OFFCURVE",
"332 451 QCURVE SMOOTH",
"319 375 OFFCURVE",
"346 246 OFFCURVE",
"419 151 OFFCURVE",
"534 97 OFFCURVE",
"608 97 QCURVE SMOOTH"
);
}
);
width = 1182;
},
{
layerId = "4B953CDD-5CE3-4322-8A9F-D31267D1A9B5";
paths = (
{
closed = 1;
nodes = (
"471 -32 OFFCURVE",
"312 40 OFFCURVE",
"208 166 OFFCURVE",
"169 337 OFFCURVE",
"186 436 QCURVE SMOOTH",
"199 511 OFFCURVE",
"264 648 OFFCURVE",
"361 762 OFFCURVE",
"485 849 OFFCURVE",
"556 875 QCURVE",
"507 901 OFFCURVE",
"434 980 OFFCURVE",
"390 1080 OFFCURVE",
"377 1197 OFFCURVE",
"388 1261 QCURVE SMOOTH",
"404 1349 OFFCURVE",
"493 1502 OFFCURVE",
"624 1615 OFFCURVE",
"786 1680 OFFCURVE",
"874 1680 QCURVE SMOOTH",
"960 1680 OFFCURVE",
"1100 1617 OFFCURVE",
"1192 1504 OFFCURVE",
"1229 1351 OFFCURVE",
"1213 1261 QCURVE SMOOTH",
"1202 1197 OFFCURVE",
"1148 1079 OFFCURVE",
"1069 979 OFFCURVE",
"967 900 OFFCURVE",
"909 875 QCURVE",
"971 849 OFFCURVE",
"1064 761 OFFCURVE",
"1121 647 OFFCURVE",
"1138 511 OFFCURVE",
"1124 436 QCURVE SMOOTH",
"1107 337 OFFCURVE",
"1007 166 OFFCURVE",
"859 40 OFFCURVE",
"674 -32 OFFCURVE",
"572 -32 QCURVE SMOOTH"
);
},
{
closed = 1;
nodes = (
"808 919 OFFCURVE",
"933 970 OFFCURVE",
"1034 1060 OFFCURVE",
"1104 1183 OFFCURVE",
"1117 1256 QCURVE SMOOTH",
"1130 1328 OFFCURVE",
"1103 1452 OFFCURVE",
"1034 1542 OFFCURVE",
"927 1594 OFFCURVE",
"859 1594 QCURVE SMOOTH",
"791 1594 OFFCURVE",
"667 1542 OFFCURVE",
"566 1452 OFFCURVE",
"496 1328 OFFCURVE",
"483 1256 QCURVE SMOOTH",
"470 1183 OFFCURVE",
"496 1060 OFFCURVE",
"565 970 OFFCURVE",
"672 919 OFFCURVE",
"740 919 QCURVE SMOOTH"
);
},
{
closed = 1;
nodes = (
"669 63 OFFCURVE",
"813 121 OFFCURVE",
"928 222 OFFCURVE",
"1006 361 OFFCURVE",
"1020 442 QCURVE SMOOTH",
"1034 524 OFFCURVE",
"1005 663 OFFCURVE",
"925 765 OFFCURVE",
"801 822 OFFCURVE",
"723 822 QCURVE SMOOTH",
"646 822 OFFCURVE",
"503 765 OFFCURVE",
"387 664 OFFCURVE",
"307 525 OFFCURVE",
"292 442 QCURVE SMOOTH",
"278 361 OFFCURVE",
"307 222 OFFCURVE",
"385 121 OFFCURVE",
"509 63 OFFCURVE",
"589 63 QCURVE SMOOTH"
);
}
);
width = 1156;
},
{
layerId = "E14BD65A-535D-455D-BD93-03DF5D4D66A0";
paths = (
{
closed = 1;
nodes = (
"468 -32 OFFCURVE",
"313 40 OFFCURVE",
"213 165 OFFCURVE",
"176 335 OFFCURVE",
"193 433 QCURVE SMOOTH",
"206 509 OFFCURVE",
"272 646 OFFCURVE",
"369 760 OFFCURVE",
"494 847 OFFCURVE",
"566 873 QCURVE",
"516 898 OFFCURVE",
"440 977 OFFCURVE",
"396 1078 OFFCURVE",
"383 1197 OFFCURVE",
"395 1262 QCURVE SMOOTH",
"411 1350 OFFCURVE",
"498 1502 OFFCURVE",
"624 1615 OFFCURVE",
"784 1680 OFFCURVE",
"870 1680 QCURVE SMOOTH",
"956 1680 OFFCURVE",
"1092 1616 OFFCURVE",
"1179 1503 OFFCURVE",
"1214 1351 OFFCURVE",
"1198 1262 QCURVE SMOOTH",
"1187 1197 OFFCURVE",
"1132 1078 OFFCURVE",
"1052 977 OFFCURVE",
"949 898 OFFCURVE",
"890 873 QCURVE",
"953 847 OFFCURVE",
"1047 760 OFFCURVE",
"1104 646 OFFCURVE",
"1121 509 OFFCURVE",
"1108 433 QCURVE SMOOTH",
"1091 335 OFFCURVE",
"993 165 OFFCURVE",
"849 40 OFFCURVE",
"668 -32 OFFCURVE",
"568 -32 QCURVE SMOOTH"
);
},
{
closed = 1;
nodes = (
"806 907 OFFCURVE",
"937 960 OFFCURVE",
"1043 1055 OFFCURVE",
"1116 1185 OFFCURVE",
"1129 1261 QCURVE SMOOTH",
"1142 1337 OFFCURVE",
"1115 1467 OFFCURVE",
"1043 1562 OFFCURVE",
"931 1616 OFFCURVE",
"859 1616 QCURVE SMOOTH",
"788 1616 OFFCURVE",
"657 1562 OFFCURVE",
"551 1467 OFFCURVE",
"478 1337 OFFCURVE",
"464 1261 QCURVE SMOOTH",
"451 1185 OFFCURVE",
"478 1055 OFFCURVE",
"550 960 OFFCURVE",
"662 907 OFFCURVE",
"734 907 QCURVE SMOOTH"
);
},
{
closed = 1;
nodes = (
"665 37 OFFCURVE",
"816 98 OFFCURVE",
"937 205 OFFCURVE",
"1019 350 OFFCURVE",
"1034 435 QCURVE SMOOTH",
"1049 521 OFFCURVE",
"1017 667 OFFCURVE",
"933 774 OFFCURVE",
"804 834 OFFCURVE",
"721 834 QCURVE SMOOTH",
"640 834 OFFCURVE",
"489 775 OFFCURVE",
"367 668 OFFCURVE",
"283 522 OFFCURVE",
"268 435 QCURVE SMOOTH",
"253 350 OFFCURVE",
"284 205 OFFCURVE",
"366 98 OFFCURVE",
"497 37 OFFCURVE",
"581 37 QCURVE SMOOTH"
);
}
);
width = 1148;
},
{
layerId = "E447CA33-FCF6-431B-A31E-579E9AB2C071";
paths = (
{
closed = 1;
nodes = (
"469 -32 OFFCURVE",
"317 40 OFFCURVE",
"220 164 OFFCURVE",
"183 334 OFFCURVE",
"200 431 QCURVE SMOOTH",
"213 507 OFFCURVE",
"279 645 OFFCURVE",
"377 759 OFFCURVE",
"503 846 OFFCURVE",
"575 872 QCURVE",
"524 897 OFFCURVE",
"448 976 OFFCURVE",
"404 1077 OFFCURVE",
"391 1197 OFFCURVE",
"402 1263 QCURVE SMOOTH",
"417 1350 OFFCURVE",
"503 1503 OFFCURVE",
"628 1615 OFFCURVE",
"785 1680 OFFCURVE",
"870 1680 QCURVE SMOOTH",
"956 1680 OFFCURVE",
"1089 1615 OFFCURVE",
"1175 1503 OFFCURVE",
"1206 1350 OFFCURVE",
"1191 1263 QCURVE SMOOTH",
"1179 1197 OFFCURVE",
"1124 1077 OFFCURVE",
"1044 976 OFFCURVE",
"940 897 OFFCURVE",
"880 872 QCURVE",
"944 846 OFFCURVE",
"1039 759 OFFCURVE",
"1096 645 OFFCURVE",
"1113 507 OFFCURVE",
"1100 431 QCURVE SMOOTH",
"1083 334 OFFCURVE",
"986 164 OFFCURVE",
"845 40 OFFCURVE",
"667 -32 OFFCURVE",
"568 -32 QCURVE SMOOTH"
);
},
{
closed = 1;
nodes = (
"663 20 OFFCURVE",
"821 83 OFFCURVE",
"946 193 OFFCURVE",
"1031 343 OFFCURVE",
"1046 430 QCURVE SMOOTH",
"1062 519 OFFCURVE",
"1029 670 OFFCURVE",
"942 780 OFFCURVE",
"808 842 OFFCURVE",
"722 842 QCURVE SMOOTH",
"638 842 OFFCURVE",
"483 781 OFFCURVE",
"356 671 OFFCURVE",
"270 521 OFFCURVE",
"254 431 QCURVE SMOOTH",
"238 343 OFFCURVE",
"270 193 OFFCURVE",
"356 83 OFFCURVE",
"491 20 OFFCURVE",
"577 20 QCURVE SMOOTH"
);
},
{
closed = 1;
nodes = (
"806 899 OFFCURVE",
"942 954 OFFCURVE",
"1050 1052 OFFCURVE",
"1126 1185 OFFCURVE",
"1140 1264 QCURVE SMOOTH",
"1154 1342 OFFCURVE",
"1125 1477 OFFCURVE",
"1051 1575 OFFCURVE",
"935 1631 OFFCURVE",
"861 1631 QCURVE SMOOTH",
"788 1631 OFFCURVE",
"653 1575 OFFCURVE",
"543 1477 OFFCURVE",
"467 1342 OFFCURVE",
"454 1264 QCURVE SMOOTH",
"440 1185 OFFCURVE",
"468 1052 OFFCURVE",
"542 954 OFFCURVE",
"659 899 OFFCURVE",
"732 899 QCURVE SMOOTH"
);
}
);
width = 1147;
}
);
unicode = 0038;
},
{
color = (255, 153, 153, 255);
glyphname = nine;
layers = (
{
layerId = "AE9DFD7C-61AF-45F8-BC87-08C480261DD9";
paths = (
{
closed = 1;
nodes = (
"166 0 LINE",
"698 552 LINE",
"682 545 OFFCURVE",
"634 538 OFFCURVE",
"608 538 QCURVE SMOOTH",
"520 538 OFFCURVE",
"362 620 OFFCURVE",
"253 770 OFFCURVE",
"207 981 OFFCURVE",
"229 1109 QCURVE SMOOTH",
"250 1226 OFFCURVE",
"362 1434 OFFCURVE",
"536 1590 OFFCURVE",
"768 1680 OFFCURVE",
"908 1680 QCURVE SMOOTH",
"1052 1680 OFFCURVE",
"1269 1585 OFFCURVE",
"1405 1421 OFFCURVE",
"1454 1201 OFFCURVE",
"1433 1077 QCURVE SMOOTH",
"1378 765 OFFCURVE",
"1041 406 QCURVE SMOOTH",
"660 0 LINE"
);
},
{
closed = 1;
nodes = (
"834 914 OFFCURVE",
"906 945 OFFCURVE",
"965 999 OFFCURVE",
"1006 1073 OFFCURVE",
"1014 1117 QCURVE SMOOTH",
"1022 1161 OFFCURVE",
"1006 1234 OFFCURVE",
"967 1286 OFFCURVE",
"905 1316 OFFCURVE",
"865 1316 QCURVE SMOOTH",
"825 1316 OFFCURVE",
"751 1286 OFFCURVE",
"691 1233 OFFCURVE",
"649 1160 OFFCURVE",
"642 1117 QCURVE SMOOTH",
"634 1074 OFFCURVE",
"650 999 OFFCURVE",
"690 945 OFFCURVE",
"754 914 OFFCURVE",
"794 914 QCURVE SMOOTH"
);
}
);
width = 1274;
},
{
layerId = "801DDF57-AF28-491E-9007-7F83CAB295FA";
paths = (
{
closed = 1;
nodes = (
"203 0 LINE",
"750 567 LINE",
"726 554 OFFCURVE",
"663 541 OFFCURVE",
"631 541 QCURVE SMOOTH",
"570 541 OFFCURVE",
"456 578 OFFCURVE",
"361 649 OFFCURVE",
"285 749 OFFCURVE",
"241 876 OFFCURVE",
"229 1026 OFFCURVE",
"244 1111 QCURVE SMOOTH",
"265 1229 OFFCURVE",
"378 1436 OFFCURVE",
"551 1591 OFFCURVE",
"779 1680 OFFCURVE",
"915 1680 QCURVE SMOOTH",
"1054 1680 OFFCURVE",
"1263 1587 OFFCURVE",
"1394 1425 OFFCURVE",
"1442 1208 OFFCURVE",
"1421 1085 QCURVE SMOOTH",
"1368 787 OFFCURVE",
"1060 461 QCURVE SMOOTH",
"627 0 LINE"
);
},
{
closed = 1;
nodes = (
"836 864 OFFCURVE",
"927 903 OFFCURVE",
"1002 971 OFFCURVE",
"1053 1064 OFFCURVE",
"1063 1118 QCURVE SMOOTH",
"1073 1172 OFFCURVE",
"1054 1264 OFFCURVE",
"1004 1330 OFFCURVE",
"926 1367 OFFCURVE",
"876 1367 QCURVE SMOOTH",
"826 1367 OFFCURVE",
"733 1330 OFFCURVE",
"658 1263 OFFCURVE",
"606 1172 OFFCURVE",
"597 1118 QCURVE SMOOTH",
"587 1064 OFFCURVE",
"607 971 OFFCURVE",
"658 903 OFFCURVE",
"737 864 OFFCURVE",
"787 864 QCURVE SMOOTH"
);
}
);
width = 1277;
},
{
layerId = "7828A6CD-C6F9-4202-83DF-9F2979E44CC9";
paths = (
{
closed = 1;
nodes = (
"239 0 LINE",
"800 583 LINE",
"769 564 OFFCURVE",
"691 544 OFFCURVE",
"651 544 QCURVE SMOOTH",
"555 544 OFFCURVE",
"390 628 OFFCURVE",
"279 778 OFFCURVE",
"233 988 OFFCURVE",
"256 1114 QCURVE SMOOTH",
"277 1233 OFFCURVE",
"390 1439 OFFCURVE",
"561 1592 OFFCURVE",
"785 1680 OFFCURVE",
"916 1680 QCURVE SMOOTH",
"1050 1680 OFFCURVE",
"1252 1589 OFFCURVE",
"1379 1430 OFFCURVE",
"1426 1216 OFFCURVE",
"1404 1093 QCURVE SMOOTH",
"1379 954 OFFCURVE",
"1216 666 OFFCURVE",
"1078 520 QCURVE SMOOTH",
"586 0 LINE"
);
},
{
closed = 1;
nodes = (
"835 810 OFFCURVE",
"946 858 OFFCURVE",
"1036 942 OFFCURVE",
"1100 1055 OFFCURVE",
"1111 1119 QCURVE SMOOTH",
"1123 1185 OFFCURVE",
"1100 1296 OFFCURVE",
"1040 1377 OFFCURVE",
"945 1422 OFFCURVE",
"884 1422 QCURVE SMOOTH",
"823 1422 OFFCURVE",
"710 1377 OFFCURVE",
"619 1296 OFFCURVE",
"556 1185 OFFCURVE",
"545 1119 QCURVE SMOOTH",
"533 1053 OFFCURVE",
"557 940 OFFCURVE",
"619 857 OFFCURVE",
"716 810 OFFCURVE",
"776 810 QCURVE SMOOTH"
);
}
);
width = 1279;
},
{
layerId = "E014D827-045C-4C5E-9112-DAAA2F08F96E";
paths = (
{
closed = 1;
nodes = (
"280 0 LINE",
"854 596 LINE",
"815 572 OFFCURVE",
"725 546 OFFCURVE",
"679 546 QCURVE SMOOTH",
"579 546 OFFCURVE",
"412 630 OFFCURVE",
"300 782 OFFCURVE",
"255 991 OFFCURVE",
"277 1116 QCURVE SMOOTH",
"298 1235 OFFCURVE",
"411 1441 OFFCURVE",
"582 1593 OFFCURVE",
"802 1680 OFFCURVE",
"929 1680 QCURVE SMOOTH",
"1057 1680 OFFCURVE",
"1253 1591 OFFCURVE",
"1378 1435 OFFCURVE",
"1423 1223 OFFCURVE",
"1401 1100 QCURVE SMOOTH",
"1378 969 OFFCURVE",
"1229 701 OFFCURVE",
"1104 570 QCURVE SMOOTH",
"563 0 LINE"
);
},
{
closed = 1;
nodes = (
"844 764 OFFCURVE",
"972 820 OFFCURVE",
"1077 916 OFFCURVE",
"1150 1046 OFFCURVE",
"1163 1120 QCURVE SMOOTH",
"1176 1196 OFFCURVE",
"1150 1323 OFFCURVE",
"1081 1416 OFFCURVE",
"972 1468 OFFCURVE",
"902 1468 QCURVE SMOOTH",
"831 1468 OFFCURVE",
"702 1416 OFFCURVE",
"597 1323 OFFCURVE",
"525 1195 OFFCURVE",
"512 1120 QCURVE SMOOTH",
"499 1044 OFFCURVE",
"526 914 OFFCURVE",
"596 818 OFFCURVE",
"707 764 OFFCURVE",
"777 764 QCURVE SMOOTH"
);
}
);
width = 1287;
},
{
layerId = "FF432E7F-1027-4D02-BFD8-A992D5952530";
paths = (
{
closed = 1;
nodes = (
"310 0 LINE",
"894 607 LINE",
"850 578 OFFCURVE",
"749 548 OFFCURVE",
"698 548 QCURVE SMOOTH",
"596 548 OFFCURVE",
"427 633 OFFCURVE",
"314 785 OFFCURVE",
"269 994 OFFCURVE",
"291 1118 QCURVE SMOOTH",
"312 1237 OFFCURVE",
"426 1443 OFFCURVE",
"595 1594 OFFCURVE",
"812 1680 OFFCURVE",
"936 1680 QCURVE SMOOTH",
"1061 1680 OFFCURVE",
"1252 1592 OFFCURVE",
"1373 1438 OFFCURVE",
"1418 1227 OFFCURVE",
"1396 1105 QCURVE SMOOTH",
"1374 981 OFFCURVE",
"1235 729 OFFCURVE",
"1122 610 QCURVE SMOOTH",
"541 0 LINE"
);
},
{
closed = 1;
nodes = (
"849 728 OFFCURVE",
"991 790 OFFCURVE",
"1106 896 OFFCURVE",
"1188 1040 OFFCURVE",
"1202 1121 QCURVE SMOOTH",
"1217 1205 OFFCURVE",
"1189 1346 OFFCURVE",
"1112 1448 OFFCURVE",
"991 1505 OFFCURVE",
"835 1505 OFFCURVE",
"692 1447 OFFCURVE",
"577 1345 OFFCURVE",
"498 1204 OFFCURVE",
"483 1121 QCURVE SMOOTH",
"468 1037 OFFCURVE",
"498 893 OFFCURVE",
"577 788 OFFCURVE",
"699 728 OFFCURVE",
"776 728 QCURVE SMOOTH"
);
}
);
width = 1295;
},
{
layerId = "74131A9F-F041-4E04-A4FA-FF748C1727DF";
paths = (
{
closed = 1;
nodes = (
"333 0 LINE",
"929 621 LINE",
"878 587 OFFCURVE",
"764 550 OFFCURVE",
"707 550 QCURVE SMOOTH",
"601 550 OFFCURVE",
"428 636 OFFCURVE",
"315 788 OFFCURVE",
"270 997 OFFCURVE",
"292 1120 QCURVE SMOOTH",
"313 1240 OFFCURVE",
"428 1445 OFFCURVE",
"596 1595 OFFCURVE",
"809 1680 OFFCURVE",
"929 1680 QCURVE SMOOTH",
"1049 1680 OFFCURVE",
"1235 1594 OFFCURVE",
"1351 1442 OFFCURVE",
"1395 1234 OFFCURVE",
"1373 1112 QCURVE SMOOTH",
"1353 997 OFFCURVE",
"1228 764 OFFCURVE",
"1129 660 QCURVE SMOOTH",
"499 0 LINE"
);
},
{
closed = 1;
nodes = (
"841 682 OFFCURVE",
"998 751 OFFCURVE",
"1128 871 OFFCURVE",
"1219 1031 OFFCURVE",
"1235 1122 QCURVE SMOOTH",
"1251 1215 OFFCURVE",
"1220 1373 OFFCURVE",
"1133 1487 OFFCURVE",
"999 1551 OFFCURVE",
"825 1551 OFFCURVE",
"664 1486 OFFCURVE",
"536 1372 OFFCURVE",
"447 1215 OFFCURVE",
"430 1122 QCURVE SMOOTH",
"413 1028 OFFCURVE",
"447 867 OFFCURVE",
"535 749 OFFCURVE",
"673 682 OFFCURVE",
"759 682 QCURVE SMOOTH"
);
}
);
width = 1270;
},
{
layerId = "4B953CDD-5CE3-4322-8A9F-D31267D1A9B5";
paths = (
{
closed = 1;
nodes = (
"360 0 LINE",
"964 630 LINE",
"909 592 OFFCURVE",
"787 552 OFFCURVE",
"725 552 QCURVE SMOOTH",
"616 552 OFFCURVE",
"442 638 OFFCURVE",
"328 790 OFFCURVE",
"284 999 OFFCURVE",
"306 1121 QCURVE SMOOTH",
"327 1241 OFFCURVE",
"442 1446 OFFCURVE",
"610 1595 OFFCURVE",
"820 1680 OFFCURVE",
"937 1680 QCURVE SMOOTH",
"1054 1680 OFFCURVE",
"1235 1595 OFFCURVE",
"1349 1445 OFFCURVE",
"1392 1239 OFFCURVE",
"1370 1117 QCURVE SMOOTH",
"1351 1007 OFFCURVE",
"1235 789 OFFCURVE",
"1146 695 QCURVE SMOOTH",
"482 0 LINE"
);
},
{
closed = 1;
nodes = (
"847 651 OFFCURVE",
"1016 726 OFFCURVE",
"1155 854 OFFCURVE",
"1254 1026 OFFCURVE",
"1271 1123 QCURVE SMOOTH",
"1289 1223 OFFCURVE",
"1254 1392 OFFCURVE",
"1161 1514 OFFCURVE",
"1016 1583 OFFCURVE",
"923 1583 QCURVE SMOOTH",
"829 1583 OFFCURVE",
"657 1514 OFFCURVE",
"519 1391 OFFCURVE",
"424 1222 OFFCURVE",
"407 1123 QCURVE SMOOTH",
"389 1022 OFFCURVE",
"424 849 OFFCURVE",
"519 723 OFFCURVE",
"666 651 OFFCURVE",
"759 651 QCURVE SMOOTH"
);
}
);
width = 1281;
},
{
layerId = "E14BD65A-535D-455D-BD93-03DF5D4D66A0";
paths = (
{
closed = 1;
nodes = (
"376 0 LINE",
"987 637 LINE",
"929 596 OFFCURVE",
"799 553 OFFCURVE",
"735 553 QCURVE SMOOTH",
"624 553 OFFCURVE",
"448 640 OFFCURVE",
"334 792 OFFCURVE",
"290 1001 OFFCURVE",
"312 1122 QCURVE SMOOTH",
"333 1242 OFFCURVE",
"448 1447 OFFCURVE",
"615 1596 OFFCURVE",
"824 1680 OFFCURVE",
"938 1680 QCURVE SMOOTH",
"1052 1680 OFFCURVE",
"1230 1596 OFFCURVE",
"1343 1447 OFFCURVE",
"1385 1242 OFFCURVE",
"1363 1121 QCURVE SMOOTH",
"1344 1015 OFFCURVE",
"1236 807 OFFCURVE",
"1154 721 QCURVE SMOOTH",
"464 0 LINE"
);
},
{
closed = 1;
nodes = (
"845 627 OFFCURVE",
"1024 706 OFFCURVE",
"1171 841 OFFCURVE",
"1274 1021 OFFCURVE",
"1292 1123 QCURVE SMOOTH",
"1311 1228 OFFCURVE",
"1274 1406 OFFCURVE",
"1177 1535 OFFCURVE",
"1024 1607 OFFCURVE",
"926 1607 QCURVE SMOOTH",
"827 1607 OFFCURVE",
"647 1534 OFFCURVE",
"502 1405 OFFCURVE",
"402 1228 OFFCURVE",
"383 1123 QCURVE SMOOTH",
"364 1017 OFFCURVE",
"403 836 OFFCURVE",
"502 703 OFFCURVE",
"655 627 OFFCURVE",
"753 627 QCURVE SMOOTH"
);
}
);
width = 1279;
},
{
layerId = "E447CA33-FCF6-431B-A31E-579E9AB2C071";
paths = (
{
closed = 1;
nodes = (
"393 0 LINE",
"1008 642 LINE",
"947 599 OFFCURVE",
"814 554 OFFCURVE",
"747 554 QCURVE SMOOTH",
"635 554 OFFCURVE",
"458 641 OFFCURVE",
"344 794 OFFCURVE",
"300 1002 OFFCURVE",
"322 1123 QCURVE SMOOTH",
"343 1243 OFFCURVE",
"458 1448 OFFCURVE",
"625 1596 OFFCURVE",
"832 1680 OFFCURVE",
"1058 1680 OFFCURVE",
"1233 1597 OFFCURVE",
"1345 1448 OFFCURVE",
"1387 1244 OFFCURVE",
"1365 1123 QCURVE SMOOTH",
"1347 1020 OFFCURVE",
"1243 819 OFFCURVE",
"1165 738 QCURVE SMOOTH",
"459 0 LINE"
);
},
{
closed = 1;
nodes = (
"852 611 OFFCURVE",
"1036 693 OFFCURVE",
"1187 832 OFFCURVE",
"1294 1018 OFFCURVE",
"1312 1123 QCURVE SMOOTH",
"1331 1232 OFFCURVE",
"1294 1415 OFFCURVE",
"1194 1548 OFFCURVE",
"1037 1623 OFFCURVE",
"935 1623 QCURVE SMOOTH",
"834 1623 OFFCURVE",
"647 1548 OFFCURVE",
"498 1414 OFFCURVE",
"394 1231 OFFCURVE",
"375 1123 QCURVE SMOOTH",
"356 1014 OFFCURVE",
"394 827 OFFCURVE",
"497 689 OFFCURVE",
"657 611 OFFCURVE",
"757 611 QCURVE SMOOTH"
);
}
);
width = 1290;
}
);
unicode = 0039;
},
{
glyphname = less;
layers = (
{
layerId = "AE9DFD7C-61AF-45F8-BC87-08C480261DD9";
paths = (
{
closed = 1;
nodes = (
"1191 270 LINE",
"251 694 LINE",
"299 970 LINE",
"1390 1394 LINE",
"1331 1064 LINE",
"686 832 LINE",
"1250 600 LINE"
);
}
);
width = 1245;
},
{
layerId = "801DDF57-AF28-491E-9007-7F83CAB295FA";
paths = (
{
closed = 1;
nodes = (
"1171 270 LINE",
"234 714 LINE",
"276 950 LINE",
"1370 1394 LINE",
"1320 1110 LINE",
"607 832 LINE",
"1222 554 LINE"
);
}
);
width = 1223;
},
{
layerId = "7828A6CD-C6F9-4202-83DF-9F2979E44CC9";
paths = (
{
closed = 1;
nodes = (
"1127 270 LINE",
"193 736 LINE",
"226 928 LINE",
"1325 1394 LINE",
"1284 1159 LINE",
"499 832 LINE",
"1168 505 LINE"
);
}
);
width = 1204;
},
{
layerId = "E014D827-045C-4C5E-9112-DAAA2F08F96E";
paths = (
{
closed = 1;
nodes = (
"1132 270 LINE",
"201 754 LINE",
"229 910 LINE",
"1331 1394 LINE",
"1297 1201 LINE",
"450 832 LINE",
"1166 463 LINE"
);
}
);
width = 1178;
},
{
layerId = "FF432E7F-1027-4D02-BFD8-A992D5952530";
paths = (
{
closed = 1;
nodes = (
"1146 270 LINE",
"217 768 LINE",
"240 896 LINE",
"1344 1394 LINE",
"1316 1234 LINE",
"421 832 LINE",
"1174 430 LINE"
);
}
);
width = 1206;
},
{
layerId = "74131A9F-F041-4E04-A4FA-FF748C1727DF";
paths = (
{
closed = 1;
nodes = (
"1079 270 LINE",
"153 786 LINE",
"169 878 LINE",
"1277 1394 LINE",
"1256 1275 LINE",
"300 832 LINE",
"1100 389 LINE"
);
}
);
width = 1104;
},
{
layerId = "4B953CDD-5CE3-4322-8A9F-D31267D1A9B5";
paths = (
{
closed = 1;
nodes = (
"1093 270 LINE",
"169 799 LINE",
"181 865 LINE",
"1291 1394 LINE",
"1276 1304 LINE",
"277 832 LINE",
"1109 360 LINE"
);
}
);
width = 1133;
},
{
layerId = "E14BD65A-535D-455D-BD93-03DF5D4D66A0";
paths = (
{
closed = 1;
nodes = (
"1063 270 LINE",
"141 808 LINE",
"149 856 LINE",
"1261 1394 LINE",
"1249 1326 LINE",
"219 832 LINE",
"1075 338 LINE"
);
}
);
width = 1092;
},
{
layerId = "E447CA33-FCF6-431B-A31E-579E9AB2C071";
paths = (
{
closed = 1;
nodes = (
"1073 270 LINE",
"152 814 LINE",
"158 850 LINE",
"1271 1394 LINE",
"1262 1340 LINE",
"211 832 LINE",
"1083 324 LINE"
);
}
);
width = 1112;
}
);
unicode = 003C;
},
{
glyphname = equal;
layers = (
{
layerId = "AE9DFD7C-61AF-45F8-BC87-08C480261DD9";
paths = (
{
closed = 1;
nodes = (
"263 904 LINE",
"327 1264 LINE",
"1279 1264 LINE",
"1215 904 LINE"
);
},
{
closed = 1;
nodes = (
"174 398 LINE",
"237 758 LINE",
"1190 758 LINE",
"1126 398 LINE"
);
}
);
width = 1159;
},
{
layerId = "801DDF57-AF28-491E-9007-7F83CAB295FA";
paths = (
{
closed = 1;
nodes = (
"270 918 LINE",
"324 1226 LINE",
"1277 1226 LINE",
"1222 918 LINE"
);
},
{
closed = 1;
nodes = (
"185 435 LINE",
"239 743 LINE",
"1192 743 LINE",
"1137 435 LINE"
);
}
);
width = 1168;
},
{
layerId = "7828A6CD-C6F9-4202-83DF-9F2979E44CC9";
paths = (
{
closed = 1;
nodes = (
"277 933 LINE",
"322 1185 LINE",
"1274 1185 LINE",
"1230 933 LINE"
);
},
{
closed = 1;
nodes = (
"197 475 LINE",
"241 727 LINE",
"1193 727 LINE",
"1149 475 LINE"
);
}
);
width = 1177;
},
{
layerId = "E014D827-045C-4C5E-9112-DAAA2F08F96E";
paths = (
{
closed = 1;
nodes = (
"283 946 LINE",
"319 1151 LINE",
"1272 1151 LINE",
"1236 946 LINE"
);
},
{
closed = 1;
nodes = (
"206 509 LINE",
"242 714 LINE",
"1195 714 LINE",
"1159 509 LINE"
);
}
);
width = 1185;
},
{
layerId = "FF432E7F-1027-4D02-BFD8-A992D5952530";
paths = (
{
closed = 1;
nodes = (
"300 956 LINE",
"329 1124 LINE",
"1282 1124 LINE",
"1252 956 LINE"
);
},
{
closed = 1;
nodes = (
"226 536 LINE",
"255 704 LINE",
"1207 704 LINE",
"1178 536 LINE"
);
}
);
width = 1214;
},
{
layerId = "74131A9F-F041-4E04-A4FA-FF748C1727DF";
paths = (
{
closed = 1;
nodes = (
"281 968 LINE",
"302 1089 LINE",
"1254 1089 LINE",
"1233 968 LINE"
);
},
{
closed = 1;
nodes = (
"211 570 LINE",
"232 691 LINE",
"1184 691 LINE",
"1163 570 LINE"
);
}
);
width = 1172;
},
{
layerId = "4B953CDD-5CE3-4322-8A9F-D31267D1A9B5";
paths = (
{
closed = 1;
nodes = (
"296 977 LINE",
"312 1065 LINE",
"1264 1065 LINE",
"1248 977 LINE"
);
},
{
closed = 1;
nodes = (
"228 593 LINE",
"244 681 LINE",
"1196 681 LINE",
"1181 593 LINE"
);
}
);
width = 1199;
},
{
layerId = "E14BD65A-535D-455D-BD93-03DF5D4D66A0";
paths = (
{
closed = 1;
nodes = (
"292 984 LINE",
"303 1048 LINE",
"1255 1048 LINE",
"1244 984 LINE"
);
},
{
closed = 1;
nodes = (
"226 610 LINE",
"237 674 LINE",
"1189 674 LINE",
"1178 610 LINE"
);
}
);
width = 1188;
},
{
layerId = "E447CA33-FCF6-431B-A31E-579E9AB2C071";
paths = (
{
closed = 1;
nodes = (
"303 988 LINE",
"311 1036 LINE",
"1263 1036 LINE",
"1255 988 LINE"
);
},
{
closed = 1;
nodes = (
"238 622 LINE",
"246 670 LINE",
"1199 670 LINE",
"1190 622 LINE"
);
}
);
width = 1208;
}
);
unicode = 003D;
},
{
glyphname = greater;
layers = (
{
layerId = "AE9DFD7C-61AF-45F8-BC87-08C480261DD9";
paths = (
{
closed = 1;
nodes = (
"148 270 LINE",
"206 600 LINE",
"851 832 LINE",
"288 1064 LINE",
"346 1394 LINE",
"1287 970 LINE",
"1238 694 LINE"
);
}
);
width = 1243;
},
{
layerId = "801DDF57-AF28-491E-9007-7F83CAB295FA";
paths = (
{
closed = 1;
nodes = (
"148 270 LINE",
"198 554 LINE",
"911 832 LINE",
"296 1110 LINE",
"346 1394 LINE",
"1283 950 LINE",
"1242 714 LINE"
);
}
);
width = 1223;
},
{
layerId = "7828A6CD-C6F9-4202-83DF-9F2979E44CC9";
paths = (
{
closed = 1;
nodes = (
"173 270 LINE",
"215 505 LINE",
"1000 832 LINE",
"330 1159 LINE",
"371 1394 LINE",
"1306 928 LINE",
"1272 736 LINE"
);
}
);
width = 1204;
},
{
layerId = "E014D827-045C-4C5E-9112-DAAA2F08F96E";
paths = (
{
closed = 1;
nodes = (
"141 270 LINE",
"175 463 LINE",
"1022 832 LINE",
"305 1201 LINE",
"340 1394 LINE",
"1271 910 LINE",
"1243 754 LINE"
);
}
);
width = 1178;
},
{
layerId = "FF432E7F-1027-4D02-BFD8-A992D5952530";
paths = (
{
closed = 1;
nodes = (
"155 270 LINE",
"183 430 LINE",
"1078 832 LINE",
"325 1234 LINE",
"353 1394 LINE",
"1282 896 LINE",
"1259 768 LINE"
);
}
);
width = 1206;
},
{
layerId = "74131A9F-F041-4E04-A4FA-FF748C1727DF";
paths = (
{
closed = 1;
nodes = (
"122 270 LINE",
"143 389 LINE",
"1099 832 LINE",
"299 1275 LINE",
"320 1394 LINE",
"1246 878 LINE",
"1230 786 LINE"
);
}
);
width = 1104;
},
{
layerId = "4B953CDD-5CE3-4322-8A9F-D31267D1A9B5";
paths = (
{
closed = 1;
nodes = (
"136 270 LINE",
"152 360 LINE",
"1150 832 LINE",
"318 1304 LINE",
"334 1394 LINE",
"1257 865 LINE",
"1246 799 LINE"
);
}
);
width = 1132;
},
{
layerId = "E14BD65A-535D-455D-BD93-03DF5D4D66A0";
paths = (
{
closed = 1;
nodes = (
"124 270 LINE",
"136 338 LINE",
"1166 832 LINE",
"310 1326 LINE",
"322 1394 LINE",
"1244 856 LINE",
"1235 808 LINE"
);
}
);
width = 1091;
},
{
layerId = "E447CA33-FCF6-431B-A31E-579E9AB2C071";
paths = (
{
closed = 1;
nodes = (
"134 270 LINE",
"144 324 LINE",
"1195 832 LINE",
"323 1340 LINE",
"332 1394 LINE",
"1254 850 LINE",
"1247 814 LINE"
);
}
);
width = 1112;
}
);
unicode = 003E;
},
{
color = (255, 153, 153, 255);
glyphname = question;
layers = (
{
layerId = "AE9DFD7C-61AF-45F8-BC87-08C480261DD9";
paths = (
{
closed = 1;
nodes = (
"441 574 LINE",
"528 1066 LINE",
"548 1058 OFFCURVE",
"621 1048 OFFCURVE",
"661 1048 QCURVE SMOOTH",
"763 1048 OFFCURVE",
"877 1120 OFFCURVE",
"888 1180 QCURVE SMOOTH",
"893 1210 OFFCURVE",
"878 1260 OFFCURVE",
"839 1295 OFFCURVE",
"781 1314 OFFCURVE",
"744 1314 QCURVE SMOOTH",
"669 1314 OFFCURVE",
"535 1234 OFFCURVE",
"480 1160 QCURVE",
"280 1380 LINE",
"326 1449 OFFCURVE",
"448 1560 OFFCURVE",
"590 1638 OFFCURVE",
"748 1680 OFFCURVE",
"829 1680 QCURVE SMOOTH",
"944 1680 OFFCURVE",
"1118 1599 OFFCURVE",
"1228 1462 OFFCURVE",
"1269 1284 OFFCURVE",
"1252 1187 QCURVE SMOOTH",
"1236 1099 OFFCURVE",
"1151 941 OFFCURVE",
"1034 814 OFFCURVE",
"893 723 OFFCURVE",
"822 702 QCURVE",
"800 574 LINE"
);
},
{
closed = 1;
nodes = (
"462 -32 OFFCURVE",
"379 10 OFFCURVE",
"325 82 OFFCURVE",
"303 179 OFFCURVE",
"313 234 QCURVE SMOOTH",
"323 289 OFFCURVE",
"379 386 OFFCURVE",
"458 458 OFFCURVE",
"556 500 OFFCURVE",
"607 500 QCURVE SMOOTH",
"658 500 OFFCURVE",
"741 458 OFFCURVE",
"795 386 OFFCURVE",
"817 289 OFFCURVE",
"808 234 QCURVE SMOOTH",
"798 179 OFFCURVE",
"742 82 OFFCURVE",
"662 10 OFFCURVE",
"564 -32 OFFCURVE",
"513 -32 QCURVE SMOOTH"
);
}
);
width = 1074;
},
{
layerId = "801DDF57-AF28-491E-9007-7F83CAB295FA";
paths = (
{
closed = 1;
nodes = (
"453 541 LINE",
"537 1013 LINE",
"557 1006 OFFCURVE",
"621 997 OFFCURVE",
"657 997 QCURVE SMOOTH",
"772 997 OFFCURVE",
"914 1095 OFFCURVE",
"929 1182 QCURVE SMOOTH",
"936 1224 OFFCURVE",
"918 1292 OFFCURVE",
"872 1340 OFFCURVE",
"800 1366 OFFCURVE",
"753 1366 QCURVE SMOOTH",
"668 1366 OFFCURVE",
"525 1278 OFFCURVE",
"474 1198 QCURVE",
"278 1350 LINE",
"319 1427 OFFCURVE",
"439 1549 OFFCURVE",
"581 1635 OFFCURVE",
"741 1680 OFFCURVE",
"824 1680 QCURVE SMOOTH",
"937 1680 OFFCURVE",
"1109 1600 OFFCURVE",
"1217 1464 OFFCURVE",
"1258 1286 OFFCURVE",
"1241 1187 QCURVE SMOOTH",
"1225 1096 OFFCURVE",
"1138 934 OFFCURVE",
"1015 806 OFFCURVE",
"866 718 OFFCURVE",
"789 701 QCURVE",
"760 541 LINE"
);
},
{
closed = 1;
nodes = (
"461 -32 OFFCURVE",
"390 4 OFFCURVE",
"343 67 OFFCURVE",
"324 150 OFFCURVE",
"333 198 QCURVE SMOOTH",
"341 246 OFFCURVE",
"389 329 OFFCURVE",
"459 392 OFFCURVE",
"542 428 OFFCURVE",
"587 428 QCURVE SMOOTH",
"632 428 OFFCURVE",
"702 392 OFFCURVE",
"750 329 OFFCURVE",
"769 246 OFFCURVE",
"760 198 QCURVE SMOOTH",
"752 150 OFFCURVE",
"704 67 OFFCURVE",
"634 4 OFFCURVE",
"551 -32 OFFCURVE",
"506 -32 QCURVE SMOOTH"
);
}
);
width = 1075;
},
{
layerId = "7828A6CD-C6F9-4202-83DF-9F2979E44CC9";
paths = (
{
closed = 1;
nodes = (
"478 505 LINE",
"558 956 LINE",
"577 950 OFFCURVE",
"631 942 OFFCURVE",
"662 942 QCURVE SMOOTH",
"726 942 OFFCURVE",
"836 975 OFFCURVE",
"918 1036 OFFCURVE",
"973 1126 OFFCURVE",
"983 1183 QCURVE SMOOTH",
"993 1238 OFFCURVE",
"972 1326 OFFCURVE",
"917 1388 OFFCURVE",
"831 1421 OFFCURVE",
"775 1421 QCURVE SMOOTH",
"679 1421 OFFCURVE",
"525 1326 OFFCURVE",
"475 1238 QCURVE",
"286 1317 LINE",
"324 1403 OFFCURVE",
"440 1538 OFFCURVE",
"582 1631 OFFCURVE",
"744 1680 OFFCURVE",
"829 1680 QCURVE SMOOTH",
"940 1680 OFFCURVE",
"1109 1601 OFFCURVE",
"1216 1466 OFFCURVE",
"1257 1287 OFFCURVE",
"1239 1186 QCURVE SMOOTH",
"1223 1093 OFFCURVE",
"1133 927 OFFCURVE",
"1005 798 OFFCURVE",
"848 712 OFFCURVE",
"764 699 QCURVE",
"730 505 LINE"
);
},
{
closed = 1;
nodes = (
"472 -32 OFFCURVE",
"413 -2 OFFCURVE",
"374 50 OFFCURVE",
"358 119 OFFCURVE",
"365 159 QCURVE SMOOTH",
"372 199 OFFCURVE",
"412 268 OFFCURVE",
"470 320 OFFCURVE",
"539 350 OFFCURVE",
"577 350 QCURVE SMOOTH",
"614 350 OFFCURVE",
"673 320 OFFCURVE",
"712 268 OFFCURVE",
"728 199 OFFCURVE",
"721 159 QCURVE SMOOTH",
"714 119 OFFCURVE",
"674 50 OFFCURVE",
"616 -2 OFFCURVE",
"546 -32 OFFCURVE",
"509 -32 QCURVE SMOOTH"
);
}
);
width = 1098;
},
{
layerId = "E014D827-045C-4C5E-9112-DAAA2F08F96E";
paths = (
{
closed = 1;
nodes = (
"482 474 LINE",
"559 907 LINE",
"598 896 OFFCURVE",
"652 896 QCURVE SMOOTH",
"722 896 OFFCURVE",
"844 935 OFFCURVE",
"937 1008 OFFCURVE",
"1001 1116 OFFCURVE",
"1013 1185 QCURVE SMOOTH",
"1025 1251 OFFCURVE",
"1002 1356 OFFCURVE",
"940 1429 OFFCURVE",
"841 1468 OFFCURVE",
"777 1468 QCURVE SMOOTH",
"663 1468 OFFCURVE",
"487 1345 OFFCURVE",
"441 1235 QCURVE",
"277 1289 LINE",
"312 1382 OFFCURVE",
"425 1528 OFFCURVE",
"568 1628 OFFCURVE",
"732 1680 OFFCURVE",
"818 1680 QCURVE SMOOTH",
"926 1680 OFFCURVE",
"1092 1602 OFFCURVE",
"1199 1468 OFFCURVE",
"1240 1288 OFFCURVE",
"1222 1186 QCURVE SMOOTH",
"1205 1091 OFFCURVE",
"1114 922 OFFCURVE",
"981 791 OFFCURVE",
"816 707 OFFCURVE",
"726 697 QCURVE",
"687 474 LINE"
);
},
{
closed = 1;
nodes = (
"464 -32 OFFCURVE",
"415 -7 OFFCURVE",
"384 35 OFFCURVE",
"371 93 OFFCURVE",
"376 126 QCURVE",
"382 159 OFFCURVE",
"416 217 OFFCURVE",
"462 259 OFFCURVE",
"520 284 OFFCURVE",
"551 284 QCURVE SMOOTH",
"582 284 OFFCURVE",
"631 259 OFFCURVE",
"663 217 OFFCURVE",
"676 159 OFFCURVE",
"670 126 QCURVE SMOOTH",
"664 93 OFFCURVE",
"631 35 OFFCURVE",
"584 -7 OFFCURVE",
"526 -32 OFFCURVE",
"495 -32 QCURVE SMOOTH"
);
}
);
width = 1080;
},
{
layerId = "FF432E7F-1027-4D02-BFD8-A992D5952530";
paths = (
{
closed = 1;
nodes = (
"503 449 LINE",
"577 868 LINE",
"595 863 OFFCURVE",
"635 859 OFFCURVE",
"660 859 QCURVE SMOOTH",
"734 859 OFFCURVE",
"865 902 OFFCURVE",
"969 986 OFFCURVE",
"1040 1108 OFFCURVE",
"1054 1186 QCURVE SMOOTH",
"1067 1261 OFFCURVE",
"1042 1379 OFFCURVE",
"974 1461 OFFCURVE",
"866 1505 OFFCURVE",
"795 1505 QCURVE SMOOTH",
"665 1505 OFFCURVE",
"475 1360 OFFCURVE",
"433 1230 QCURVE",
"287 1267 LINE",
"319 1366 OFFCURVE",
"430 1520 OFFCURVE",
"573 1625 OFFCURVE",
"738 1680 OFFCURVE",
"826 1680 QCURVE SMOOTH",
"932 1680 OFFCURVE",
"1097 1603 OFFCURVE",
"1203 1469 OFFCURVE",
"1243 1288 OFFCURVE",
"1225 1185 QCURVE SMOOTH",
"1208 1088 OFFCURVE",
"1115 917 OFFCURVE",
"979 785 OFFCURVE",
"809 703 OFFCURVE",
"714 695 QCURVE",
"670 449 LINE"
);
},
{
closed = 1;
nodes = (
"477 -32 OFFCURVE",
"436 -11 OFFCURVE",
"408 25 OFFCURVE",
"397 73 OFFCURVE",
"402 100 QCURVE SMOOTH",
"407 127 OFFCURVE",
"435 175 OFFCURVE",
"475 211 OFFCURVE",
"523 232 OFFCURVE",
"548 232 QCURVE SMOOTH",
"573 232 OFFCURVE",
"614 211 OFFCURVE",
"641 175 OFFCURVE",
"652 127 OFFCURVE",
"648 100 QCURVE",
"643 73 OFFCURVE",
"615 25 OFFCURVE",
"575 -11 OFFCURVE",
"527 -32 OFFCURVE",
"502 -32 QCURVE SMOOTH"
);
}
);
width = 1098;
},
{
layerId = "74131A9F-F041-4E04-A4FA-FF748C1727DF";
paths = (
{
closed = 1;
nodes = (
"488 418 LINE",
"559 820 LINE",
"577 816 OFFCURVE",
"606 812 OFFCURVE",
"628 812 QCURVE SMOOTH",
"709 812 OFFCURVE",
"853 862 OFFCURVE",
"969 958 OFFCURVE",
"1048 1098 OFFCURVE",
"1064 1187 QCURVE SMOOTH",
"1079 1273 OFFCURVE",
"1052 1408 OFFCURVE",
"976 1502 OFFCURVE",
"857 1552 OFFCURVE",
"779 1552 QCURVE SMOOTH",
"706 1552 OFFCURVE",
"578 1508 OFFCURVE",
"474 1425 OFFCURVE",
"398 1306 OFFCURVE",
"377 1231 QCURVE",
"266 1248 LINE",
"295 1349 OFFCURVE",
"401 1510 OFFCURVE",
"541 1621 OFFCURVE",
"710 1680 OFFCURVE",
"802 1680 QCURVE SMOOTH",
"906 1680 OFFCURVE",
"1067 1605 OFFCURVE",
"1169 1473 OFFCURVE",
"1207 1293 OFFCURVE",
"1189 1188 QCURVE SMOOTH",
"1171 1086 OFFCURVE",
"1075 910 OFFCURVE",
"935 778 OFFCURVE",
"757 698 OFFCURVE",
"656 693 QCURVE",
"607 418 LINE"
);
},
{
closed = 1;
nodes = (
"450 -32 OFFCURVE",
"419 -16 OFFCURVE",
"399 11 OFFCURVE",
"390 47 OFFCURVE",
"394 67 QCURVE SMOOTH",
"398 87 OFFCURVE",
"419 123 OFFCURVE",
"449 150 OFFCURVE",
"485 166 OFFCURVE",
"503 166 QCURVE SMOOTH",
"522 166 OFFCURVE",
"553 150 OFFCURVE",
"573 123 OFFCURVE",
"582 87 OFFCURVE",
"578 67 QCURVE SMOOTH",
"574 47 OFFCURVE",
"553 11 OFFCURVE",
"523 -16 OFFCURVE",
"488 -32 OFFCURVE",
"469 -32 QCURVE SMOOTH"
);
}
);
width = 1048;
},
{
layerId = "4B953CDD-5CE3-4322-8A9F-D31267D1A9B5";
paths = (
{
closed = 1;
nodes = (
"503 397 LINE",
"572 786 LINE",
"589 783 OFFCURVE",
"613 780 OFFCURVE",
"632 780 QCURVE SMOOTH",
"717 780 OFFCURVE",
"870 835 OFFCURVE",
"993 940 OFFCURVE",
"1079 1091 OFFCURVE",
"1096 1188 QCURVE SMOOTH",
"1112 1281 OFFCURVE",
"1084 1428 OFFCURVE",
"1003 1530 OFFCURVE",
"876 1584 OFFCURVE",
"794 1584 QCURVE SMOOTH",
"715 1584 OFFCURVE",
"576 1534 OFFCURVE",
"464 1441 OFFCURVE",
"383 1308 OFFCURVE",
"362 1225 QCURVE",
"278 1234 LINE",
"305 1337 OFFCURVE",
"406 1502 OFFCURVE",
"546 1618 OFFCURVE",
"716 1680 OFFCURVE",
"811 1680 QCURVE SMOOTH",
"914 1680 OFFCURVE",
"1073 1607 OFFCURVE",
"1171 1477 OFFCURVE",
"1208 1297 OFFCURVE",
"1189 1190 QCURVE SMOOTH",
"1170 1085 OFFCURVE",
"1073 905 OFFCURVE",
"930 772 OFFCURVE",
"747 695 OFFCURVE",
"642 692 QCURVE",
"590 397 LINE"
);
},
{
closed = 1;
nodes = (
"441 -32 OFFCURVE",
"407 13 OFFCURVE",
"413 45 QCURVE SMOOTH",
"419 77 OFFCURVE",
"468 122 OFFCURVE",
"498 122 QCURVE SMOOTH",
"528 122 OFFCURVE",
"562 77 OFFCURVE",
"556 45 QCURVE SMOOTH",
"550 13 OFFCURVE",
"501 -32 OFFCURVE",
"471 -32 QCURVE SMOOTH"
);
}
);
width = 1062;
},
{
layerId = "E14BD65A-535D-455D-BD93-03DF5D4D66A0";
paths = (
{
closed = 1;
nodes = (
"498 381 LINE",
"565 761 LINE",
"581 758 OFFCURVE",
"603 756 OFFCURVE",
"619 756 QCURVE SMOOTH",
"706 756 OFFCURVE",
"866 814 OFFCURVE",
"995 925 OFFCURVE",
"1086 1086 OFFCURVE",
"1104 1189 QCURVE SMOOTH",
"1121 1288 OFFCURVE",
"1091 1444 OFFCURVE",
"1006 1551 OFFCURVE",
"874 1608 OFFCURVE",
"788 1608 QCURVE SMOOTH",
"703 1608 OFFCURVE",
"556 1554 OFFCURVE",
"439 1453 OFFCURVE",
"355 1309 OFFCURVE",
"334 1219 QCURVE",
"270 1224 LINE",
"294 1328 OFFCURVE",
"394 1497 OFFCURVE",
"532 1616 OFFCURVE",
"704 1680 OFFCURVE",
"801 1680 QCURVE SMOOTH",
"903 1680 OFFCURVE",
"1060 1608 OFFCURVE",
"1157 1479 OFFCURVE",
"1191 1299 OFFCURVE",
"1172 1191 QCURVE SMOOTH",
"1153 1084 OFFCURVE",
"1055 902 OFFCURVE",
"910 768 OFFCURVE",
"723 692 OFFCURVE",
"615 691 QCURVE",
"561 381 LINE"
);
},
{
closed = 1;
nodes = (
"433 -32 OFFCURVE",
"407 3 OFFCURVE",
"411 28 QCURVE SMOOTH",
"415 53 OFFCURVE",
"454 88 OFFCURVE",
"477 88 QCURVE SMOOTH",
"500 88 OFFCURVE",
"527 53 OFFCURVE",
"523 28 QCURVE SMOOTH",
"519 3 OFFCURVE",
"479 -32 OFFCURVE",
"456 -32 QCURVE SMOOTH"
);
}
);
width = 1048;
},
{
layerId = "E447CA33-FCF6-431B-A31E-579E9AB2C071";
paths = (
{
closed = 1;
nodes = (
"508 370 LINE",
"574 744 LINE",
"589 742 OFFCURVE",
"609 740 OFFCURVE",
"623 740 QCURVE SMOOTH",
"713 740 OFFCURVE",
"878 800 OFFCURVE",
"1011 916 OFFCURVE",
"1105 1083 OFFCURVE",
"1123 1189 QCURVE SMOOTH",
"1141 1292 OFFCURVE",
"1110 1453 OFFCURVE",
"1023 1565 OFFCURVE",
"886 1624 OFFCURVE",
"798 1624 QCURVE SMOOTH",
"711 1624 OFFCURVE",
"559 1567 OFFCURVE",
"436 1460 OFFCURVE",
"350 1309 OFFCURVE",
"329 1215 QCURVE",
"278 1217 LINE",
"301 1322 OFFCURVE",
"399 1493 OFFCURVE",
"537 1614 OFFCURVE",
"711 1680 OFFCURVE",
"808 1680 QCURVE SMOOTH",
"910 1680 OFFCURVE",
"1065 1609 OFFCURVE",
"1162 1481 OFFCURVE",
"1195 1301 OFFCURVE",
"1176 1192 QCURVE SMOOTH",
"1157 1083 OFFCURVE",
"1058 899 OFFCURVE",
"911 765 OFFCURVE",
"722 690 OFFCURVE",
"611 690 QCURVE",
"555 370 LINE"
);
},
{
closed = 1;
nodes = (
"442 -33 OFFCURVE",
"421 -5 OFFCURVE",
"424 15 QCURVE",
"428 35 OFFCURVE",
"459 63 OFFCURVE",
"477 63 QCURVE SMOOTH",
"496 63 OFFCURVE",
"517 35 OFFCURVE",
"514 15 QCURVE",
"510 -5 OFFCURVE",
"480 -33 OFFCURVE",
"461 -33 QCURVE SMOOTH"
);
}
);
width = 1062;
}
);
unicode = 003F;
},
